SplineFontDB: 3.2
FontName: NewCMMono10-BookItalic
FullName: NewComputerModernMono10-BookItalic
FamilyName: NewComputerModernMono10
Weight: Book
Copyright: (C) 2019-2021 Antonis Tsolomitis. This work is released under the GUST Font License --  see http://tug.org/fonts/licenses/GUST-FONT-LICENSE.txt for details.
Version: 3.93
ItalicAngle: 0
UnderlinePosition: -167
UnderlineWidth: 69
Ascent: 778
Descent: 222
InvalidEm: 0
LayerCount: 2
Layer: 0 0 "Back" 1
Layer: 1 0 "Fore" 0
XUID: [1021 210 1223046955 16877]
StyleMap: 0x0040
FSType: 8
OS2Version: 3
OS2_WeightWidthSlopeOnly: 0
OS2_UseTypoMetrics: 0
CreationTime: 1254996148
ModificationTime: 1633795069
PfmFamily: 81
TTFWeight: 400
TTFWidth: 5
LineGap: 0
VLineGap: 0
Panose: 0 0 5 9 0 0 0 0 0 0
OS2TypoAscent: 778
OS2TypoAOffset: 0
OS2TypoDescent: -222
OS2TypoDOffset: 0
OS2TypoLinegap: 200
OS2WinAscent: 1016
OS2WinAOffset: 0
OS2WinDescent: 316
OS2WinDOffset: 0
HheadAscent: 1016
HheadAOffset: 0
HheadDescent: -316
HheadDOffset: 0
OS2SubXSize: 650
OS2SubYSize: 600
OS2SubXOff: 0
OS2SubYOff: 75
OS2SupXSize: 650
OS2SupYSize: 600
OS2SupXOff: 0
OS2SupYOff: 350
OS2StrikeYSize: 69
OS2StrikeYPos: 258
OS2CapHeight: 611
OS2XHeight: 431
OS2Vendor: 'UKWN'
OS2CodePages: 20000193.00000000
OS2UnicodeRanges: 20000007.00000000.00000000.00000000
Lookup: 1 0 0 "'aalt' Access All Alternates lookup 0" { "'aalt' Access All Alternates lookup 0 subtable"  } ['aalt' ('DFLT' <'dflt' > 'cyrl' <'dflt' > 'latn' <'AZE ' 'CRT ' 'MOL ' 'ROM ' 'TRK ' 'dflt' > ) ]
Lookup: 3 0 0 "'aalt' Access All Alternates lookup 1" { "'aalt' Access All Alternates lookup 1 subtable"  } ['aalt' ('DFLT' <'dflt' > 'cyrl' <'dflt' > 'latn' <'AZE ' 'CRT ' 'MOL ' 'ROM ' 'TRK ' 'dflt' > ) ]
Lookup: 1 0 0 "'locl' Localized Forms in Latin lookup 2" { "'locl' Localized Forms in Latin lookup 2 subtable"  } ['locl' ('latn' <'MOL ' 'ROM ' > ) ]

StartChar: acute.dup
Encoding: 1114113 -1 1
Width: 525
Flags: W
HStem: 488 72<271.126 300> 549 73<456 486.812>
VStem: 268 225
LayerCount: 2
Fore
SplineSet
493 585 m 0x60
 489.666666667 569 477.333333333 557 456 549 c 2x60
 316 493 l 2
 307.333333333 489.666666667 300.666666667 488 296 488 c 0
 277.333333333 488 268 499.666666667 268 523 c 2
 268 530 l 1
 273.092705467 546.296657493 277.847576201 549.598922756 290 555 c 0
 292.666666667 557 296 558.666666667 300 560 c 2xa0
 442 617 l 1
 462 622 l 1
 483.333333333 622 494 612.333333333 494 593 c 0
 494 591 494 591 494 589 c 0
 493.333333333 587 493 585.666666667 493 585 c 0x60
EndSplineSet
EndChar

StartChar: AE.dup
Encoding: 1114114 -1 2
Width: 525
Flags: W
HStem: 0 68<32.9699 85 149 182.767 230.857 274 338 451> 181 68<224 298> 282 68<398 539.078> 543 68<257.498 282 346 375 439 544>
VStem: 531 84<476 586>
LayerCount: 2
Fore
SplineSet
249 568 m 0
 249 597.825402937 270.033119795 611 300 611 c 2
 578 611 l 2
 602.666666667 611 615 602.666666667 615 586 c 0
 615 583.333333333 614.666666667 580.333333333 614 577 c 2
 597 494 l 2
 591 464.666666667 577.666666667 450 557 450 c 0
 539.666666667 450 531 458.666666667 531 476 c 0
 531 479.333333333 532 485.666666667 534 495 c 2
 544 543 l 1
 439 543 l 1
 398 350 l 1
 506 350 l 2
 527.658833844 350 544 343.957476767 544 326 c 0
 544 295.281228668 524.56209058 282 494 282 c 2
 383 282 l 1
 338 68 l 1
 451 68 l 1
 465 133 l 2
 471.666666667 162.333333333 484.666666667 177 504 177 c 0
 521.333333333 177 530 168.333333333 530 151 c 0
 530 144.333333333 529.333333333 137.666666667 528 131 c 2
 509 44 l 2
 502.728165181 12.6408259053 492.780586777 0 457 0 c 2
 266 0 l 2
 242.256764822 0 227 5.7457951126 227 26 c 2
 227 30 l 2
 227 54.748019846 247.939977669 67.3317942992 274 68 c 1
 298 181 l 1
 196 181 l 1
 149 68 l 1
 176.435446519 67.1426422963 183.767148017 60.9314079335 188 44 c 1
 188 14.3786404945 167.030403818 0 137 0 c 2
 66 0 l 2
 40.6666666667 0 28 8.33333333333 28 25 c 0
 28 26 28 26 28 29 c 0
 28.6666666667 31 29 32.6666666667 29 34 c 0
 33.6393218161 60.2894902912 50.9158710763 68 85 68 c 1
 282 543 l 1
 276 543 267.666666667 545.333333333 257 550 c 0
 251.666666667 554.666666667 249 560.666666667 249 568 c 0
346 543 m 1
 224 249 l 1
 313 249 l 1
 375 543 l 1
 346 543 l 1
EndSplineSet
EndChar

StartChar: ae.dup
Encoding: 1114115 -1 3
Width: 525
Flags: W
HStem: -6 68<125.232 228.86 360.419 444.514> 188 66<174.217 269 350 494> 372 68<210.309 283.435 411.169 489.86>
VStem: 55 65<67.1282 148.141> 116 97<329.432 371.866> 284 66<254 280> 498 65<264 365.079>
LayerCount: 2
Fore
SplineSet
470 440 m 0xee
 534.692189382 440 563 382.707822178 563 313 c 0
 563 288.775005196 557.640982958 247.563931833 554 233 c 0
 546.539555951 200.67140912 539.48142399 188 502 188 c 2
 336 188 l 1
 335.333333333 180.666666667 335 173.333333333 335 166 c 0
 335 115.455152056 357.493139939 62 404 62 c 0
 426.878505166 62 445.511164593 81.5186076553 456 99 c 0
 469.508720895 122.90004466 467.304415897 118.543571858 476 130.5 c 0
 480.463821195 136.637754143 490.113916191 142 502 142 c 0
 520 142 529 133.666666667 529 117 c 0
 529 114.333333333 528.333333333 112 527 110 c 0
 525 98 516.333333333 81.3333333333 501 60 c 0
 468.333333333 16 430.333333333 -6 387 -6 c 0
 344.333333333 -6 311.666666667 15.6666666667 289 59 c 1
 252.333333333 15.6666666667 205.666666667 -6 149 -6 c 0
 90.9946919164 -6 55 35.4635117322 55 93 c 0xf6
 55 102.333333333 56 111.666666667 58 121 c 0
 75.7383767458 204.623776087 176.419660324 249.620764876 284 251 c 1
 290 280 l 2
 290 283.366331957 293 294.636907873 293 298 c 2
 293 311 l 2
 293 351.666666667 274 372 236 372 c 0
 221.333333333 372 213.666666667 371.666666667 213 371 c 2
 213 363 l 1
 204.070200143 337.486286123 184.47327191 315 155 315 c 0
 129 315 116 327.666666667 116 353 c 2
 116 358 l 2
 116 360.666666667 116.333333333 363 117 365 c 0
 127 415 172 440 252 440 c 0
 300 440 333 417.666666667 351 373 c 1
 387.666666667 417.666666667 427.333333333 440 470 440 c 0xee
458 372 m 0
 409.638189956 372 364.400101694 298.308005212 350 254 c 1
 494 254 l 1
 495 259 495 259 496 264 c 2
 498 290 l 2
 498 296 498 296 498 301 c 0
 498 348.333333333 484.666666667 372 458 372 c 0
269 185 m 1
 204.796973626 182.530652832 120 161.878086412 120 108 c 0
 120 77.3333333333 135.666666667 62 167 62 c 0
 217.428132029 62 247.919566843 89.6300074768 258 136 c 0
 262 154.666666667 265.666666667 171 269 185 c 1
EndSplineSet
EndChar

StartChar: cedilla.dup
Encoding: 1114116 -1 4
Width: 525
Flags: W
HStem: -208 68<132.807 321.622> -70 115<264.549 329.422>
VStem: 257 77<-7.34692 39.6201> 331 76<-125.063 -75.5623>
LayerCount: 2
Fore
SplineSet
193 -140 m 0xd0
 279.642778347 -140 331 -128.877172073 331 -100 c 0xd0
 331 -81.3333333333 313.333333333 -71.3333333333 278 -70 c 0
 258 -70 248 -61.6666666667 248 -45 c 0
 248 -40.3333333333 249 -33.6666666667 251 -25 c 2
 257 1 l 2
 263.593092218 27.3723688704 270.635252033 45 304 45 c 0
 324 45 334 37 334 21 c 0xe0
 334 15.6666666667 332.666666667 6 330 -8 c 1
 381.333333333 -19.3333333333 407 -46.3333333333 407 -89 c 2
 407 -97 l 2
 407 -100.333333333 406.333333333 -103.333333333 405 -106 c 0
 399.666666667 -132.666666667 385.333333333 -154.333333333 362 -171 c 0
 346.666666667 -182.333333333 320.666666667 -192 284 -200 c 0
 260.666666667 -205.333333333 216.666666667 -208 152 -208 c 0
 132.666666667 -208 123 -199.666666667 123 -183 c 0
 123 -173 126.166666667 -163.333333333 132.5 -154 c 0
 138.833333333 -144.666666667 159 -140 193 -140 c 0xd0
EndSplineSet
EndChar

StartChar: circumflex.dup
Encoding: 1114117 -1 5
Width: 525
Flags: W
HStem: 488 134
VStem: 224 297<507.594 529>
LayerCount: 2
Fore
SplineSet
521 526 m 0
 521 507.593856659 500.379082428 488 482 488 c 0
 476 488 470.333333333 489.666666667 465 493 c 2
 380 551 l 1
 354.666666667 536.333333333 316 516.333333333 264 491 c 0
 258.666666667 489 254 488 250 488 c 0
 232.666666667 488 224 497 224 515 c 0
 224 529 230.666666667 539.666666667 244 547 c 2
 375 618 l 2
 380.333333333 620.666666667 386.333333333 622 393 622 c 0
 399 622 404 620.333333333 408 617 c 2
 510 546 l 2
 517.333333333 540.666666667 521 534 521 526 c 0
EndSplineSet
EndChar

StartChar: dieresis.dup
Encoding: 1114118 -1 6
Width: 525
Flags: W
HStem: 510 90<263.34 334.683 423.34 494.683>
VStem: 251 97<523.421 586.752> 411 97<523.421 586.752>
LayerCount: 2
Fore
SplineSet
508 564 m 0
 508 534.927189992 478.967317029 510 450 510 c 0
 424 510 411 522 411 546 c 0
 411 575.58725762 439.204113193 600 469 600 c 0
 495 600 508 588 508 564 c 0
348 564 m 0
 348 534.927189992 318.967317029 510 290 510 c 0
 264 510 251 522 251 546 c 0
 251 575.58725762 279.204113193 600 309 600 c 0
 335 600 348 588 348 564 c 0
EndSplineSet
EndChar

StartChar: Gcedilla
Encoding: 1114119 -1 7
Width: 525
Flags: W
HStem: -231 52<154.798 219.799> -13 68<220.45 334.037> 205 68<345.886 414 493 541.843> 554 68<313.97 435.684>
VStem: 92 77<117.995 351.926> 194 113<-124.757 -42.1545> 380 79<4.71387 32.7822> 414 79<171.441 205> 464 78<399.805 472.31>
LayerCount: 2
Fore
SplineSet
547 249 m 0xfd
 547 222.798104654 530.236781497 205 504 205 c 2
 493 205 l 1xfd
 459 42 l 2
 453 12.6666666667 437.666666667 -2 413 -2 c 0
 391 -2 380 6.33333333333 380 23 c 0
 380 25 380.333333333 28.3333333333 381 33 c 1
 343 2.33333333333 302.333333333 -13 259 -13 c 0
 170.594745826 -13 119.943089656 53.2276413761 101 129 c 0
 95 155 92 182.666666667 92 212 c 0
 92 242.666666667 95.3333333333 274 102 306 c 0
 118 382.666666667 150.333333333 451.666666667 199 513 c 0
 256.333333333 585.666666667 320.333333333 622 391 622 c 0
 433 622 468.333333333 608 497 580 c 1
 515 608 531.333333333 622 546 622 c 0
 564.666666667 622 574 613.333333333 574 596 c 0
 574 592.666666667 573 586.333333333 571 577 c 2
 542 439 l 2
 535.408902936 406.986099977 526.269085271 395 495 395 c 0
 474.333333333 395 464 404 464 422 c 2
 464 428 l 2xfe80
 464.666666667 430.666666667 465 433 465 435 c 2
 465 443 l 2
 465 485.666666667 455 515.666666667 435 533 c 0
 419 547 401.333333333 554 382 554 c 0
 333.333333333 554 288 523.333333333 246 462 c 0
 212 412 189 359 177 303 c 0
 171.666666667 275 169 248.333333333 169 223 c 0
 169 141.33284589 202.502951528 55 275 55 c 0
 346.722747591 55 392.582450019 139.620110583 414 205 c 1
 378 205 l 2
 355.543464231 205 341 211.003796564 341 230 c 1
 342 240 l 1
 346.233083815 262.576447013 363.238090356 273 391 273 c 2
 508 273 l 2
 534 273 547 265 547 249 c 0xfd
194 -87 m 0
 194 -53.9271899923 222.980394927 -27 256 -27 c 0
 290 -27 307 -46 307 -84 c 0
 307 -116 294.666666667 -146 270 -174 c 0
 236 -212 205 -231 177 -231 c 0
 161.666666667 -231 154 -223 154 -207 c 0
 154 -193.666666667 163 -184.333333333 181 -179 c 0
 209.666666667 -170.333333333 230.666666667 -153 244 -127 c 1
 241.333333333 -127.666666667 238.666666667 -128 236 -128 c 0
 208 -128 194 -114.333333333 194 -87 c 0
EndSplineSet
EndChar

StartChar: gcedilla
Encoding: 1114120 -1 8
Width: 525
Flags: W
HStem: -229 67<122.087 342.926> 2 64<168.133 381.221> 113 67<218.286 331.477> 342 102<507.21 582.748> 372 67<253.243 364.802 453.028 514.5> 613 52<361.966 427.173>
VStem: 9 67<-125.898 -39.6662> 100 66<69.1288 135.523> 121 77<200.559 275> 273 114<473.524 557.92> 385 77<233.51 351.946> 416 66<-108.218 -22.5391>
CounterMasks: 1 e8
LayerCount: 2
Fore
SplineSet
400 613 m 0xe640
 372.666666667 604.333333333 352 587 338 561 c 1
 340.666666667 561.666666667 343 562 345 562 c 0
 373 562 387 548.333333333 387 521 c 2
 387 516 l 2
 387 514 386.666666667 511.666666667 386 509 c 0
 378.666666667 477 358.333333333 461 325 461 c 0
 290.333333333 461 273 480 273 518 c 0
 273 550.666666667 285.666666667 580.666666667 311 608 c 0
 345.666666667 646 377 665 405 665 c 0
 420.333333333 665 428 657 428 641 c 0
 428 627.666666667 418.666666667 618.333333333 400 613 c 0xe640
100 89 m 0xf710
 100 128.81189695 114.952639963 157.743167956 136 183 c 1
 126 201 121 221.333333333 121 244 c 0
 121 300 146.333333333 349 197 391 c 0
 235.666666667 423 278.666666667 439 326 439 c 0
 360.666666667 439 390.666666667 429.333333333 416 410 c 1xee90
 451.333333333 432.666666667 488.333333333 444 527 444 c 0
 570.333333333 444 592 427.666666667 592 395 c 2
 592 391 l 2
 592 388.333333333 591.666666667 386.333333333 591 385 c 0
 585 356.333333333 568 342 540 342 c 0
 518 342 506 353 504 375 c 1
 486 373 468.666666667 368.333333333 452 361 c 1
 458.666666667 344.333333333 462 326.333333333 462 307 c 2
 462 300 l 2xf620
 462 272 452 242.666666667 432 212 c 0
 388.666666667 146 331 113 259 113 c 0
 227 113 199.333333333 120.666666667 176 136 c 1
 169.333333333 124 166 112.666666667 166 102 c 0
 166 78.7770595572 175.713762125 68 197 68 c 0
 202.333333333 66.6666666667 211.666666667 66 225 66 c 2
 294 66 l 2
 419.333333333 66 482 26 482 -54 c 0
 482 -168.80747872 338.132028105 -229 214 -229 c 0
 164.666666667 -229 121 -220 83 -202 c 0
 33.6666666667 -178.666666667 9 -144.666666667 9 -100 c 0
 9 -90.6666666667 10 -83.3333333333 12 -78 c 0
 13.3333333333 -68.6666666667 19.6666666667 -52.6666666667 31 -30 c 0
 45 -1.33333333333 71 23.6666666667 109 45 c 1
 103 58.3333333333 100 73 100 89 c 0xf710
383 277 m 0
 383 279.688644436 385 289.042966982 385 292 c 2
 385 297 l 2xeea0
 385 340.229844725 355.973711247 372 313 372 c 0
 260.537778784 372 208.179133381 319.271322516 201 275 c 2
 198 254 l 1
 198 212.127817576 228.405052482 180 270 180 c 0
 326.559082236 180 372.067133456 229.624244978 383 277 c 0
181 2 m 1
 124.774433338 -3.81643793051 85.1512227572 -37.2102811568 76 -85 c 1
 76 -87 l 2
 76 -113 96 -132.666666667 136 -146 c 0
 165.333333333 -156.666666667 195.666666667 -162 227 -162 c 0
 304.69861815 -162 416 -128.752341139 416 -62 c 0xe610
 416 -43.3333333333 404.666666667 -27.3333333333 382 -14 c 0
 366.028838571 -5.28845740253 308.696598505 2 268 2 c 2
 181 2 l 1
EndSplineSet
EndChar

StartChar: germandbls.dup
Encoding: 1114121 -1 9
Width: 525
Flags: W
HStem: -228 135<53.194 127.652> -8 68<356.686 396.353> 364 69<163.472 233> 549 68<349.988 474.219>
VStem: 273 90<62.314 118.953> 357 76<240.552 324.242> 420 76<84.8242 186.767> 475 77<446.693 545.007>
LayerCount: 2
Fore
SplineSet
35 -157 m 0xf5
 35 -122.4172199 53.8011541298 -93 88 -93 c 0
 107.333333333 -93 120.666666667 -100.333333333 128 -115 c 1
 178 88 l 1
 233 364 l 1
 205 364 l 2
 175.666666667 364 161 374.666666667 161 396 c 0
 161 420.666666667 176 433 206 433 c 2
 247 433 l 1
 253 463 253 463 256 478 c 0
 260.666666667 498 268.666666667 523.333333333 280 554 c 1
 296.889746793 576.921799219 305.438249577 592.575299831 329 602 c 0
 354.333333333 612 384 617 418 617 c 0
 507.333333333 617 552 588.333333333 552 531 c 0
 552 511.666666667 542.333333333 474.666666667 523 420 c 0
 513.666666667 392 500.333333333 369.666666667 483 353 c 0
 459 329.666666667 444.666666667 314.333333333 440 307 c 0
 435.333333333 299.666666667 433 292.333333333 433 285 c 0xf5
 433 274.333333333 443.5 255 464.5 227 c 0
 485.5 199 496 171.333333333 496 144 c 0
 496 108 483.333333333 74 458 42 c 0
 430.666666667 8.66666666667 399.333333333 -8 364 -8 c 0
 315.680037609 -8 273 22.6958354185 273 71 c 0
 273 102.496320742 294.024753279 129 322 129 c 0
 345.016307906 129 363 111.341996153 363 88 c 0
 363 77.3333333333 360.666666667 68.6666666667 356 62 c 1
 358.666666667 60.6666666667 361.666666667 60 365 60 c 0
 378.333333333 60 391 70.6666666667 403 92 c 0
 414.333333333 110.666666667 420 127 420 141 c 0xfa
 420 152.333333333 409.5 172.333333333 388.5 201 c 0
 367.5 229.666666667 357 257 357 283 c 0
 357 317 377 353 417 391 c 0
 433 405.666666667 445.333333333 425 454 449 c 0
 468 488.333333333 475 515.333333333 475 530 c 0
 475 542.666666667 455.666666667 549 417 549 c 0
 357.272543602 549 344.187323346 534.210032148 334 482 c 2
 245 33 l 2
 229.666666667 -43.6666666667 216.666666667 -96 206 -124 c 0
 180 -193.333333333 145.666666667 -228 103 -228 c 0
 63.2084186605 -228 35 -196.712415761 35 -157 c 0xf5
EndSplineSet
EndChar

StartChar: hyphen.dup
Encoding: 1114122 -1 10
Width: 525
Flags: W
HStem: 271 70<126.462 527.538>
LayerCount: 2
Fore
SplineSet
534 314 m 2
 534 309 l 2
 533.333333333 307.666666667 533 306.666666667 533 306 c 0
 527.666666667 282.666666667 508.666666667 271 476 271 c 2
 158 271 l 2
 132.666666667 271 120 280 120 298 c 2
 120 303 l 2
 120.666666667 304.333333333 121 305.333333333 121 306 c 0
 126.333333333 329.333333333 145.333333333 341 178 341 c 2
 496 341 l 2
 521.333333333 341 534 332 534 314 c 2
EndSplineSet
EndChar

StartChar: Kcedilla
Encoding: 1114123 -1 11
Width: 525
Flags: W
HStem: -231 52<153.827 219.533> -2 68<35.581 101 164 215.257 342.62 384 453.001 498.08> 543 68<150.591 202 265 331.036 543 603.295>
VStem: 194 113<-124.757 -41.4768> 339 164<4.05458 60.5703>
LayerCount: 2
Fore
SplineSet
335 581 m 2
 335 555.271056027 312.59088914 543 283 543 c 2
 265 543 l 1
 212 295 l 1
 461 543 l 1
 440.333333333 545 430 553.333333333 430 568 c 0
 430 569.333333333 430.333333333 571 431 573 c 0
 431 575 431 575 431 577 c 0
 436.333333333 599.666666667 453.666666667 611 483 611 c 2
 570 611 l 2
 595.333333333 611 608 602.333333333 608 585 c 0
 608 564.886739757 596.47432564 550.545875168 583 547 c 0
 574.333333333 544.333333333 561 543 543 543 c 1
 355 355 l 1
 453 75 l 2
 453 73 454 70 456 66 c 1
 482.086861823 66 503 65.5421430575 503 41 c 0
 503 12.3625484289 483.853780141 -2 451 -2 c 2
 377 -2 l 2
 353.124778963 -2 339 3.67823625855 339 24 c 2
 339 29 l 2
 339 52.2282453381 358.830644572 64.6752970827 384 66 c 1
 302 303 l 1
 190 192 l 1
 164 66 l 1
 190 66 l 2
 206.263474431 66 219 57.3177668846 219 40 c 2
 219 36 l 2
 219 10.3539959811 198.049188849 -2 168 -2 c 2
 69 -2 l 2
 43.0303564542 -2 31 3.50277879834 31 24 c 0
 31 52.5997482871 51.2059521855 66 82 66 c 2
 101 66 l 1
 202 543 l 1
 185 543 l 2
 162.050510655 543 145 548.786537844 145 568 c 0
 145 568.666666667 145.333333333 569.666666667 146 571 c 2
 146 578 l 1
 151.333333333 600 168.666666667 611 198 611 c 2
 306 611 l 2
 325.333333333 611 335 602.333333333 335 585 c 2
 335 581 l 2
194 -87 m 0
 194 -53.4045957887 222.135797568 -27 256 -27 c 0
 290 -27 307 -46 307 -84 c 0
 307 -116 294.666666667 -146 270 -174 c 0
 236 -212 204.666666667 -231 176 -231 c 0
 160.666666667 -231 153 -223 153 -207 c 0
 153 -193.666666667 162.333333333 -184.333333333 181 -179 c 0
 209 -170.333333333 230 -153 244 -127 c 1
 240.666666667 -127.666666667 237.666666667 -128 235 -128 c 0
 207.666666667 -128 194 -114.333333333 194 -87 c 0
EndSplineSet
EndChar

StartChar: kcedilla
Encoding: 1114124 -1 12
Width: 525
Flags: W
HStem: -231 52<147.65 211.144> -8 68<395.232 451.522> 419 20G<445.667 493.333> 543 68<130.527 224>
VStem: 128 181<547.453 607.219> 192 112<-120.86 -40.6898> 318 76<60.6999 166.457> 475 78<84.7891 172.869>
LayerCount: 2
Fore
SplineSet
399 133 m 0xfb
 399 123.879639913 394 98.310940895 394 90 c 0
 394 70 402.666666667 60 420 60 c 0
 442.666666667 60 461 87.3333333333 475 142 c 0
 481.692669467 162.0780084 488.42065177 176 515 176 c 0
 540.333333333 176 553 165.333333333 553 144 c 0
 553 130 543.333333333 103.333333333 524 64 c 0
 500 16 465 -8 419 -8 c 0
 362.057451655 -8 318 34.0065389491 318 91 c 0
 318 98.9603859059 323 124.046633725 323 132 c 0
 323 162 286 179.333333333 212 184 c 1
 174 29 l 2
 167.333333333 4.33333333333 153.666666667 -8 133 -8 c 0
 112.631973557 -8 97 8.33345661352 97 29 c 0
 97 31.6666666667 98.3333333333 38.3333333333 101 49 c 2
 224 543 l 1
 173 543 l 2
 143 543 128 553.333333333 128 574 c 0
 128 598.666666667 143.333333333 611 174 611 c 2
 265 611 l 2
 294.333333333 611 309 600.333333333 309 579 c 0
 309 575.666666667 308 569.666666667 306 561 c 2
 234 272 l 1
 252.666666667 284 279.333333333 309 314 347 c 0
 369.333333333 408.333333333 421.333333333 439 470 439 c 0
 516.666666667 439 540 411.333333333 540 356 c 0
 540 298 521 269 483 269 c 0
 457.822980662 269 439 287.823530797 439 313 c 0
 439 330.333333333 447 344.666666667 463 356 c 0
 464.333333333 358 465 362.666666667 465 370 c 1
 436.333333333 366.666666667 406.333333333 348.333333333 375 315 c 2
 339 277 l 2
 331 268.333333333 318.666666667 255.666666667 302 239 c 1
 366.666666667 219.666666667 399 184.333333333 399 133 c 0xfb
250 -27 m 0
 284.614562002 -27 304 -53.5686295288 304 -88 c 0
 304 -118 289.666666667 -149.333333333 261 -182 c 0
 232.333333333 -214.666666667 203.666666667 -231 175 -231 c 0
 161.034825635 -231 147 -217.685797415 147 -204 c 0
 147 -190.666666667 154.333333333 -182.333333333 169 -179 c 0
 198.333333333 -171 221 -154 237 -128 c 1
 211.849032995 -128 192 -109.176469203 192 -84 c 0xf7
 192 -53.6199089915 219.647061594 -27 250 -27 c 0
EndSplineSet
EndChar

StartChar: Lcedilla
Encoding: 1114125 -1 13
Width: 525
Flags: W
HStem: -231 52<154.798 219.799> -2 68<42.3502 121 197 426> 543 68<156.292 222 298 397.093>
VStem: 194 114<-124.757 -42.1545>
LayerCount: 2
Fore
SplineSet
401 581 m 2
 401 555.353995981 378.886264518 543 350 543 c 2
 298 543 l 1
 197 66 l 1
 426 66 l 1
 440 131 l 2
 446.760180043 161.420810195 452.742140824 175 487 175 c 0
 508.333333333 175 519 166.666666667 519 150 c 0
 519 146 518 139.333333333 516 130 c 2
 497 42 l 2
 490.728165181 10.6408259053 480.780586777 -2 445 -2 c 2
 75 -2 l 2
 49.6666666667 -2 37 6.33333333333 37 23 c 0
 37 51.9172158675 58.6009898446 66 88 66 c 2
 121 66 l 1
 222 543 l 1
 190 543 l 2
 164.666666667 543 152 551 152 567 c 0
 152 599.39415274 170.5111821 611 203 611 c 2
 363 611 l 2
 388.333333333 611 401 602.333333333 401 585 c 2
 401 581 l 2
194 -87 m 0
 194 -53.9271899923 222.980394927 -27 256 -27 c 0
 290.666666667 -27 308 -46 308 -84 c 0
 308 -116 295.333333333 -146 270 -174 c 0
 236 -212 205 -231 177 -231 c 0
 161.666666667 -231 154 -223 154 -207 c 0
 154 -193.666666667 163 -184.333333333 181 -179 c 0
 209.666666667 -170.333333333 230.666666667 -153 244 -127 c 1
 241.333333333 -127.666666667 238.666666667 -128 236 -128 c 0
 208 -128 194 -114.333333333 194 -87 c 0
EndSplineSet
EndChar

StartChar: lcedilla
Encoding: 1114126 -1 14
Width: 525
Flags: W
HStem: -231 52<148.781 211.144> -8 68<294.546 375.195> 543 68<197.472 323>
VStem: 193 111<-122.312 -40.8732> 215 76<67.1636 139.33> 404 75<92.3064 173.444>
LayerCount: 2
Fore
SplineSet
291 93 m 0xec
 291 73.8066289491 313.971341156 60 340 60 c 0
 366.666666667 60 388 89 404 147 c 0
 409.333333333 166.333333333 421.666666667 176 441 176 c 0
 466.333333333 176 479 165.333333333 479 144 c 0
 479 128 468.666666667 101 448 63 c 0
 422.666666667 15.6666666667 386.333333333 -8 339 -8 c 0
 274.084663565 -8 215 29.5414084717 215 92 c 0
 215 101.333333333 216.333333333 111.666666667 219 123 c 2
 323 543 l 1
 239 543 l 2
 209.666666667 543 195 553.333333333 195 574 c 0
 195 598.666666667 210 611 240 611 c 2
 365 611 l 2
 394.333333333 611 409 600.333333333 409 579 c 0
 409 575.666666667 408 569.666666667 406 561 c 2
 294 112 l 2
 292 101.333333333 291 95 291 93 c 0xec
251 -27 m 0
 284.73731699 -27 304 -54.1364518124 304 -88 c 0
 304 -118 289.833333333 -149.333333333 261.5 -182 c 0
 233.166666667 -214.666666667 204.333333333 -231 175 -231 c 0
 161.849032995 -231 148 -217.150325181 148 -204 c 0
 148 -190.666666667 155 -182.333333333 169 -179 c 0
 198.333333333 -171 221 -154 237 -128 c 1
 211.822980662 -128 193 -109.176469203 193 -84 c 0xf4
 193 -53.6199089915 220.647061594 -27 251 -27 c 0
EndSplineSet
EndChar

StartChar: macron.dup
Encoding: 1114127 -1 15
Width: 525
Flags: W
HStem: 524 63<213.153 588.847>
LayerCount: 2
Fore
SplineSet
546 524 m 2
 254 524 l 2
 225.333333333 524 211 533.333333333 211 552 c 0
 211 575.333333333 226 587 256 587 c 2
 548 587 l 2
 576.666666667 587 591 577.666666667 591 559 c 0
 591 535.666666667 576 524 546 524 c 2
EndSplineSet
EndChar

StartChar: Ncedilla
Encoding: 1114128 -1 16
Width: 525
Flags: W
HStem: -231 52<154.827 220.533> -2 68<38.8983 106 169 222.387> 543 68<152.513 207 432.088 485 548 615.328>
VStem: 195 113<-124.757 -41.4768>
LayerCount: 2
Fore
SplineSet
148 567 m 0
 148 600.144190245 167.679473907 611 200 611 c 2
 267 611 l 2
 301.614638909 611 310.939126873 603.630457042 316 572 c 2
 390 95 l 1
 485 543 l 1
 465 543 l 2
 439.666666667 543 427 551 427 567 c 0
 427 597.28337299 447.193048451 611 478 611 c 2
 583 611 l 2
 606.375388214 611 620 605.437915215 620 586 c 0
 620 556.169578581 600.000565768 543 570 543 c 2
 548 543 l 1
 442 42 l 2
 435.657390535 7.7499088867 426.566334553 -2 388 -2 c 0
 352.674102866 -2 342.644471604 7.58501317455 338 37 c 2
 264 514 l 1
 169 66 l 1
 189 66 l 2
 213.666666667 66 226 57.6666666667 226 41 c 2
 226 36 l 2
 226 9.30410693165 203.810573668 -2 176 -2 c 2
 71 -2 l 2
 47.7698941978 -2 33 3.63932590646 33 23 c 0
 33 25.6666666667 33.6666666667 29 35 33 c 0
 39 55 55.3333333333 66 84 66 c 2
 106 66 l 1
 207 543 l 1
 187 543 l 2
 164.583012689 543 148 548.694469962 148 567 c 0
195 -87 m 0
 195 -53.4045957887 223.135797568 -27 257 -27 c 0
 291 -27 308 -46 308 -84 c 0
 308 -116 295.666666667 -146 271 -174 c 0
 237 -212 205.666666667 -231 177 -231 c 0
 161.666666667 -231 154 -223 154 -207 c 0
 154 -193.666666667 163.333333333 -184.333333333 182 -179 c 0
 210 -170.333333333 231 -153 245 -127 c 1
 241.666666667 -127.666666667 238.666666667 -128 236 -128 c 0
 208.666666667 -128 195 -114.333333333 195 -87 c 0
EndSplineSet
EndChar

StartChar: ncedilla
Encoding: 1114129 -1 17
Width: 525
Flags: W
HStem: -231 52<147.65 210.947> -9 69<418.406 451.827> 368 69<173.946 199.764 330.27 408.169>
VStem: 124 72<-5.24607 93.825> 192 112<-122.619 -41.105> 344 74<61.0196 141.245> 410 76<233.184 367.489> 475 78<84.3672 171.662>
LayerCount: 2
Fore
SplineSet
385 437 m 0xf2
 449.372254426 437 486 394.559907899 486 330 c 0xf2
 486 294.666666667 469 227.666666667 435 129 c 0
 423.666666667 97.6666666667 418 78.3333333333 418 71 c 256
 418 63.6666666667 419.666666667 60 423 60 c 0
 443 60 460.333333333 87 475 141 c 0
 481.692669467 161.0780084 488.42065177 175 515 175 c 0
 540.333333333 175 553 164.666666667 553 144 c 0
 553 108 534.333333333 69.3333333333 497 28 c 0
 475 3.33333333333 449.666666667 -9 421 -9 c 0
 374.016050964 -9 344 27.8669195984 344 75 c 0xe5
 344 91 347.666666667 109.333333333 355 130 c 0
 391.666666667 236 410 303 410 331 c 0
 410 356.333333333 401 369 383 369 c 0
 339 369 299.333333333 326.666666667 264 242 c 0
 247.333333333 202 229 141.666666667 209 61 c 0
 202.333333333 35 198 19.6666666667 196 15 c 0
 188.666666667 -1 177 -9 161 -9 c 0
 141.182366328 -9 124 8.18300815207 124 28 c 0
 124 30.6666666667 125.333333333 37.6666666667 128 49 c 2
 197 324 l 2
 199 332 200 339.666666667 200 347 c 0
 200 361 197 368 191 368 c 0
 180.333333333 368 170 344 160 296 c 0
 154 267.333333333 139.666666667 253 117 253 c 0
 92.3333333333 253 80 263.666666667 80 285 c 0
 80 291 83 305 89 327 c 0
 110.333333333 400.333333333 144.333333333 437 191 437 c 0
 228.333333333 437 253.666666667 420 267 386 c 1
 303 420 342.333333333 437 385 437 c 0xf2
250 -27 m 0
 284.614562002 -27 304 -54.5947735506 304 -89 c 0
 304 -118.333333333 289.666666667 -149.333333333 261 -182 c 0
 232.333333333 -214.666666667 203.333333333 -231 174 -231 c 0
 160.306416718 -231 147 -218.001199245 147 -204 c 0
 147 -190.666666667 154.333333333 -182.333333333 169 -179 c 0
 198.333333333 -171 221 -154 237 -128 c 1
 236 -128 l 2
 210.822980662 -128 192 -110.202613225 192 -85 c 0xe8
 192 -54.645961324 219.647061594 -27 250 -27 c 0
EndSplineSet
EndChar

StartChar: OE.dup
Encoding: 1114130 -1 18
Width: 525
Flags: W
HStem: -11 68<140.946 261.3> 0 68<336 454> 282 68<396 544.078> 543 68<437 548> 554 68<240.587 359.243>
VStem: 60 68<69.8123 252.142> 535 84<476 586>
LayerCount: 2
Fore
SplineSet
325 622 m 0xae
 344.181492428 622 406.836326636 611 426 611 c 2
 582 611 l 2
 606.666666667 611 619 602.666666667 619 586 c 0
 619 583.333333333 618.666666667 580.333333333 618 577 c 2
 601 494 l 2
 595 464.666666667 581.666666667 450 561 450 c 0
 543.666666667 450 535 458.666666667 535 476 c 0
 535 479.333333333 536 485.666666667 538 495 c 2
 548 543 l 1
 437 543 l 1
 396 350 l 1
 512 350 l 2
 533.803199441 350 549 344.034919185 549 326 c 0
 549 295.281228668 529.56209058 282 499 282 c 2
 382 282 l 1
 336 68 l 1
 454 68 l 1
 468 133 l 2
 474.666666667 162.333333333 488 177 508 177 c 0
 524.666666667 177 533 168.333333333 533 151 c 0
 533 144.333333333 532.333333333 137.666666667 531 131 c 2
 512 43 l 2
 505.661909175 12.5771640414 495.383893559 0 460 0 c 2
 298 0 l 2x76
 277.485174239 0 213.497006697 -11 193 -11 c 0
 123.666666667 -11 82.3333333333 3.33333333333 69 32 c 0
 63 45.3333333333 60 63.6666666667 60 87 c 0
 60 133 71.5 208.666666667 94.5 314 c 0
 117.5 419.333333333 138.333333333 493.333333333 157 536 c 0
 185.774658406 601.05574944 231.081877443 622 325 622 c 0xae
362 512 m 0
 362 546.927189992 350.823530797 554 316 554 c 0
 229.976340251 554 198.657960002 499.119568007 180 422 c 0
 172.666666667 385.333333333 165.666666667 349 159 313 c 0
 138.333333333 216.333333333 128 154.666666667 128 128 c 0
 128 71.0286206693 152.202463678 57 212 57 c 0xae
 239.333333333 57 260 70.3333333333 274 97 c 0
 280.666666667 110.333333333 288 136 296 174 c 2
 351 438 l 2
 358.333333333 472.666666667 362 497.333333333 362 512 c 0
EndSplineSet
EndChar

StartChar: oe.dup
Encoding: 1114131 -1 19
Width: 525
Flags: W
HStem: -6 68<153.767 214.33 355.51 468.963> 371 68<227.701 288.739 432.178 507.002>
VStem: 71 75<63.6957 246.079> 509 64<291.017 367.355>
LayerCount: 2
Fore
SplineSet
573 339 m 0
 573 228.995881866 464.72695748 186 343 186 c 1
 341 169.333333333 340 157 340 149 c 0
 340 109.457874262 352.934633019 62 392 62 c 0
 432.666666667 62 467.333333333 76.3333333333 496 105 c 0
 503.333333333 112.333333333 511.333333333 116 520 116 c 0
 540.666666667 116 551 105.333333333 551 84 c 0
 551 66.6666666667 533.166666667 47.3333333333 497.5 26 c 0
 461.833333333 4.66666666667 426 -6 390 -6 c 0
 340 -6 306 20 288 72 c 1
 251.333333333 18.6666666667 212 -8 170 -8 c 0
 101.758265358 -8 71 61.7959464918 71 136 c 0
 71 196.666666667 88.3333333333 259.666666667 123 325 c 0
 163 401 210.666666667 439 266 439 c 0
 308.666666667 439 337.333333333 413 352 361 c 1
 394 411.666666667 437.333333333 437 482 437 c 0
 537.817633672 437 573 394.633983696 573 339 c 0
480 369 m 0
 430.732859359 369 379.102739362 295.687927196 362 254 c 1
 460 259.333333333 509 286.666666667 509 336 c 0
 509 358 499.333333333 369 480 369 c 0
146 123 m 2
 146 105.159917896 154.494037562 60 172 60 c 0
 196.666666667 60 223.5 85.8333333333 252.5 137.5 c 0
 281.5 189.166666667 296 242 296 296 c 0
 296 302 296 302 296 311 c 0
 293.333333333 351 283 371 265 371 c 0
 241.666666667 371 216 344.333333333 188 291 c 0
 160 237.666666667 146 184.666666667 146 132 c 2
 146 123 l 2
EndSplineSet
EndChar

StartChar: Oslash.dup
Encoding: 1114132 -1 20
Width: 525
Flags: W
HStem: -12 70<230.41 385.71> 554 69<294.821 421.59>
VStem: 88 68<80.3357 256.188> 496 68<352.352 529.929>
LayerCount: 2
Fore
SplineSet
521 696 m 0
 535.484300339 696 550 683.535946558 550 669 c 2
 550 662 l 1
 548.666666667 656 539.333333333 637.333333333 522 606 c 1
 550 590.666666667 564 560.333333333 564 515 c 0
 564 472.333333333 553.333333333 402 532 304 c 0
 510.734342942 204.317232541 487.120934413 89.5542241064 443 38.5 c 0
 404.596032695 -5.93887645303 345.985203319 -12 260 -12 c 0
 232.666666667 -12 210.666666667 -11.3333333333 194 -10 c 1
 186.666666667 -22.6666666667 176 -41.6666666667 162 -67 c 0
 154.666666667 -79.6666666667 144.333333333 -85.6666666667 131 -85 c 0
 111.666666667 -83.6666666667 102 -74.6666666667 102 -58 c 2
 102 -51 l 1
 103.333333333 -45 112.666666667 -26.3333333333 130 5 c 1
 102 21 88 50.6666666667 88 94 c 0
 88 110.666666667 89 129 91 149 c 0
 93.6666666667 177 103.333333333 229.333333333 120 306 c 0
 127.343956576 344.055047713 155.763001255 469.31543144 181 527 c 0
 216.11256349 606.003267853 272.706046582 623 392 623 c 0
 419.333333333 623 441.333333333 622.333333333 458 621 c 1
 482 664 l 1
 489.744201823 683.790737993 499.346070131 696 521 696 c 0
482 531 m 1
 230 58 l 1
 232 58 232 58 235 58 c 0
 241 57.3333333333 253.666666667 57 273 57 c 0
 312.333333333 57 340.666666667 59.6666666667 358 65 c 0
 384 73.6666666667 404.166666667 92.8333333333 418.5 122.5 c 0
 432.833333333 152.166666667 450 213.666666667 470 307 c 0
 483.333333333 371.666666667 491.666666667 421 495 455 c 0
 495.666666667 465.666666667 496 475 496 483 c 0
 496 504.031259562 492.093482887 520.906517113 482 531 c 1
417 553 m 0
 411 553.666666667 398.333333333 554 379 554 c 0
 339.666666667 554 311.333333333 551.333333333 294 546 c 0
 268 536.666666667 248 518 234 490 c 0
 219.333333333 460 202 398 182 304 c 0
 164.666666667 220.666666667 156 162 156 128 c 0
 156 100.766655402 158.712856077 88.4653579421 170 80 c 1
 422 553 l 1
 420 553 420 553 417 553 c 0
EndSplineSet
EndChar

StartChar: oslash.dup
Encoding: 1114133 -1 21
Width: 525
Flags: W
HStem: -10 69<250.56 336.719> 372 69<295.281 382.664>
VStem: 133 63<112.407 250.681> 437 63<180.319 318>
LayerCount: 2
Fore
SplineSet
540 571 m 0
 557.64888159 571 575 554.98367881 575 537 c 0
 575 531 571.666666667 523.333333333 565 514 c 2
 472 380 l 1
 490.666666667 353.333333333 500 319 500 277 c 0
 500 211 478.333333333 148 435 88 c 0
 387.666666667 22.6666666667 332 -10 268 -10 c 0
 248.666666667 -10 229.666666667 -5.66666666667 211 3 c 1
 184.003140128 -34.1206823239 154.548110142 -76.475476157 126 -118 c 0
 114.666666667 -132.666666667 103.666666667 -140 93 -140 c 0
 75.3511184099 -140 58 -123.98367881 58 -106 c 0
 58 -100 64 -88.3333333333 76 -71 c 2
 160 50 l 1
 142 80.6666666667 133 115.333333333 133 154 c 0
 133 220 154.333333333 283 197 343 c 0
 244.333333333 408.333333333 300 441 364 441 c 0
 378.666666667 441 398.333333333 436.666666667 423 428 c 0
 423.666666667 428 425.333333333 430.333333333 428 435 c 2
 510 553 l 2
 518 565 528 571 540 571 c 0
430 319 m 1
 250 61 l 1
 255.333333333 59.6666666667 262 59 270 59 c 0
 314.666666667 59 354.333333333 84.3333333333 389 135 c 0
 421 181 437 227.333333333 437 274 c 0
 437 291.333333333 434.666666667 306.333333333 430 319 c 1
362 372 m 0
 317.333333333 372 277.666666667 346.666666667 243 296 c 0
 211.666666667 250 196 203.666666667 196 157 c 0
 196 140.333333333 198.333333333 125.333333333 203 112 c 1
 383 370 l 1
 377 371.333333333 370 372 362 372 c 0
EndSplineSet
EndChar

StartChar: quoteleft.dup
Encoding: 1114134 -1 22
Width: 525
Flags: W
HStem: 476 1<348.219 348.667>
VStem: 281 124<388.699 472.182>
LayerCount: 2
Fore
SplineSet
454 681 m 0
 468.510352671 681 482 666.483658515 482 652 c 0
 482 632.305968192 470.945188647 625.302882582 456 617 c 0
 405.631526075 590.671024994 363.550378305 544.045499661 351 486 c 0
 349.666666667 479.333333333 348.666666667 476 348 476 c 1
 352.666666667 476.666666667 357.333333333 477 362 477 c 0
 390.666666667 477 405 463 405 435 c 0
 405 401.147048495 374.511611231 372 341 372 c 0
 301 372 281 397.333333333 281 448 c 0
 281 521.940099104 327.243654509 594.994656429 370 631 c 0
 409.333333333 664.333333333 437.333333333 681 454 681 c 0
EndSplineSet
EndChar

StartChar: quoteright.dup
Encoding: 1114135 -1 23
Width: 525
Flags: W
HStem: 506 1<383.333 383.781> 591 20G<374.244 411>
VStem: 327 124<509.702 594.301>
LayerCount: 2
Fore
SplineSet
327 548 m 0
 327 581.852951505 357.488388769 611 391 611 c 0
 431 611 451 585.666666667 451 535 c 0
 451 521 449.666666667 507.666666667 447 495 c 0
 435 437 406.666666667 389.333333333 362 352 c 0
 322.666666667 318.666666667 294.666666667 302 278 302 c 0
 259.048236524 302 253.863608657 313.613761045 250 331 c 0
 250 332 250 332 250 334 c 0
 250.666666667 335.333333333 251 336.666666667 251 338 c 0
 254.333333333 348.666666667 259.333333333 356 266 360 c 0
 266 360.666666667 269.333333333 362.666666667 276 366 c 0
 315.333333333 386.666666667 343 412 359 442 c 0
 370.333333333 464 377.666666667 482.333333333 381 497 c 0
 382.333333333 503.666666667 383.333333333 507 384 507 c 1
 379.333333333 506.333333333 374.666666667 506 370 506 c 0
 341.333333333 506 327 520 327 548 c 0
EndSplineSet
EndChar

StartChar: Rcedilla
Encoding: 1114136 -1 24
Width: 525
Flags: W
HStem: -231 52<154.798 219.799> -13 68<428.383 460.007> -2 68<32.3502 100 176 229.917> 270 69<233 358.45> 543 68<146.292 200 276 420.401>
VStem: 194 114<-124.757 -42.1545> 352 76<55.1206 207.858> 374 78<96.2357 253.962> 453 77<398.662 510.278> 466 77<99 125.359>
LayerCount: 2
Fore
SplineSet
511 130 m 0xde40
 532.189752036 130 543 122.636497482 543 104 c 0
 543 102 543 102 543 99 c 0
 542.333333333 96.3333333333 542 94.3333333333 542 93 c 0
 533.333333333 56.3333333333 514.666666667 27.3333333333 486 6 c 0
 469.333333333 -6.66666666667 451 -13 431 -13 c 0
 382.352110377 -13 352 18.4537165368 352 72 c 0xde40
 352 88 356.666666667 118.333333333 366 163 c 0
 371.333333333 187.666666667 374 204.333333333 374 213 c 0
 374 254.831265018 331.625721981 270 292 270 c 2
 218 270 l 1
 176 66 l 1
 204 66 l 2
 222.08835095 66 233 58.8311624223 233 41 c 2
 233 36 l 2
 233 7.05799033405 211.336831953 -2 183 -2 c 2
 65 -2 l 2
 39.6666666667 -2 27 6.33333333333 27 23 c 0
 27 51.9172158675 48.6009898446 66 78 66 c 2
 100 66 l 1
 200 543 l 1
 181 543 l 2
 155 543 142 551 142 567 c 0
 142 599.39415274 160.5111821 611 193 611 c 2
 368 611 l 2
 458.763187624 611 530 558.565503457 530 471 c 0
 530 435.666666667 517 399.666666667 491 363 c 0
 473 338.333333333 448.666666667 318 418 302 c 1
 440.666666667 278 452 252 452 224 c 0xbd80
 452 212.090398465 428 92.6364261836 428 79 c 0
 428 63 433 55 443 55 c 0
 451.63135238 55 463.507265975 79.5508618235 466 97 c 0
 472 119 487 130 511 130 c 0xde40
194 -87 m 0
 194 -53.9271899923 222.980394927 -27 256 -27 c 0
 290.666666667 -27 308 -46 308 -84 c 0
 308 -116 295.333333333 -146 270 -174 c 0
 236 -212 205 -231 177 -231 c 0
 161.666666667 -231 154 -223 154 -207 c 0
 154 -193.666666667 163 -184.333333333 181 -179 c 0
 209.666666667 -170.333333333 230.666666667 -153 244 -127 c 1
 241.333333333 -127.666666667 238.666666667 -128 236 -128 c 0
 208 -128 194 -114.333333333 194 -87 c 0
453 458 m 0x9c80
 453 514.003724788 402.401960078 543 344 543 c 2
 276 543 l 1
 233 339 l 1
 299 339 l 2
 339.666666667 339 374 349.333333333 402 370 c 0
 436 396.666666667 453 426 453 458 c 0x9c80
EndSplineSet
EndChar

StartChar: rcedilla
Encoding: 1114137 -1 25
Width: 525
Flags: W
HStem: -231 52<72.608 136.144> -9 21G<192.078 210> 369 68<191.031 238.908 375.138 494.56>
VStem: 117 113<-121.271 -41.105> 166 71<-5.63555 94.7046> 481 98<279.346 348.529>
LayerCount: 2
Fore
SplineSet
579 333 m 0xec
 579 297.866290756 560.084560451 268 525 268 c 0
 499.822980662 268 481 285.797386775 481 311 c 0
 481 326.333333333 486 339 496 349 c 1
 482.666666667 362.333333333 461 369 431 369 c 0
 392.333333333 369 358 342.333333333 328 289 c 0
 302.666666667 243 276.666666667 167 250 61 c 0
 243.333333333 35 239 19.6666666667 237 15 c 0
 229.666666667 -1 218 -9 202 -9 c 0
 182.156313995 -9 166 8.18300815207 166 28 c 0
 166 30.6666666667 167.333333333 37.6666666667 170 49 c 2
 237 319 l 2
 239 329.666666667 240 337 240 341 c 0
 240 359.666666667 232 369 216 369 c 0
 208.666666667 369 202 364.666666667 196 356 c 0
 188 344 180 322.333333333 172 291 c 0
 165.893453267 264.131194376 161.651320551 253 131 253 c 0
 106.333333333 253 94 263.666666667 94 285 c 0
 94 287 95 292.666666667 97 302 c 0
 102.333333333 330 113.333333333 357.333333333 130 384 c 0
 151.333333333 419.333333333 180.333333333 437 217 437 c 0
 260.333333333 437 290.666666667 419 308 383 c 1
 343.333333333 419 385 437 433 437 c 0
 507.792451194 437 579 402.809322422 579 333 c 0xec
175 -27 m 0
 209.588509669 -27 230 -54.5947735506 230 -89 c 0
 230 -118.333333333 215.5 -149.333333333 186.5 -182 c 0
 157.5 -214.666666667 128.666666667 -231 100 -231 c 0
 85.4896473287 -231 72 -218.535946558 72 -204 c 0
 72 -190.666666667 79.3333333333 -182.333333333 94 -179 c 0
 123.333333333 -171 146 -154 162 -128 c 1
 136.849032995 -128 117 -110.202613225 117 -85 c 0xf4
 117 -54.645961324 144.647061594 -27 175 -27 c 0
EndSplineSet
EndChar

StartChar: tilde.dup
Encoding: 1114138 -1 26
Width: 525
Flags: W
HStem: 495 68<405.215 477.902> 547 68<284.098 355.8>
LayerCount: 2
Fore
SplineSet
227 495 m 0x80
 212.489647329 495 199 508.490197464 199 523 c 0
 199 537.666666667 219.666666667 557.666666667 261 583 c 0
 295 604.333333333 323.666666667 615 347 615 c 0x40
 375.719063285 615 393.837688287 600.224739295 407 582 c 0
 419.666666667 569.333333333 427.666666667 563 431 563 c 0x80
 444.333333333 563 469.333333333 576.666666667 506 604 c 0
 516 611.333333333 525.666666667 615 535 615 c 0x40
 553.666666667 615 563 605.666666667 563 587 c 0
 563 572.333333333 542.333333333 552.333333333 501 527 c 0
 467 505.666666667 438.333333333 495 415 495 c 256x80
 391.666666667 495 371 506.333333333 353 529 c 0
 348.723434967 536.697817059 340.134497892 547 331 547 c 0x40
 317.666666667 547 292.666666667 533.333333333 256 506 c 0
 246 498.666666667 236.333333333 495 227 495 c 0x80
EndSplineSet
EndChar

StartChar: A
Encoding: 65 65 27
Width: 525
Flags: W
HStem: 0 68<36.261 102 181 225.418 315.153 377 455 503.301> 163 68<259 379>
VStem: 379 76<68 163 231 351.417> 391 73<351.417 520>
LayerCount: 2
Fore
SplineSet
455 68 m 1xe0
 482.974450128 68 506 63.4113847218 506 37 c 0
 506 12.3333333333 490.333333333 0 459 0 c 2
 358 0 l 2
 328 0 313 10.6666666667 313 32 c 0
 313 49.3333333333 320 60.6666666667 334 66 c 0
 338 67.3333333333 352.333333333 68 377 68 c 1
 379 163 l 1xe0
 226 163 l 1
 181 68 l 1
 206.829454552 68 228 62.0288821019 228 37 c 0
 228 12.3333333333 212.333333333 0 181 0 c 2
 80 0 l 2
 48.6666666667 0 33.3333333333 10.6666666667 34 32 c 0
 34 48.6666666667 41 59.6666666667 55 65 c 0
 59 67 74.6666666667 68 102 68 c 1
 352 588 l 2
 366.74953324 618.482368696 379.427052842 623 416 623 c 0
 451.089698212 623 464 614.162676772 464 584 c 2xd0
 455 68 l 1xe0
391 520 m 1xd0
 259 231 l 1
 379 231 l 1xe0
 391 520 l 1xd0
EndSplineSet
EndChar

StartChar: a
Encoding: 97 97 28
Width: 525
Flags: W
HStem: -6 68<205.049 289.153 411.316 447.191> 369 68<275.971 362.727>
VStem: 116 75<73.0921 245.609>
LayerCount: 2
Fore
SplineSet
447 422 m 0
 466.843686005 422 483 405.84313587 483 386 c 0
 483 383.333333333 481.666666667 376.333333333 479 365 c 2
 415 109 l 2
 412.333333333 99 411 91.3333333333 411 86 c 0
 411 70 416.666666667 62 428 62 c 0
 440.666666667 62 452.333333333 85.3333333333 463 132 c 0
 468.315138564 156.803979963 474.938006787 177 505 177 c 0
 530.333333333 177 543 166.333333333 543 145 c 0
 543 139 539.666666667 125 533 103 c 0
 510.333333333 30.3333333333 475 -6 427 -6 c 0
 389.510340373 -6 358.369433397 18.261133206 346 43 c 1
 311.333333333 10.3333333333 274.666666667 -6 236 -6 c 0
 158.11436721 -6 116 66.3567674693 116 149 c 0
 116 212.333333333 135.666666667 274.333333333 175 335 c 0
 218.333333333 403 270 437 330 437 c 0
 360.666666667 437 387.666666667 425 411 401 c 1
 419 415 431 422 447 422 c 0
191 145 m 0
 191 109.59948052 202.648061171 62 237 62 c 0
 273.666666667 62 306.666666667 90.6666666667 336 148 c 0
 361.333333333 198 374 243.666666667 374 285 c 0
 374 341 358.666666667 369 328 369 c 0
 291.333333333 369 258.333333333 340 229 282 c 0
 203.666666667 232 191 186.333333333 191 145 c 0
EndSplineSet
EndChar

StartChar: ampersand
Encoding: 38 38 29
Width: 525
Flags: W
HStem: -11 68<193.117 406.986> 216 76<473.25 523.636> 267 69<216.235 254.718> 413 20G<254.667 285.922> 554 68<254.149 334.51> 591 20G<622.333 644.333>
VStem: 48 76<113.833 255.768> 323 98<479.115 546.561> 385 76<288.428 335.773> 538 76<192.873 363.278> 594 75<522.419 607.827>
LayerCount: 2
Fore
SplineSet
669 575 m 0xd6a0
 669 523.774227825 611.888684862 436.856946117 583 409 c 1
 603.666666667 379 614 341.333333333 614 296 c 0
 614 221.333333333 590 153.333333333 542 92 c 0
 488 23.3333333333 405 -11 293 -11 c 0
 229 -11 174 4 128 34 c 0
 74.6666666667 68 48 115.666666667 48 177 c 0
 48 242.839265358 90.0355037386 317.652988092 124 356 c 1
 119.333333333 367.333333333 117 383.333333333 117 404 c 0
 117 457.333333333 135.666666667 506.333333333 173 551 c 0
 212.333333333 598.333333333 258 622 310 622 c 0
 369.047083145 622 421 588.908472637 421 532 c 0
 421 491.333333333 403.333333333 471 368 471 c 0
 342.849032995 471 323 488.797386775 323 514 c 256
 323 526.666666667 327 537.666666667 335 547 c 1
 327.666666667 551.666666667 318.666666667 554 308 554 c 0
 278.666666667 554 252.333333333 537.333333333 229 504 c 0
 208.333333333 474 196.666666667 443.666666667 194 413 c 1
 219.333333333 426.333333333 243.333333333 433 266 433 c 0
 305.843686005 433 332 404.790847826 332 365 c 0
 332 315.463705738 290.405082665 267 241 267 c 0xbb40
 213.666666667 267 189 275.333333333 167 292 c 1
 138.333333333 250.666666667 124 212.333333333 124 177 c 0
 124 137 143.333333333 106 182 84 c 0
 214 66 251.333333333 57 294 57 c 0
 401.11965294 57 473.490688037 103.952272534 509 177 c 0
 528.333333333 216.333333333 538 255 538 293 c 0xd340
 538 320.333333333 532 344 520 364 c 1
 508 357.333333333 491.666666667 346.666666667 471 332 c 0
 464.333333333 325.333333333 461 317.333333333 461 308 c 0
 461 299.333333333 464.333333333 293.333333333 471 290 c 1
 473 288 l 1
 478.333333333 290.666666667 484 292 490 292 c 0
 509.817633672 292 527 275.84313587 527 256 c 0
 527 229.333333333 512.666666667 216 484 216 c 0
 431.161660985 216 385 254.980394927 385 308 c 0
 385 327.333333333 390.333333333 345 401 361 c 0
 413.666666667 380.333333333 437 400 471 420 c 0
 542.255114886 463.220315587 571.221474596 498.021086027 594 581 c 0
 600 601 612.666666667 611 632 611 c 0
 656.666666667 611 669 599 669 575 c 0xd6a0
216 344 m 1
 222.666666667 338.666666667 230.666666667 336 240 336 c 0
 248.067586531 336 254.412655238 354.269603808 256 363 c 1
 241.333333333 360.333333333 228 354 216 344 c 1
EndSplineSet
Substitution2: "LMMono10-Italic-'lnum' +A5MDwQOxA7wDvAO5A7oDrAAA +A8MDxwOuA7wDsQPEA7EA lookup 5 subtable" ampersand
Substitution2: "LMMono10-Italic-'onum' +A6gDtwPGA7kDrAAA +A8ADsQO7A7kDrAPC +A7wDvwPBA8YDrgPC lookup 4 subtable" ampersand
Substitution2: "LMMono10-Italic-'aalt' +A6ADwQPMA8MDsgOxA8MDtwAA +A8MDtQAA +A8wDuwOx +A8QDsQAA +A7UDvQOxA7sDuwOxA7oDxAO5A7oDrAAA lookup 0 subtable" ampersand
EndChar

StartChar: asciicircum
Encoding: 94 94 30
Width: 525
Flags: W
HStem: 486 59<272.188 352.279>
LayerCount: 2
Fore
SplineSet
600 489 m 2
 480 550 l 1
 308 489 l 2
 302 487 296.333333333 486 291 486 c 0
 280.333333333 486 273.666666667 491.333333333 271 502 c 0
 266.333333333 521.333333333 275.333333333 535.666666667 298 545 c 0
 348 564.333333333 413.666666667 590 495 622 c 0
 505.666666667 626 514.666666667 625.666666667 522 621 c 2
 651 547 l 1
 672.377006926 527.267378222 651.324279193 502.616482785 633.5 492.5 c 0
 621.166666667 485.5 610 484.333333333 600 489 c 2
EndSplineSet
EndChar

StartChar: asciitilde
Encoding: 126 126 31
Width: 525
Flags: W
HStem: 246 68<360.525 431.903> 298 68<244.906 318.48>
LayerCount: 2
Fore
SplineSet
488 366 m 0x40
 505.664554085 366 522 349.97595157 522 332 c 0
 522 327.333333333 520.666666667 322.666666667 518 318 c 0
 512 309.333333333 493.333333333 295.666666667 462 277 c 0
 428.666666667 256.333333333 400.666666667 246 378 246 c 0x80
 358.666666667 246 340.333333333 254.666666667 323 272 c 0
 305.666666667 289.333333333 296.333333333 298 295 298 c 0x40
 280.333333333 298 255.333333333 285 220 259 c 0
 208 250.333333333 198 246 190 246 c 0x80
 171.463594996 246 157 261.490197464 157 280 c 0
 157 290.666666667 163 299.666666667 175 307 c 0
 227 346.333333333 268.666666667 366 300 366 c 0x40
 325.333333333 366 348.666666667 352 370 324 c 0
 374.666666667 317.333333333 379 314 383 314 c 0x80
 395.666666667 314 422 327.666666667 462 355 c 0
 472.666666667 362.333333333 481.333333333 366 488 366 c 0x40
EndSplineSet
EndChar

StartChar: asterisk
Encoding: 42 42 32
Width: 525
Flags: W
HStem: 412 20G<199.539 215 524 536.667>
LayerCount: 2
Fore
SplineSet
166 387 m 0
 166 410.231395891 188.077623319 432 211 432 c 0
 219 432 227.333333333 428.666666667 236 422 c 2
 320 363 l 1
 346 477 l 2
 352.666666667 506.333333333 367.666666667 521 391 521 c 0
 411 521 421 511.666666667 421 493 c 0
 421 490.333333333 420 485.333333333 418 478 c 2
 387 364 l 1
 502 423 l 2
 512.666666667 429 521 432 527 432 c 0
 546.333333333 432 556 422 556 402 c 0
 556 384 544.666666667 369.666666667 522 359 c 2
 407 305 l 1
 492 251 l 2
 505.333333333 243 512 234 512 224 c 0
 512 201.619908991 489.379082428 179 467 179 c 0
 459 179 450.666666667 182.333333333 442 189 c 2
 358 248 l 1
 332 131 l 2
 326 103.666666667 310.666666667 90 286 90 c 0
 266.666666667 90 257 99.3333333333 257 118 c 0
 257 121.333333333 258.333333333 128 261 138 c 2
 291 247 l 1
 175 188 l 2
 164.333333333 182 156 179 150 179 c 0
 130.666666667 179 121 188.666666667 121 208 c 0
 121 226 132 240.333333333 154 251 c 2
 271 306 l 1
 184 361 l 2
 172 368.333333333 166 377 166 387 c 0
EndSplineSet
EndChar

StartChar: at
Encoding: 64 64 33
Width: 525
Flags: W
HStem: -6 68<240.629 395.211> 105 68<332.045 425.409> 438 68<396.054 487.663> 549 68<360.095 500.167>
VStem: 110 63<133.821 339.056> 258 62<182.882 339.506> 502 81<315.791 499.833>
LayerCount: 2
Fore
SplineSet
450 617 m 0
 542.444109574 617 583 548.559182924 583 458 c 0
 583 381.069205058 554.212897552 272.032379077 526.5 220 c 0
 499.266501861 168.867717779 438.613828292 105 370 105 c 0
 295.83575518 105 258 170.495626639 258 248 c 0
 258 306 275.666666667 362 311 416 c 0
 350.333333333 476 397.666666667 506 453 506 c 0
 477.666666667 506 499 499 517 485 c 1
 511 527.666666667 488 549 448 549 c 0
 343.774878257 549 257.500102642 458.052815253 215 382 c 0
 187 331.333333333 173 279.666666667 173 227 c 0
 173 134.194498212 224.322616206 62 314 62 c 0
 352.666666667 62 390.333333333 76 427 104 c 0
 436.333333333 110.666666667 447.666666667 114 461 114 c 0
 488.333333333 114 502 103.666666667 502 83 c 0
 502 65.6666666667 478.666666667 45.6666666667 432 23 c 0
 392 3.66666666667 352.333333333 -6 313 -6 c 0
 187.436295501 -6 110 94.9831672983 110 224 c 0
 110 317.333333333 142.666666667 405 208 487 c 0
 278 573.666666667 358.666666667 617 450 617 c 0
502 361 m 0
 502 397.062835029 487.65080468 438 451 438 c 0
 416.333333333 438 385 415 357 369 c 0
 332.333333333 327.666666667 320 288.333333333 320 251 c 0
 320 199 337 173 371 173 c 0
 406.333333333 173 437.666666667 196.333333333 465 243 c 0
 489.666666667 283.666666667 502 323 502 361 c 0
EndSplineSet
EndChar

StartChar: B
Encoding: 66 66 34
Width: 525
Flags: W
HStem: 0 68<32.3621 106 183 384.019> 283 68<254 432.376> 543 68<168.417 224 301 482.225>
VStem: 454 76<133.668 261.345> 503 77<412.768 523.593>
LayerCount: 2
Fore
SplineSet
580 488 m 0xe8
 580 405.118875557 511.435609847 344.476277312 445 320 c 1
 501.666666667 300.666666667 530 262 530 204 c 0xf0
 530 149.333333333 507 101.666666667 461 61 c 0
 415 20.3333333333 364.666666667 0 310 0 c 2
 73 0 l 2
 44.3333333333 0 30 10.6666666667 30 32 c 0
 30 56 45 68 75 68 c 2
 106 68 l 1
 224 543 l 1
 209 543 l 2
 180.333333333 543 166 553.333333333 166 574 c 0
 166 598.666666667 180.666666667 611 210 611 c 2
 440 611 l 2
 518.91700668 611 580 567.020684877 580 488 c 0xe8
503 475 m 0xe8
 503 519.877683599 468.618788011 543 421 543 c 2
 301 543 l 1
 254 351 l 1
 350 351 l 2
 387.333333333 351 421.333333333 362 452 384 c 0
 486 408.666666667 503 439 503 475 c 0xe8
454 200 m 0xf0
 454 253.588019959 424.669375983 283 369 283 c 2
 237 283 l 1
 183 68 l 1
 303 68 l 2
 381.031522734 68 454 124.940534039 454 200 c 0xf0
EndSplineSet
EndChar

StartChar: b
Encoding: 98 98 35
Width: 525
Flags: W
HStem: -6 68<229.289 330.869> 371 68<301.642 401.26> 543 68<131.472 224>
VStem: 129 180<547.469 607.387> 136 74<81.58 248.307> 422 75<181.771 351.323>
LayerCount: 2
Fore
SplineSet
363 439 m 0xf4
 448.010817152 439 497 365.067936602 497 277 c 0
 497 212.333333333 475.666666667 150.333333333 433 91 c 0
 386.333333333 26.3333333333 331.666666667 -6 269 -6 c 0
 185.068677641 -6 136 68.6666662349 136 156 c 0xec
 136 178 138.666666667 199.666666667 144 221 c 2
 224 543 l 1
 173 543 l 2
 143.666666667 543 129 553.333333333 129 574 c 0
 129 598.666666667 144 611 174 611 c 2
 265 611 l 2
 294.333333333 611 309 600.333333333 309 579 c 0
 309 575.666666667 308 570 306 562 c 2
 267 407 l 1
 299 428.333333333 331 439 363 439 c 0xf4
422 279 m 0
 422 324.384965889 402.977832437 371 362 371 c 0
 320.666666667 371 284 344 252 290 c 0
 224 242.666666667 210 197 210 153 c 0
 210 106.975568559 228.693187401 62 271 62 c 0
 312.333333333 62 348.666666667 88.6666666667 380 142 c 0
 408 189.333333333 422 235 422 279 c 0
EndSplineSet
EndChar

StartChar: backslash
Encoding: 92 92 36
Width: 525
Flags: W
LayerCount: 2
Fore
SplineSet
455 -44 m 1
 455 -65.1509670054 438.176469203 -83 417 -83 c 0
 397.666666667 -83 385 -69.6666666667 379 -43 c 2
 227 634 l 2
 224.333333333 645.333333333 223 652.333333333 223 655 c 0
 223 676.150967005 239.823530797 694 261 694 c 0
 280.333333333 694 293 680.333333333 299 653 c 2
 455 -44 l 1
EndSplineSet
EndChar

StartChar: bar
Encoding: 124 124 37
Width: 525
Flags: W
LayerCount: 2
Fore
SplineSet
425 694 m 0
 446.177019338 694 463 676.150325181 463 655 c 0
 463 651.666666667 461.666666667 644.666666667 459 634 c 2
 293 -44 l 2
 287 -70 274 -83 254 -83 c 0
 232.822980662 -83 216 -65.1503251813 216 -44 c 0
 216 -41.3333333333 217.333333333 -34.6666666667 220 -24 c 2
 387 658 l 2
 392.333333333 682 405 694 425 694 c 0
EndSplineSet
EndChar

StartChar: braceleft
Encoding: 123 123 38
Width: 525
Flags: W
HStem: -83 69<313.812 456.418> 271 69<135.25 271.321> 626 68<476.691 632.847>
VStem: 232 77<-2.25578 113.16> 282 75<140.12 256.468>
LayerCount: 2
Fore
SplineSet
232 19 m 0xf0
 232 26.520586705 273.142515461 190.665072151 282 232 c 1
 282 265.291926055 211.177610142 267.11184418 171 271 c 0
 145.666666667 275.666666667 133 286.333333333 133 303 c 0
 133 327 145 339.333333333 169 340 c 0
 263 340.666666667 315.666666667 364.333333333 327 411 c 2
 368 579 l 2
 387.333333333 655.666666667 461.333333333 694 590 694 c 0
 620 694 635 683.333333333 635 662 c 0
 635 638 621.333333333 626 594 626 c 0
 530 625.333333333 488 616 468 598 c 0
 454 586 445.333333333 573.333333333 442 560 c 2
 401 392 l 2
 391 351.333333333 365 321 323 301 c 1
 345.666666667 281.666666667 357 259 357 233 c 0xe8
 357 227 348.333333333 187.666666667 331 115 c 0
 326 95 326 95 319 67 c 0
 312.333333333 41.6666666667 309 26 309 20 c 0
 309 -11.3675259285 380.077189543 -11.4051459695 419 -14 c 0
 445.666666667 -18.6666666667 459 -29.3333333333 459 -46 c 0
 459 -70.6666666667 443.333333333 -83 412 -83 c 0
 383.333333333 -83 350 -78.6666666667 312 -70 c 0
 258.666666667 -58 232 -28.3333333333 232 19 c 0xf0
EndSplineSet
EndChar

StartChar: braceright
Encoding: 125 125 39
Width: 525
Flags: W
HStem: -83 68<44.582 198.519> 271 70<403.797 542.813> 625 69<221.527 361.989>
VStem: 321 75<354.773 469.602> 369 77<497.227 613.466>
LayerCount: 2
Fore
SplineSet
514 271 m 0xf0
 460 270.333333333 422.166666667 265 400.5 255 c 0
 378.833333333 245 364.333333333 232.333333333 357 217 c 0
 354.333333333 211.666666667 349 193 341 161 c 0
 335.735300339 140.693301307 308.093835551 30.2815066523 302 12 c 0
 279.333333333 -51.3333333333 208 -83 88 -83 c 0
 58 -83 43 -72.3333333333 43 -51 c 0
 43 -27 53.3333333333 -15 74 -15 c 0
 163.333333333 -13 215.333333333 3 230 33 c 0
 234 46.3333333333 241 72.3333333333 251 111 c 2
 277 218 l 2
 287.666666667 258.666666667 313.333333333 289 354 309 c 1
 332 325.666666667 321 348.666666667 321 378 c 0xf0
 321 386.666666667 324.666666667 405.666666667 332 435 c 2
 332 435 332 435 359 545 c 0
 365.666666667 571.666666667 369 586.666666667 369 590 c 0
 369 623.283555264 298.616604567 622.444090028 259 625 c 0
 232.333333333 629.666666667 219 640.333333333 219 657 c 0
 219 681.666666667 234.333333333 694 265 694 c 0
 293.666666667 694 326 690 362 682 c 0
 418 670 446 640 446 592 c 0xe8
 446 585.333333333 442 566 434 534 c 2
 406 423 l 2
 399.333333333 397 396 382.333333333 396 379 c 0
 396 346.469711681 465.704842609 343.686343826 506 341 c 0
 532 337 545 326 545 308 c 0
 545 284 534.666666667 271.666666667 514 271 c 0xf0
EndSplineSet
EndChar

StartChar: bracketleft
Encoding: 91 91 40
Width: 525
Flags: W
HStem: -83 68<294 472.528> 626 68<453 648.583>
LayerCount: 2
Fore
SplineSet
606 626 m 2
 453 626 l 1
 294 -15 l 1
 431 -15 l 2
 460.333333333 -15 475 -25.3333333333 475 -46 c 0
 475 -70.6666666667 460 -83 430 -83 c 2
 252 -83 l 2
 222.666666667 -83 208 -72.3333333333 208 -51 c 0
 208 -47.6666666667 209 -42 211 -34 c 2
 384 662 l 2
 390.446607893 687.786431572 397.956888425 694 429 694 c 2
 607 694 l 2
 636.333333333 694 651 683.333333333 651 662 c 0
 651 638 636 626 606 626 c 2
EndSplineSet
EndChar

StartChar: bracketright
Encoding: 93 93 41
Width: 525
Flags: W
HStem: -83 68<29.417 225> 626 68<205.472 383>
LayerCount: 2
Fore
SplineSet
470 662 m 0
 470 657.153301817 468.077779832 652.311119326 467 648 c 2
 294 -50 l 2
 288.074165353 -73.7033385894 278.459050697 -83 249 -83 c 2
 71 -83 l 2
 41.6666666667 -83 27 -72.3333333333 27 -51 c 0
 27 -27 42 -15 72 -15 c 2
 225 -15 l 1
 383 626 l 1
 247 626 l 2
 217.666666667 626 203 636.333333333 203 657 c 0
 203 681.666666667 218 694 248 694 c 2
 426 694 l 2
 455.333333333 694 470 683.333333333 470 662 c 0
EndSplineSet
EndChar

StartChar: C
Encoding: 67 67 42
Width: 525
Flags: W
HStem: -11 68<231.519 369.417> 554 68<349.953 491.385>
VStem: 104 76<116.469 332.697> 455 75<136.755 204.063> 519 115<441.625 600.667>
LayerCount: 2
Fore
SplineSet
180 214 m 0xe8
 180 131.301386818 217.337044694 57 294 57 c 0
 332 57 368.666666667 72.3333333333 404 103 c 0
 427.333333333 123 444.333333333 149.666666667 455 183 c 0
 459.666666667 198.333333333 472 206 492 206 c 0
 517.333333333 206 530 195.666666667 530 175 c 0xf0
 530 143 508.333333333 105 465 61 c 0
 417.666666667 13 358.666666667 -11 288 -11 c 0
 229.333333333 -11 183 12.3333333333 149 59 c 0
 119 101 104 152.333333333 104 213 c 0
 104 360.571018873 184.67037798 492.039972128 272.5 561.5 c 0
 323.5 601.833333333 375.666666667 622 429 622 c 0
 475 622 514.666666667 606.333333333 548 575 c 1
 552 581 558 589.666666667 566 601 c 0
 577.333333333 615 589 622 601 622 c 0
 623 622 634 611.333333333 634 590 c 0
 634 586.083443229 631.953181485 579.812725942 631 576 c 2
 594 428 l 2
 588.666666667 406.666666667 575.666666667 396 555 396 c 0
 529.666666667 396 517 406.666666667 517 428 c 0
 517 433.171589896 519 450.055540569 519 455 c 0
 519 512.822271552 489.788769866 554 432 554 c 0
 364 554 303.666666667 513.333333333 251 432 c 0
 203.666666667 358.666666667 180 286 180 214 c 0xe8
EndSplineSet
EndChar

StartChar: c
Encoding: 99 99 43
Width: 525
Flags: W
HStem: -6 68<240.843 432.749> 369 68<315.651 428.578>
VStem: 137 75<91.5263 251.312> 414 98<286.75 355.591>
LayerCount: 2
Fore
SplineSet
491 116 m 0
 509.406143341 116 529 95.3790824277 529 77 c 0
 529 50.3333333333 500 27.6666666667 442 9 c 0
 410.666666667 -1 367.666666667 -6 313 -6 c 0
 206.750170654 -6 137 57.5947735506 137 164 c 0
 137 232 162.5 294.5 213.5 351.5 c 0
 264.5 408.5 323.666666667 437 391 437 c 0
 454.615206241 437 512 400.432226752 512 340 c 0
 512 303.941519994 492.055248944 276 458 276 c 0
 428.666666667 276 414 290.333333333 414 319 c 0
 414 335 419 347.333333333 429 356 c 1
 420.333333333 364.666666667 407 369 389 369 c 0
 342.333333333 369 301.166666667 346.5 265.5 301.5 c 0
 229.833333333 256.5 212 210.333333333 212 163 c 0
 212 95.6666666667 244.333333333 62 309 62 c 0
 381.666666667 62 434.333333333 76.6666666667 467 106 c 0
 475.666666667 112.666666667 483.666666667 116 491 116 c 0
EndSplineSet
EndChar

StartChar: colon
Encoding: 58 58 44
Width: 525
Flags: W
HStem: 0 131<238.276 321.576> 300 131<311.217 394.577>
VStem: 215 130<23.9563 108.226> 288 130<323.956 407.723>
LayerCount: 2
Fore
SplineSet
418 374 m 0xd0
 418 335.750170654 383.274506341 300 345 300 c 0xe0
 313.234470993 300 288 325.235296196 288 357 c 0
 288 396.098545228 322.190770815 431 361 431 c 0
 394.150967005 431 418 407.150325181 418 374 c 0xd0
345 74 m 0
 345 35.7501706543 310.274506341 0 272 0 c 0
 238.849032995 0 215 23.8496748187 215 57 c 0
 215 95.2498293457 248.699349637 131 287 131 c 0
 318.739476674 131 345 105.764703804 345 74 c 0
EndSplineSet
EndChar

StartChar: comma
Encoding: 44 44 45
Width: 525
Flags: W
HStem: -139 66<155.637 225.464>
VStem: 212 143<7.50684 101.579>
LayerCount: 2
Fore
SplineSet
286 125 m 0
 330.403787259 125 355 90.4802876976 355 46 c 0
 355 7.33333333333 336.666666667 -32.6666666667 300 -74 c 0
 262.666666667 -117.333333333 225.333333333 -139 188 -139 c 0
 170.05738998 -139 153 -122.658660897 153 -105 c 0
 153 -89 162 -78.3333333333 180 -73 c 0
 220 -61 250.333333333 -38 271 -4 c 1
 268 -4 l 2
 237.056321039 -4 212 19.7063468693 212 51 c 0
 212 90.6352673442 246.366016304 125 286 125 c 0
EndSplineSet
EndChar

StartChar: D
Encoding: 68 68 46
Width: 525
Flags: W
HStem: 0 68<28.417 97 174 338.946> 543 68<164.417 215 292 450.687>
VStem: 497 78<269.432 489.519>
LayerCount: 2
Fore
SplineSet
215 543 m 1
 185.36658759 543 162 546.124277975 162 574 c 0
 162 598.666666667 176.666666667 611 206 611 c 2
 417 611 l 2
 475.666666667 611 517.666666667 587.333333333 543 540 c 0
 564.333333333 500.666666667 575 456 575 406 c 0
 575 260.913509296 501.429987143 131.683739107 418 61 c 0
 370 20.3333333333 319.666666667 0 267 0 c 2
 70 0 l 2
 40.6666666667 0 26 10.6666666667 26 32 c 0
 26 56 41 68 71 68 c 2
 97 68 l 1
 215 543 l 1
480 478 m 0
 465.333333333 521.333333333 433.333333333 543 384 543 c 2
 292 543 l 1
 174 68 l 1
 264 68 l 2
 359.372065155 68 433.326681688 163.26003574 466 241 c 0
 486.666666667 291 497 340.333333333 497 389 c 0
 497 416.333333333 491.333333333 446 480 478 c 0
EndSplineSet
EndChar

StartChar: d
Encoding: 100 100 47
Width: 525
Flags: W
HStem: -6 68<214.916 299.403 421.252 457.191> 371 68<285.922 372.656> 543 68<374.527 455>
VStem: 126 75<73.5814 246.609> 372 169<547.875 607.219>
LayerCount: 2
Fore
SplineSet
246 -6 m 0
 167.655380144 -6 126 67.3028574165 126 150 c 0
 126 213.333333333 145.333333333 275.333333333 184 336 c 0
 228 404.666666667 280 439 340 439 c 0
 370.666666667 439 397.333333333 427.333333333 420 404 c 1
 455 543 l 1
 417 543 l 2
 387 543 372 553.333333333 372 574 c 0
 372 598.666666667 387.333333333 611 418 611 c 2
 497 611 l 2
 526.333333333 611 541 600.333333333 541 579 c 0
 541 575.666666667 540 570 538 562 c 2
 425 110 l 2
 422.333333333 99.3333333333 421 91.6666666667 421 87 c 0
 421 70.3333333333 426.666666667 62 438 62 c 0
 450.666666667 62 462.333333333 85.6666666667 473 133 c 0
 478.275317272 157.618147269 485.777783541 178 515 178 c 0
 540.333333333 178 553 167.333333333 553 146 c 0
 553 140 549.666666667 126 543 104 c 0
 520.333333333 30.6666666667 485 -6 437 -6 c 0
 399.01665954 -6 368.278234137 18.3273286228 356 44 c 1
 321.333333333 10.6666666667 284.666666667 -6 246 -6 c 0
201 146 m 0
 201 110.829491429 212.35973843 62 247 62 c 0
 284.333333333 62 317.333333333 91 346 149 c 0
 371.333333333 199 384 244.666666667 384 286 c 0
 384 342.666666667 368.666666667 371 338 371 c 0
 301.333333333 371 268.333333333 341.666666667 239 283 c 0
 213.666666667 233 201 187.333333333 201 146 c 0
EndSplineSet
EndChar

StartChar: dollar
Encoding: 36 36 48
Width: 525
Flags: W
VStem: 441 74<129.454 244.797> 482 103<420.979 483.38>
LayerCount: 2
Fore
SplineSet
228 -5 m 1x80
 152.132507443 3.85120746497 94 45.7551014674 94 125 c 0
 94 161.666666667 102.333333333 187.666666667 119 203 c 0
 131.666666667 215 145.333333333 221 160 221 c 0
 185.608728804 221 202.864698813 198.458795253 196 171 c 0
 192 155 184 143.333333333 172 136 c 1
 174.666666667 95.3333333333 199 71.3333333333 245 64 c 1
 300 286 l 1
 234.213111838 299.769348685 179.783165747 333.084171266 168 392 c 0
 164 412 164.666666667 431.666666667 170 451 c 0
 181.333333333 495 208.333333333 532.666666667 251 564 c 0
 291 592.666666667 334.666666667 609.666666667 382 615 c 1
 390 650 l 2
 397.333333333 679.333333333 412.333333333 694 435 694 c 0
 450.333333333 694 459 688 461 676 c 0
 463 666 462 656.666666667 458 648 c 1
 450 616 l 1
 540 607.333333333 585 566.666666667 585 494 c 0
 585 481.333333333 583.333333333 468 580 454 c 0
 571.333333333 420 551.333333333 403 520 403 c 0
 494.666666667 403 482 415 482 439 c 0x40
 482 458.333333333 490 473.666666667 506 485 c 1
 503.333333333 519.666666667 479 540.333333333 433 547 c 1
 384 349 l 1
 434 337.666666667 469 317.666666667 489 289 c 0
 506.333333333 265.666666667 515 238.666666667 515 208 c 0
 515 156 489.333333333 106.666666667 438 60 c 0
 400.666666667 26 353.333333333 4.66666666667 296 -4 c 1
 288 -39 l 2
 280.666666667 -68.3333333333 266 -83 244 -83 c 0
 218.113599098 -83 209.381796121 -60.0061084056 220 -37 c 1
 228 -5 l 1x80
365 547 m 1
 312.119793244 536.681910877 252.971146527 500.554458717 241 454 c 0
 239.666666667 448 239 442.333333333 239 437 c 0
 239 398.333333333 265.666666667 373.666666667 319 363 c 1
 365 547 l 1
365 272 m 1
 314 65 l 1
 359.422547979 74.5070449259 420.80533591 114.762318668 433.5 152 c 0
 438.5 166.666666667 441 179.666666667 441 191 c 0x80
 441 232.333333333 415.666666667 259.333333333 365 272 c 1
EndSplineSet
Substitution2: "LMMono10-Italic-'onum' +A6gDtwPGA7kDrAAA +A8ADsQO7A7kDrAPC +A7wDvwPBA8YDrgPC lookup 4 subtable" dollar.oldstyle
Substitution2: "LMMono10-Italic-'aalt' +A6ADwQPMA8MDsgOxA8MDtwAA +A8MDtQAA +A8wDuwOx +A8QDsQAA +A7UDvQOxA7sDuwOxA7oDxAO5A7oDrAAA lookup 0 subtable" dollar.oldstyle
EndChar

StartChar: E
Encoding: 69 69 49
Width: 525
Flags: W
HStem: 0 68<35.417 112 189 443> 282 68<260 362> 450 161<540.482 599.885> 543 68<171.472 230 307 540>
VStem: 391 72<357.152 405>
LayerCount: 2
Fore
SplineSet
463 375 m 0xd8
 463 371.27046759 460 360.116913587 460 357 c 2
 435 259 l 2
 429.666666667 237 416.666666667 226 396 226 c 0
 370.666666667 226 358 236.666666667 358 258 c 0
 358 262.666666667 359.333333333 270.666666667 362 282 c 1
 242 282 l 1
 189 68 l 1
 443 68 l 1
 459 130 l 2
 464.333333333 149.333333333 469.166666667 162 473.5 168 c 0
 477.833333333 174 487.333333333 177 502 177 c 0
 527.333333333 177 540 166.333333333 540 145 c 0
 540 141.666666667 535.166666667 120.333333333 525.5 81 c 0
 515.833333333 41.6666666667 510 20.3333333333 508 17 c 0
 502 5.66666666667 488.666666667 0 468 0 c 2
 77 0 l 2
 47.6666666667 0 33 10.6666666667 33 32 c 0
 33 56 48 68 78 68 c 2
 112 68 l 1
 230 543 l 1
 213 543 l 2
 183.666666667 543 169 553.333333333 169 574 c 0
 169 598.666666667 184 611 214 611 c 2xd8
 583 611 l 2
 612.333333333 611 627 600.333333333 627 579 c 0
 627 577 626 572 624 564 c 2
 603 481 l 2
 598.333333333 460.333333333 585.666666667 450 565 450 c 0xe8
 539 450 526 460.666666667 526 482 c 1
 540 543 l 1
 307 543 l 1
 260 350 l 1
 380 350 l 1
 385.333333333 372 389 385.333333333 391 390 c 0
 397.666666667 401.333333333 409 407 425 407 c 0
 450.333333333 407 463 396.333333333 463 375 c 0xd8
EndSplineSet
EndChar

StartChar: e
Encoding: 101 101 50
Width: 525
Flags: W
HStem: -6 68<241.593 432.749> 186 67<234 398.065> 369 68<318.313 437.005>
VStem: 138 75<90.6914 185.486> 441 75<286.972 363.149>
LayerCount: 2
Fore
SplineSet
491 116 m 0
 509.406143341 116 529 95.3790824277 529 77 c 0
 529 50.3333333333 500 27.6666666667 442 9 c 0
 410.666666667 -1 367.666666667 -6 313 -6 c 0
 250.391927884 -6 217.354228738 9.11641802244 185 40 c 0
 153.666666667 70.6666666667 138 112.666666667 138 166 c 0
 138 234 163.166666667 296.166666667 213.5 352.5 c 0
 263.833333333 408.833333333 323 437 391 437 c 0
 458.644386092 437 516 395.728727214 516 331 c 0
 516 303.666666667 506.333333333 277.666666667 487 253 c 0
 451 208.333333333 375.666666667 186 261 186 c 2
 229 186 l 2
 210.364931499 186 213 184.070607851 213 164 c 0
 213 96 245 62 309 62 c 0
 381.666666667 62 434.333333333 76.6666666667 467 106 c 0
 475.666666667 112.666666667 483.666666667 116 491 116 c 0
389 369 m 0
 318.649020731 369 258.955277474 305.179216537 234 253 c 1
 258 253 l 2
 380 253 441 279 441 331 c 0
 441 356.333333333 423.666666667 369 389 369 c 0
EndSplineSet
EndChar

StartChar: eight
Encoding: 56 56 51
Width: 525
Flags: W
HStem: -11 68<199.418 363.532> 295 68<276.46 413.978> 554 68<314.596 477.094>
VStem: 83 78<93.661 217.919> 169 76<392.467 496.403> 453 77<134.075 258.379> 508 78<421.779 525.337>
LayerCount: 2
Fore
SplineSet
586 489 m 0xfa
 586 406.666689941 506.375987865 351.231865073 435 329 c 1
 498.333333333 303.666666667 530 262.666666667 530 206 c 0xfc
 530 146 499.333333333 94 438 50 c 0
 382 9.33333333333 323 -11 261 -11 c 0
 162.462570581 -11 83 45.0090579724 83 139 c 0
 83 237.302161411 171.443391585 302.874257235 254 330 c 1
 197.333333333 352.666666667 169 387.666666667 169 435 c 0
 169 487.666666667 198 533 256 571 c 0
 307.333333333 605 360.666666667 622 416 622 c 0
 505.899949969 622 586 573.449287859 586 489 c 0xfa
508 476 m 0xfa
 508 527.381433988 457.144616705 554 402 554 c 0
 366.666666667 554 333 544.333333333 301 525 c 0
 263.666666667 502.333333333 245 474.333333333 245 441 c 0
 245 390.334285583 297.865950895 363 353 363 c 0
 387.666666667 363 421 373 453 393 c 0xfc
 489.666666667 415.666666667 508 443.333333333 508 476 c 0xfa
453 201 m 0
 453 262.741512074 398.499428254 295 337 295 c 0
 295 295 256 282 220 256 c 0
 180.666666667 227.333333333 161 192.666666667 161 152 c 0
 161 91.0828948247 213.253073667 57 277 57 c 0
 318.333333333 57 357.333333333 70.3333333333 394 97 c 0
 433.333333333 126.333333333 453 161 453 201 c 0
EndSplineSet
Substitution2: "LMMono10-Italic-'onum' +A6gDtwPGA7kDrAAA +A8ADsQO7A7kDrAPC +A7wDvwPBA8YDrgPC lookup 4 subtable" eight.taboldstyle
Substitution2: "LMMono10-Italic-'aalt' +A6ADwQPMA8MDsgOxA8MDtwAA +A8MDtQAA +A8wDuwOx +A8QDsQAA +A7UDvQOxA7sDuwOxA7oDxAO5A7oDrAAA lookup 0 subtable" eight.taboldstyle
EndChar

StartChar: equal
Encoding: 61 61 52
Width: 525
Flags: W
HStem: 195 75<99.375 542.543> 342 75<135.457 578.625>
LayerCount: 2
Fore
SplineSet
535 342 m 2
 181 342 l 2
 148.333333333 342 132 354.333333333 132 379 c 0
 132 404.333333333 150.333333333 417 187 417 c 2
 528 417 l 2
 564 417 582 404.333333333 582 379 c 0
 582 354.333333333 566.333333333 342 535 342 c 2
491 195 m 2
 150 195 l 2
 114 195 96 207.666666667 96 233 c 0
 96 257.666666667 111.666666667 270 143 270 c 2
 497 270 l 2
 529.666666667 270 546 257.666666667 546 233 c 0
 546 207.666666667 527.666666667 195 491 195 c 2
EndSplineSet
EndChar

StartChar: exclam
Encoding: 33 33 53
Width: 525
Flags: W
HStem: 0 107<238.568 316.488> 602 20G<393.891 422.229>
VStem: 225 105<13.6134 93.1709> 351 106<537.685 607.631>
LayerCount: 2
Fore
SplineSet
409 622 m 0
 435.458248006 622 457 601.483658515 457 575 c 0
 457 570.333333333 455.666666667 563 453 553 c 2
 360 212 l 2
 353.052166174 186.193760073 344.327946076 182 317 182 c 0
 288.333333333 182 274 192.666666667 274 214 c 0
 274.666666667 217.333333333 276 223.666666667 278 233 c 2
 351 570 l 2
 357.280693113 597.635049699 378.782665242 622 409 622 c 0
330 58 m 0
 330 27.1099505579 303.204921539 0 272 0 c 0
 245.515699661 0 225 21.5424855071 225 48 c 0
 225 79.7134243418 251.261440217 107 283 107 c 0
 314.333333333 107 330 90.6666666667 330 58 c 0
EndSplineSet
EndChar

StartChar: F
Encoding: 70 70 54
Width: 525
Flags: W
HStem: 0 68<37.417 117 194 274.473> 271 69<262 370> 450 161<550.482 609.885> 543 68<173.472 235 312 550>
VStem: 365 67<217 270.379>
LayerCount: 2
Fore
SplineSet
634 564 m 2xe8
 613 481 l 2
 608.333333333 460.333333333 595.666666667 450 575 450 c 0xe8
 549 450 536 460.666666667 536 482 c 1
 550 543 l 1
 312 543 l 1
 262 340 l 1
 387 340 l 1
 392.333333333 362 396.333333333 375 399 379 c 0
 405 390.333333333 416.333333333 396 433 396 c 0
 457.666666667 396 470 385.333333333 470 364 c 0
 470 362 466.833333333 347.5 460.5 320.5 c 0
 454.166666667 293.5 444.666666667 262 432 226 c 0
 427.333333333 218.666666667 417.666666667 215 403 215 c 0
 377.666666667 215 365 225.666666667 365 247 c 0
 365 249.666666667 366.666666667 257.666666667 370 271 c 1
 245 271 l 1
 194 68 l 1
 232 68 l 2
 262 68 277 57.6666666667 277 37 c 0
 277 12.3333333333 261.666666667 0 231 0 c 2
 79 0 l 2
 49.6666666667 0 35 10.6666666667 35 32 c 0
 35 56 50 68 80 68 c 2
 117 68 l 1
 235 543 l 1
 215 543 l 2
 185.666666667 543 171 553.333333333 171 574 c 0
 171 598.666666667 186 611 216 611 c 2xd8
 593 611 l 2
 622.333333333 611 637 600.333333333 637 579 c 0
 637 577 636 572 634 564 c 2xe8
EndSplineSet
EndChar

StartChar: f
Encoding: 102 102 55
Width: 525
Flags: W
HStem: -228 68<139.669 189.462> 364 69<209.417 302 391 504.528> 549 68<410.837 475.541>
VStem: 45 98<-157.718 -104.698> 477 94<493.128 547.958>
LayerCount: 2
Fore
SplineSet
571 541 m 0
 571 509.286575658 549.869279891 482 518 482 c 0
 492.849032995 482 473 500.823530797 473 526 c 0
 473 529.28329089 477 545.257539537 477 548 c 0
 477 548.666666667 468.333333333 549 451 549 c 0
 417.174608826 549 412.323964785 538.295859141 405 509 c 0
 402.333333333 497 397.666666667 471.666666667 391 433 c 1
 463 433 l 2
 492.333333333 433 507 422.333333333 507 401 c 0
 507 376.333333333 492 364 462 364 c 2
 379 364 l 1
 318 13 l 2
 308.666666667 -37.6666666667 297.333333333 -81.6666666667 284 -119 c 0
 265.523725681 -172.119288668 219.828618625 -228 156 -228 c 0
 98.8540512119 -228 45 -203.660214869 45 -152 c 0
 45 -121.672013657 67.5163414854 -93 98 -93 c 0
 128 -93 143 -107.666666667 143 -137 c 0
 143 -145 141.666666667 -152 139 -158 c 1
 145 -159.333333333 151 -160 157 -160 c 0
 193 -160 223 -91 247 47 c 2
 302 364 l 1
 250 364 l 2
 221.333333333 364 207 374.666666667 207 396 c 0
 207 420.666666667 221.666666667 433 251 433 c 2
 314 433 l 1
 318.666666667 455.666666667 321 469 321 473 c 2
 321 473 321 473 326 499 c 0
 328 511.666666667 334 532 344 560 c 1
 361.860903051 595.721806103 398.220662399 617 453 617 c 0
 531.666666667 617 571 591.666666667 571 541 c 0
EndSplineSet
EndChar

StartChar: five
Encoding: 53 53 56
Width: 525
Flags: W
HStem: -11 68<182.252 343.772> 324 68<269.678 427.995> 543 68<299 581.583>
VStem: 85 99<110.502 184.339> 451 76<155.143 301.16>
LayerCount: 2
Fore
SplineSet
140 195 m 0
 165.177019338 195 184 177.202613225 184 152 c 0
 184 134.666666667 176.666666667 120.666666667 162 110 c 1
 172.666666667 74.6666666667 203.666666667 57 255 57 c 0
 303.666666667 57 348.5 74.5 389.5 109.5 c 0
 430.5 144.5 451 186 451 234 c 0
 451 294 422.333333333 324 365 324 c 0
 311 324 264.333333333 306.666666667 225 272 c 0
 215.666666667 264 205.666666667 260 195 260 c 0
 171.666666667 260 160 270.333333333 160 291 c 0
 160 293.666666667 161.333333333 300.666666667 164 312 c 2
 230 578 l 2
 235.795108848 601.180435391 244.427685642 611 275 611 c 2
 540 611 l 2
 569.333333333 611 584 600.333333333 584 579 c 0
 584 555 569 543 539 543 c 2
 299 543 l 1
 256 370 l 1
 290.666666667 384.666666667 327.666666667 392 367 392 c 0
 460.671771372 392 527 326.362715856 527 233 c 0
 527 165 498 106.666666667 440 58 c 0
 385.333333333 12 323.333333333 -11 254 -11 c 0
 166.156718041 -11 85 37.9140884983 85 121 c 0
 85 170.333333333 103.333333333 195 140 195 c 0
EndSplineSet
Substitution2: "LMMono10-Italic-'onum' +A6gDtwPGA7kDrAAA +A8ADsQO7A7kDrAPC +A7wDvwPBA8YDrgPC lookup 4 subtable" five.taboldstyle
Substitution2: "LMMono10-Italic-'aalt' +A6ADwQPMA8MDsgOxA8MDtwAA +A8MDtQAA +A8wDuwOx +A8QDsQAA +A7UDvQOxA7sDuwOxA7oDxAO5A7oDrAAA lookup 0 subtable" five.taboldstyle
EndChar

StartChar: four
Encoding: 52 52 57
Width: 525
Flags: W
HStem: -32 69<397.235 479.78> -2 21G<48.1716 60> 16 68<181 274.359> 602 20G<426.667 446.909>
VStem: 366 66<141.942 221.228>
LayerCount: 2
Fore
SplineSet
514 18 m 0x98
 514 -19.3874010074 440.361003243 -32 404 -32 c 0x98
 395.333333333 -32 387.333333333 -31.3333333333 380 -30 c 1
 342 -185 l 2
 336 -209.666666667 322.333333333 -222 301 -222 c 0
 281.156313995 -222 265 -204.816991848 265 -185 c 0
 265 -182.333333333 266.333333333 -175.666666667 269 -165 c 2
 306 -15 l 1
 242 5.66666666667 193.333333333 16 160 16 c 0x38
 144 16 124.333333333 13 101 7 c 0
 77.6666666667 1 63 -2 57 -2 c 0x58
 39.3432780036 -2 23 15.0608697918 23 33 c 0
 23 43 27.6666666667 52.6666666667 37 62 c 1
 81 88.6666666667 122.333333333 121 161 159 c 0
 266.422806355 261.128343657 350.453310471 415.569111047 398 591 c 0
 403.333333333 611.666666667 416.333333333 622 437 622 c 0
 456.817633672 622 474 604.816991848 474 585 c 0
 474 558.333333333 454.666666667 500.666666667 416 412 c 0
 362.666666667 289.333333333 284.333333333 180 181 84 c 1x38
 207.666666667 83.3333333333 236.666666667 78.3333333333 268 69 c 0
 270 68.3333333333 271.666666667 67.6666666667 273 67 c 2
 323 52 l 1
 333.737208408 94.9488336325 351.440085412 181.792153742 366 208 c 0
 371.333333333 218 381.333333333 223 396 223 c 0
 420 223 432 211 432 187 c 0
 432 183.699161809 419.695688926 126.365342348 414 107 c 1
 397 36 l 1
 397 36.6666666667 400.333333333 37 407 37 c 0
 425.666666667 37 443.333333333 40.3333333333 460 47 c 0
 468.666666667 50.3333333333 475.333333333 52 480 52 c 0
 497.124914673 52 514 35.1241811595 514 18 c 0x98
EndSplineSet
Substitution2: "LMMono10-Italic-'onum' +A6gDtwPGA7kDrAAA +A8ADsQO7A7kDrAPC +A7wDvwPBA8YDrgPC lookup 4 subtable" four.taboldstyle
Substitution2: "LMMono10-Italic-'aalt' +A6ADwQPMA8MDsgOxA8MDtwAA +A8MDtQAA +A8wDuwOx +A8QDsQAA +A7UDvQOxA7sDuwOxA7oDxAO5A7oDrAAA lookup 0 subtable" four.taboldstyle
EndChar

StartChar: G
Encoding: 71 71 58
Width: 525
Flags: W
HStem: -11 68<219.08 333.854> 206 68<354.362 423 504 555.965> 554 68<342.734 462.545>
VStem: 101 76<106.162 332.196>
LayerCount: 2
Fore
SplineSet
558 243 m 0
 558 208.898207564 538.409616432 206 504 206 c 1
 460 31 l 2
 455.333333333 10.3333333333 442.666666667 0 422 0 c 0
 397.333333333 0 384.666666667 10.3333333333 384 31 c 1
 348 3 309 -11 267 -11 c 0
 212.333333333 -11 170 12.3333333333 140 59 c 0
 114 99.6666666667 101 148.666666667 101 206 c 0
 101 353.00840942 176.815847276 487.424526777 261 559.5 c 0
 309.666666667 601.166666667 359 622 409 622 c 0
 453 622 488.666666667 607.666666667 516 579 c 1
 535.333333333 607.666666667 552 622 566 622 c 0
 588 622 599 611.333333333 599 590 c 0
 599 586.083443229 596.953181485 579.812725942 596 576 c 2
 560 428 l 2
 554 406.666666667 540.666666667 396 520 396 c 0
 494.666666667 396 482 407 482 429 c 0
 484 443 485 453.333333333 485 460 c 0
 485 478.666666667 481 497.333333333 473 516 c 0
 462.333333333 541.333333333 441.666666667 554 411 554 c 0
 323.195871858 554 246.65220907 445.011673891 214 371 c 0
 189.333333333 315.666666667 177 260.333333333 177 205 c 0
 177 131.967282669 206.218441976 57 272 57 c 256
 345.172621035 57 398.416277023 142.305808649 423 206 c 1
 395 206 l 2
 366.333333333 206 352 216.666666667 352 238 c 0
 352 262 367 274 397 274 c 2
 514 274 l 2
 543.333333333 274 558 263.666666667 558 243 c 0
EndSplineSet
EndChar

StartChar: g
Encoding: 103 103 59
Width: 525
Flags: W
HStem: -228 68<164.25 288.46> -3 68<232.361 330.53> 369 68<302.513 403.387>
VStem: 68 97<-159.719 -114.59> 136 76<83.9986 252.26> 423 109<256.333 395.922>
LayerCount: 2
Fore
SplineSet
496 422 m 0xec
 515.843686005 422 532 405.84313587 532 386 c 0
 532 382.666666667 530.666666667 375.666666667 528 365 c 2
 419 -77 l 2
 411 -107.666666667 391.333333333 -139 360 -171 c 0
 323.333333333 -209 270.333333333 -228 201 -228 c 0
 175 -228 148.333333333 -225.333333333 121 -220 c 0
 85.6666666667 -212.666666667 68 -193 68 -161 c 0
 68 -129.783008902 90.0059895471 -104 121 -104 c 0
 146.177019338 -104 165 -122.823530797 165 -148 c 0xf4
 165 -152 164.666666667 -155.333333333 164 -158 c 1
 174.666666667 -159.333333333 187.666666667 -160 203 -160 c 0
 251.666666667 -160 287.333333333 -146.666666667 310 -120 c 0
 328.666666667 -98.6666666667 339 -83 341 -73 c 2
 366 29 l 1
 334.666666667 7.66666666667 303 -3 271 -3 c 0
 185.583222926 -3 136 69.4326418736 136 158 c 0
 136 222.666666667 157.333333333 284 200 342 c 0
 246.666666667 405.333333333 301.333333333 437 364 437 c 0
 401.333333333 437 432.666666667 423 458 395 c 1
 464.666666667 413 477.333333333 422 496 422 c 0xec
423 278 m 0
 423 324.024431441 404.306812599 369 362 369 c 0
 321.333333333 369 285.333333333 343 254 291 c 0
 226 244.333333333 212 199.333333333 212 156 c 0xec
 212 110.579170576 230.164826677 65 271 65 c 0
 311.666666667 65 348 91.3333333333 380 144 c 0
 408.666666667 190 423 234.666666667 423 278 c 0
EndSplineSet
EndChar

StartChar: grave
Encoding: 96 96 60
Width: 525
Flags: W
HStem: 488 134
VStem: 300 204<547.25 561.781>
LayerCount: 2
Fore
SplineSet
504 542 m 0
 504 521.516678764 476.351998212 488 449 488 c 0
 445.666666667 488 440.333333333 489.666666667 433 493 c 2
 317 549 l 2
 305.666666667 554.333333333 300 562 300 572 c 0
 300 577.333333333 301.333333333 583 304 589 c 0
 315.333333333 611 332.333333333 622 355 622 c 0
 360.333333333 622 366.333333333 620.333333333 373 617 c 2
 487 560 l 2
 498.333333333 554.666666667 504 548.666666667 504 542 c 0
EndSplineSet
EndChar

StartChar: greater
Encoding: 62 62 61
Width: 525
Flags: W
LayerCount: 2
Fore
SplineSet
184 518 m 0
 184 539.177019338 201.849674819 556 223 556 c 0
 232.333333333 556 241.666666667 552.333333333 251 545 c 2
 526 340 l 2
 538.666666667 330 545 318.666666667 545 306 c 0
 545 290 536.333333333 277.333333333 519 268 c 2
 143 64 l 2
 132.333333333 58.6666666667 123.666666667 56 117 56 c 0
 91.6666666667 56 79 68.6666666667 79 94 c 0
 79 110 88 122.666666667 106 132 c 2
 436 311 l 1
 205 483 l 2
 191 493.666666667 184 505.333333333 184 518 c 0
EndSplineSet
EndChar

StartChar: H
Encoding: 72 72 62
Width: 525
Flags: W
HStem: 0 68<31.3621 102 179 232.528 309.417 379 458 511.473> 283 68<250 434> 543 68<166.527 220 298 368.583 445.472 498 576 646.638>
LayerCount: 2
Fore
SplineSet
498 543 m 1
 467.354978066 543 443 545.510059065 443 574 c 0
 443 598.666666667 458 611 488 611 c 2
 606 611 l 2
 634.666666667 611 649 600.333333333 649 579 c 0
 649 555 634 543 604 543 c 2
 576 543 l 1
 458 68 l 1
 469 68 l 2
 499 68 514 57.6666666667 514 37 c 0
 514 12.3333333333 498.666666667 0 468 0 c 2
 351 0 l 2
 321.666666667 0 307 10.6666666667 307 32 c 0
 307 56 322 68 352 68 c 2
 379 68 l 1
 434 283 l 1
 233 283 l 1
 179 68 l 1
 191 68 l 2
 220.333333333 68 235 57.6666666667 235 37 c 0
 235 12.3333333333 220 0 190 0 c 2
 72 0 l 2
 43.3333333333 0 29 10.6666666667 29 32 c 0
 29 56 43.6666666667 68 73 68 c 2
 102 68 l 1
 220 543 l 1
 209 543 l 2
 179 543 164 553.333333333 164 574 c 0
 164 598.666666667 179.333333333 611 210 611 c 2
 327 611 l 2
 356.333333333 611 371 600.333333333 371 579 c 0
 371 555 355.666666667 543 325 543 c 2
 298 543 l 1
 250 351 l 1
 450 351 l 1
 498 543 l 1
EndSplineSet
EndChar

StartChar: h
Encoding: 104 104 63
Width: 525
Flags: W
HStem: -6 68<407.7 447.201> 371 68<300.221 395.118> 543 68<133.472 215>
VStem: 131 169<547.469 607.387> 331 76<62.4788 148.686> 398 75<231.023 368.144> 475 78<92.6104 175.16>
LayerCount: 2
Fore
SplineSet
362 439 m 0xf6
 431.150967005 439 473 398.176469203 473 329 c 0xf6
 473 291 454.666666667 221.333333333 418 120 c 0
 410.666666667 98.6666666667 407 85 407 79 c 0
 407 67.6666666667 410 62 416 62 c 0
 444.514821148 62 467.175943028 113.939216963 475 143 c 0
 481.547103406 165.914861921 486.967152597 178 515 178 c 0
 540.333333333 178 553 167.333333333 553 146 c 0
 553 128.666666667 542.333333333 101 521 63 c 0
 494.333333333 17 458.333333333 -6 413 -6 c 0
 363.367445145 -6 331 31.1646941343 331 81 c 0xfa
 331 93.6666666667 334.666666667 110.333333333 342 131 c 0
 379.333333333 233 398 299.333333333 398 330 c 0
 398 357.333333333 385.666666667 371 361 371 c 0
 325.666666667 371 296 353.666666667 272 319 c 0
 215.589149792 239.199285072 195.734062159 153.615579008 168 44 c 0
 160.635811461 20.6800696278 161.745317481 14.2180599827 148 2 c 0
 142 -3.33333333333 134 -6 124 -6 c 256
 103.631973557 -6 88 10.3334566135 88 31 c 0
 88 33.6666666667 89.3333333333 40.3333333333 92 51 c 2
 215 543 l 1
 175 543 l 2
 145.666666667 543 131 553.333333333 131 574 c 0
 131 598.666666667 146 611 176 611 c 2
 256 611 l 2
 285.333333333 611 300 600.333333333 300 579 c 0
 300 575.666666667 299 570 297 562 c 2
 259 407 l 1
 288.333333333 428.333333333 322.666666667 439 362 439 c 0xf6
EndSplineSet
EndChar

StartChar: hyphen
Encoding: 45 45 64
Width: 525
Flags: W
HStem: 271 70<135.345 542.655>
LayerCount: 2
Fore
SplineSet
496 271 m 2
 182 271 l 2
 149.333333333 271 133 282.666666667 133 306 c 256
 133 329.333333333 149.333333333 341 182 341 c 2
 496 341 l 2
 528.666666667 341 545 329.333333333 545 306 c 256
 545 282.666666667 528.666666667 271 496 271 c 2
EndSplineSet
EndChar

StartChar: I
Encoding: 73 73 65
Width: 525
Flags: W
HStem: 0 68<88.417 241 318 453.528> 543 68<224.417 360 437 589.583>
LayerCount: 2
Fore
SplineSet
547 543 m 2
 437 543 l 1
 318 68 l 1
 413 68 l 2
 441.666666667 68 456 57.6666666667 456 37 c 0
 456 12.3333333333 441 0 411 0 c 2
 130 0 l 2
 100.666666667 0 86 10.6666666667 86 32 c 0
 86 56 101 68 131 68 c 2
 241 68 l 1
 360 543 l 1
 265 543 l 2
 236.333333333 543 222 553.333333333 222 574 c 0
 222 598.666666667 236.666666667 611 266 611 c 2
 548 611 l 2
 577.333333333 611 592 600.333333333 592 579 c 0
 592 555 577 543 547 543 c 2
EndSplineSet
EndChar

StartChar: i
Encoding: 105 105 66
Width: 525
Flags: W
HStem: -6 68<307.774 376.777> 371 68<253.234 325.096> 504 96<362.026 436.677>
VStem: 143 75<258.732 331.096> 232 75<62.5969 145.585> 326 75<287.083 370.325> 351 96<513.902 589> 414 76<103.799 175.616>
LayerCount: 2
Fore
SplineSet
447 556 m 0xfa
 447 528.260523326 423.764703804 504 396 504 c 0
 370.318851658 504 351 522.990063894 351 549 c 256
 351 575.380091009 376.647061594 600 403 600 c 0
 432.333333333 600 447 585.333333333 447 556 c 0xfa
302 439 m 0
 356.223777013 439 401 402.431370471 401 348 c 0
 401 336 395 315 383 285 c 2
 360 225 l 1
 324.666666667 137 307 90.3333333333 307 85 c 0
 307 69.6666666667 315.666666667 62 333 62 c 0
 372.396951743 62 403.822567348 112.813572794 414 149 c 0
 419.531126992 167.805831772 428.940578728 178 452 178 c 0
 477.333333333 178 490 167.333333333 490 146 c 0
 490 110.666666667 472.333333333 76.5 437 43.5 c 0
 401.666666667 10.5 366.333333333 -6 331 -6 c 0
 275.94180819 -6 232 30.0653636376 232 85 c 0
 232 98.3333333333 234.666666667 112 240 126 c 2
 321 329 l 2
 324.333333333 337 326 343.333333333 326 348 c 0xfd
 326 363.333333333 317.333333333 371 300 371 c 0
 264 371 236.666666667 341.666666667 218 283 c 0
 212 265 199.333333333 256 180 256 c 0
 155.333333333 256 143 266.333333333 143 287 c 0
 143 322.333333333 160.666666667 356.5 196 389.5 c 0
 231.333333333 422.5 266.666666667 439 302 439 c 0
EndSplineSet
EndChar

StartChar: J
Encoding: 74 74 67
Width: 525
Flags: W
HStem: -11 68<180.62 319.566> 543 68<359.417 468 546 622.583>
VStem: 94 99<73.4392 143>
LayerCount: 2
Fore
SplineSet
244 -11 m 0
 167.000773307 -11 94 19.2082843197 94 88 c 0
 94 130.666666667 112 152 148 152 c 0
 178 152 193 137.333333333 193 108 c 0
 193 94 188.333333333 82.3333333333 179 73 c 1
 194.333333333 62.3333333333 216.333333333 57 245 57 c 0
 304.06992596 57 356.559344887 94.4814450603 369 143 c 2
 468 543 l 1
 400 543 l 2
 371.333333333 543 357 553.333333333 357 574 c 0
 357 598.666666667 371.666666667 611 401 611 c 2
 581 611 l 2
 610.333333333 611 625 600.333333333 625 579 c 0
 625 555 610 543 580 543 c 2
 546 543 l 1
 443 124 l 2
 433 83.3333333333 407.333333333 50.3333333333 366 25 c 0
 328.666666667 1 288 -11 244 -11 c 0
EndSplineSet
EndChar

StartChar: j
Encoding: 106 106 68
Width: 525
Flags: W
HStem: -228 68<186.387 253.738> 370 69<323.121 407.155> 504 96<455.619 530.343>
VStem: 91 97<-160 -114.59> 196 76<256.299 316.521> 408 76<293.609 368.723> 445 96<514.657 589.382>
LayerCount: 2
Fore
SplineSet
541 555 m 0xfa
 541 528.619908991 516.379082428 504 490 504 c 256
 463.99314128 504 445 522.299247349 445 548 c 0
 445 575.739476674 469.261440217 600 497 600 c 0
 526.333333333 600 541 585 541 555 c 0xfa
378 439 m 0
 436.747352985 439 484 399.258724647 484 340 c 0
 484 330.666666667 482.666666667 320.666666667 480 310 c 2
 392 -49 l 2
 370.379142073 -136.684590481 296.514117596 -228 196 -228 c 0
 126 -228 91 -205.666666667 91 -161 c 0
 91 -129.783008902 113.005989547 -104 144 -104 c 0
 169.177019338 -104 188 -122.823530797 188 -148 c 0
 188 -150.244221304 186 -157.757938582 186 -160 c 1
 186 -160 186 -160 199 -160 c 0
 257.304982469 -160 303.101488162 -91.7666393372 316 -39 c 2
 405 321 l 2
 407 331 408 337.333333333 408 340 c 0xfc
 408 360 397.333333333 370 376 370 c 256
 329.007379337 370 288.678704283 318.805063042 272 281 c 0
 265.297136077 262.567124212 257.1448158 254 233 254 c 0
 208.333333333 254 196 264.666666667 196 286 c 0
 196 321.333333333 217.666666667 356 261 390 c 0
 302.333333333 422.666666667 341.333333333 439 378 439 c 0
EndSplineSet
EndChar

StartChar: K
Encoding: 75 75 69
Width: 525
Flags: W
HStem: 0 68<35.417 104 168 218.308 344.446 388 460 503.473> 543 68<171.749 222 287 355.528 565 629.583>
VStem: 33 188<3.61328 64.4844> 169 189<546.605 607.387> 342 164<3.78125 64.4102> 455 177<546.516 607.219>
LayerCount: 2
Fore
SplineSet
222 543 m 1xe8
 192.36658759 543 169 546.124277975 169 574 c 0
 169 598.666666667 184 611 214 611 c 2
 313 611 l 2
 343 611 358 600.333333333 358 579 c 0
 358 555 342.666666667 543 312 543 c 2
 287 543 l 1
 226 298 l 1
 484 543 l 1
 464.666666667 545.666666667 455 556 455 574 c 0
 455 598.666666667 470.333333333 611 501 611 c 2
 588 611 l 2
 617.333333333 611 632 600.333333333 632 579 c 0xd4
 632 555 617 543 587 543 c 2
 565 543 l 1
 370 356 l 1
 460 68 l 1
 485.36350852 68 506 61.7547950006 506 37 c 0
 506 12.3333333333 490.666666667 0 460 0 c 2
 386 0 l 2
 356.666666667 0 342 10.6666666667 342 32 c 0
 342 57.4752950288 359.51540775 68 388 68 c 1
 314 304 l 1
 200 194 l 1
 168 68 l 1
 198.213358089 68 221 65.2592130352 221 37 c 0
 221 12.3333333333 206 0 176 0 c 2
 77 0 l 2
 47.6666666667 0 33 10.6666666667 33 32 c 0
 33 56 48 68 78 68 c 2
 104 68 l 1
 222 543 l 1xe8
EndSplineSet
EndChar

StartChar: k
Encoding: 107 107 70
Width: 525
Flags: W
HStem: -6 68<395.232 451.522> 270 169<465.503 522.953> 543 68<130.527 224>
VStem: 318 76<62.6999 167.512> 475 78<86.4844 174.816>
LayerCount: 2
Fore
SplineSet
399 134 m 0
 399 125.858709507 394 99.5994981543 394 92 c 0
 394 72 402.666666667 62 420 62 c 0
 442.666666667 62 461 89 475 143 c 0
 481.966841938 163.900525814 488.035966108 178 515 178 c 0
 540.333333333 178 553 167.333333333 553 146 c 0
 553 131.333333333 543.333333333 104.666666667 524 66 c 0
 500 18 465 -6 419 -6 c 0
 362.057451655 -6 318 36.0065389491 318 93 c 0
 318 100.329829803 323 125.943437073 323 133 c 0
 323 163 286 180.333333333 212 185 c 1
 174 31 l 2
 167.333333333 6.33333333333 153.666666667 -6 133 -6 c 0
 112.631973557 -6 97 10.3334566135 97 31 c 0
 97 33.6666666667 98.3333333333 40.3333333333 101 51 c 2
 224 543 l 1
 173 543 l 2
 143 543 128 553.333333333 128 574 c 0
 128 598.666666667 143.333333333 611 174 611 c 2
 265 611 l 2
 294.333333333 611 309 600.333333333 309 579 c 0
 309 575.666666667 308 570 306 562 c 2
 234 273 l 1
 252.666666667 285 279.333333333 310 314 348 c 0
 369.333333333 408.666666667 421.333333333 439 470 439 c 0
 516.666666667 439 540 411.666666667 540 357 c 0
 540 299 521 270 483 270 c 0
 457.822980662 270 439 288.823530797 439 314 c 0
 439 331.333333333 447 345.666666667 463 357 c 0
 464.333333333 359 465 363.666666667 465 371 c 1
 436.333333333 367 406.333333333 348.666666667 375 316 c 2
 339 278 l 2
 331 269.333333333 318.666666667 257 302 241 c 1
 366.666666667 221 399 185.333333333 399 134 c 0
EndSplineSet
EndChar

StartChar: L
Encoding: 76 76 71
Width: 525
Flags: W
HStem: 0 68<41.3621 123 200 428> 543 68<176.472 242 319 419.583>
LayerCount: 2
Fore
SplineSet
525 145 m 0
 525 137.288495384 496.134371617 21.7015574256 493 17 c 0
 487 5.66666666667 473.666666667 0 453 0 c 2
 82 0 l 2
 53.3333333333 0 39 10.6666666667 39 32 c 0
 39 56 53.6666666667 68 83 68 c 2
 123 68 l 1
 242 543 l 1
 218 543 l 2
 188.666666667 543 174 553.333333333 174 574 c 0
 174 598.666666667 189 611 219 611 c 2
 378 611 l 2
 407.333333333 611 422 600.333333333 422 579 c 0
 422 555 407 543 377 543 c 2
 319 543 l 1
 200 68 l 1
 428 68 l 1
 444 130 l 2
 449.333333333 149.333333333 454.166666667 162 458.5 168 c 0
 462.833333333 174 472.333333333 177 487 177 c 0
 512.333333333 177 525 166.333333333 525 145 c 0
EndSplineSet
EndChar

StartChar: l
Encoding: 108 108 72
Width: 525
Flags: W
HStem: -6 68<294.927 375.59> 543 68<198.472 323>
VStem: 216 75<69.1636 140.33> 404 75<92.9529 175.444>
LayerCount: 2
Fore
SplineSet
291 95 m 0
 291 76.0508560834 314.364049128 62 341 62 c 0
 367 62 388 91 404 149 c 0
 409.333333333 168.333333333 421.666666667 178 441 178 c 0
 466.333333333 178 479 167.333333333 479 146 c 0
 479 130 468.666666667 103 448 65 c 0
 422.666666667 17.6666666667 386.666666667 -6 340 -6 c 0
 274.37358327 -6 216 31.5414084717 216 94 c 0
 216 103.333333333 217.333333333 113.333333333 220 124 c 2
 323 543 l 1
 240 543 l 2
 210.666666667 543 196 553.333333333 196 574 c 0
 196 598.666666667 211 611 241 611 c 2
 365 611 l 2
 394.333333333 611 409 600.333333333 409 579 c 0
 409 575.666666667 408 570 406 562 c 2
 295 113 l 2
 292.333333333 103 291 97 291 95 c 0
EndSplineSet
EndChar

StartChar: less
Encoding: 60 60 73
Width: 525
Flags: W
LayerCount: 2
Fore
SplineSet
494 94 m 0
 494 72.822980662 476.150325181 56 455 56 c 0
 445.666666667 56 436.333333333 59.6666666667 427 67 c 2
 152 272 l 2
 139.333333333 282 133 293.333333333 133 306 c 0
 133 322 141.666666667 334.666666667 159 344 c 2
 535 548 l 2
 545.666666667 553.333333333 554.333333333 556 561 556 c 0
 586.333333333 556 599 543.333333333 599 518 c 0
 599 502 590 489.333333333 572 480 c 2
 242 301 l 1
 473 129 l 2
 487 118.333333333 494 106.666666667 494 94 c 0
EndSplineSet
EndChar

StartChar: M
Encoding: 77 77 74
Width: 525
Flags: W
HStem: 0 68<26.3621 85 150 190.404 351.362 409 474 515.368> 543 68<161.527 204 593 651.583>
VStem: 24 169<3.61328 64.4844> 159 153<547.247 607.375> 259 76<291.25 505.642> 349 169<3.61328 64.4844>
LayerCount: 2
Fore
SplineSet
150 68 m 1xcc
 173.868636269 68 193 58.7356541352 193 37 c 0
 193 12.3333333333 178 0 148 0 c 2
 67 0 l 2
 38.3333333333 0 24 10.6666666667 24 32 c 0xec
 24 56 39 68 69 68 c 2
 85 68 l 1
 204 543 l 1
 174 544.333333333 159 554.666666667 159 574 c 0
 159 598.666666667 174.333333333 611 205 611 c 2
 280 611 l 1
 298.666666667 607.666666667 309.333333333 598.333333333 312 583 c 0xd4
 315.463503962 568.632556002 321.187711901 501.965889335 330 383 c 0
 332.666666667 343 334.333333333 312.333333333 335 291 c 1
 347.666666667 316.333333333 368.666666667 354 398 404 c 2
 500 579 l 2
 512.666666667 600.333333333 533.333333333 611 562 611 c 2
 610 611 l 2
 639.333333333 611 654 600.333333333 654 579 c 0
 654 555 639 543 609 543 c 2
 593 543 l 1
 474 68 l 1
 498.634480861 68 518 59.1387552309 518 37 c 0
 518 12.3333333333 503 0 473 0 c 2
 392 0 l 2
 363.333333333 0 349 10.6666666667 349 32 c 0
 349 56 364 68 394 68 c 2
 409 68 l 1
 517 502 l 1
 505.666666667 480 494 458.333333333 482 437 c 2
 363 234 l 2
 354.36297509 217.959810881 336.115866431 203.815448857 315 201 c 0
 299.666666667 201 290 206 286 216 c 0
 282.666666667 223.333333333 279.666666667 241 277 269 c 2
 269 358 l 2
 263.666666667 420 260.333333333 469.333333333 259 506 c 1
 150 68 l 1xcc
EndSplineSet
EndChar

StartChar: m
Encoding: 109 109 75
Width: 525
Flags: W
HStem: -6 27G<76.3333 97.3333 265.333 286.333 487.885 520.333> 369 68<250.491 316.171 439.562 505.176>
VStem: 51 73<-4.04688 93.321> 240 73<-4.04688 93.321> 443 64<63.4951 166.454> 507 64<237.064 368.664>
LayerCount: 2
Fore
SplineSet
485 437 m 0xf4
 539.881742959 437 571 395.158758027 571 338 c 0xf4
 571 304 557.333333333 248.333333333 530 171 c 0
 514.666666667 127 507 97.6666666667 507 83 c 0
 507 73.6666666667 509.333333333 68.6666666667 514 68 c 0
 533.333333333 65.3333333333 543 54.6666666667 543 36 c 0
 543 12 531.666666667 0 509 0 c 0
 466.769525316 0 443 32.1849048353 443 78 c 0xf8
 443 101.333333333 449.333333333 130.666666667 462 166 c 0
 492 250.666666667 507 306.666666667 507 334 c 0
 507 357.333333333 499.333333333 369 484 369 c 0
 457.333333333 369 433.333333333 349 412 309 c 0
 367.485102324 225.057621525 350.19578646 157.78314584 325 57 c 0
 318.333333333 31 314.333333333 16.6666666667 313 14 c 0
 306.333333333 0.666666666667 294.666666667 -6 278 -6 c 0
 252.666666667 -6 240 4.33333333333 240 25 c 0
 240 38.3333333333 257 101.333333333 291 214 c 0
 309 272 318 312 318 334 c 0
 318 357.333333333 310.333333333 369 295 369 c 0
 268.333333333 369 244.333333333 349 223 309 c 0
 178.485102324 225.057621525 161.19578646 157.78314584 136 57 c 0
 129.333333333 31 125.333333333 16.6666666667 124 14 c 0
 117.333333333 0.666666666667 105.666666667 -6 89 -6 c 0
 63.6666666667 -6 51 4.33333333333 51 25 c 0
 51 29.6666666667 57 54.3333333333 69 99 c 0
 79 129.666666667 92.6666666667 176.333333333 110 239 c 1
 150 398 l 2
 155.333333333 420 166.333333333 431 183 431 c 0
 196.470582216 431 209.653816331 420.384734677 213 407 c 1
 239 427 266.666666667 437 296 437 c 0
 336 437 362.666666667 418.666666667 376 382 c 1
 408.666666667 418.666666667 445 437 485 437 c 0xf4
EndSplineSet
EndChar

StartChar: N
Encoding: 78 78 76
Width: 525
Flags: W
HStem: 0 68<37.3621 108 172 225.528> 543 68<172.527 226 452.472 505 570 640.638>
LayerCount: 2
Fore
SplineSet
505 543 m 1
 474.354978066 543 450 545.510059065 450 574 c 0
 450 598.666666667 465 611 495 611 c 2
 600 611 l 2
 628.666666667 611 643 600.333333333 643 579 c 0
 643 555 628 543 598 543 c 2
 570 543 l 1
 444 34 l 2
 436.16349837 4.6131188884 427.832899722 0 398 0 c 2
 388 0 l 2
 350.417315436 0 343.415793364 10.965756409 340 40 c 2
 283 512 l 1
 172 68 l 1
 184 68 l 2
 213.333333333 68 228 57.6666666667 228 37 c 0
 228 12.3333333333 213 0 183 0 c 2
 78 0 l 2
 49.3333333333 0 35 10.6666666667 35 32 c 0
 35 56 49.6666666667 68 79 68 c 2
 108 68 l 1
 226 543 l 1
 215 543 l 2
 185 543 170 553.333333333 170 574 c 0
 170 598.666666667 185.333333333 611 216 611 c 2
 255 611 l 2
 290.333333333 611 312.333333333 609.166666667 321 605.5 c 0
 329.666666667 601.833333333 335.333333333 590.333333333 338 571 c 2
 395 99 l 1
 505 543 l 1
EndSplineSet
EndChar

StartChar: n
Encoding: 110 110 77
Width: 525
Flags: W
HStem: -6 68<418.417 451.827> 368 69<173.946 199.764 329.34 408.193>
VStem: 124 72<-2.44334 95.8052> 344 74<62.0919 143.168> 410 76<234.556 367.783> 475 78<86.1475 173.836>
LayerCount: 2
Fore
SplineSet
385 437 m 0xe8
 448.869738337 437 486 394.738559783 486 331 c 0xe8
 486 295.666666667 469 229 435 131 c 0
 423.666666667 99.6666666667 418 80.6666666667 418 74 c 0
 418 66 419.666666667 62 423 62 c 0
 443 62 460.333333333 88.6666666667 475 142 c 0
 481.465887822 163.014135423 488.017262488 177 515 177 c 0
 540.333333333 177 553 166.333333333 553 145 c 0
 553 109.666666667 534.333333333 71.3333333333 497 30 c 0
 475 6 449.666666667 -6 421 -6 c 0
 374.515699661 -6 344 30.6732056157 344 77 c 0xf4
 344 93 347.666666667 111.333333333 355 132 c 0
 391.666666667 237.333333333 410 304 410 332 c 0
 410 356.666666667 401 369 383 369 c 0
 339 369 299.333333333 327 264 243 c 0
 247.333333333 203.666666667 229 143.666666667 209 63 c 0
 202.333333333 37.6666666667 198 22.6666666667 196 18 c 0
 188.666666667 2 177 -6 161 -6 c 0
 141.182366328 -6 124 10.1568641303 124 30 c 0
 124 33.3333333333 125.333333333 40.3333333333 128 51 c 2
 197 325 l 2
 199 332.333333333 200 340 200 348 c 0
 200 361.333333333 197 368 191 368 c 0
 180.333333333 368 170 344.333333333 160 297 c 0
 154 268.333333333 139.666666667 254 117 254 c 0
 92.3333333333 254 80 264.666666667 80 286 c 0
 80 292 83 306 89 328 c 0
 110.333333333 400.666666667 144.333333333 437 191 437 c 0
 228.333333333 437 253.666666667 420 267 386 c 1
 303 420 342.333333333 437 385 437 c 0xe8
EndSplineSet
EndChar

StartChar: nine
Encoding: 57 57 78
Width: 525
Flags: W
HStem: -11 68<176.569 304.705> 212 69<255.592 406.507> 554 68<329.023 466.798>
VStem: 91 98<67.4392 135.719> 150 76<310.416 453.352> 493 75<362.502 527.416>
LayerCount: 2
Fore
SplineSet
413 622 m 0xec
 517.813752239 622 568 544.786675887 568 436 c 0
 568 380.666666667 556 319.333333333 532 252 c 0
 497.333333333 152.666666667 437.666666667 77.6666666667 353 27 c 0
 311 1.66666666667 267.666666667 -11 223 -11 c 0
 154.963697423 -11 91 10.6768588904 91 79 c 0
 91 123 109 145 145 145 c 0
 174.333333333 145 189 130.666666667 189 102 c 0xf4
 189 88 184.666666667 76.3333333333 176 67 c 1
 187.333333333 60.3333333333 203.333333333 57 224 57 c 0
 329.268558281 57 421.197784025 170.367719529 455 256 c 1
 411 226.666666667 363.666666667 212 313 212 c 0
 253.666666667 212 210.666666667 232 184 272 c 0
 161.333333333 304.666666667 150 337.333333333 150 370 c 0
 150 438 176.666666667 497 230 547 c 0
 283.333333333 597 344.333333333 622 413 622 c 0xec
226 371 m 0xec
 226 317.478133981 261.944254178 281 319 281 c 0
 365.666666667 281 406.333333333 296.166666667 441 326.5 c 0
 475.666666667 356.833333333 493 395 493 441 c 0
 493 516.333333333 466 554 412 554 c 0
 364 554 321 535.5 283 498.5 c 0
 245 461.5 226 419 226 371 c 0xec
EndSplineSet
Substitution2: "LMMono10-Italic-'onum' +A6gDtwPGA7kDrAAA +A8ADsQO7A7kDrAPC +A7wDvwPBA8YDrgPC lookup 4 subtable" nine.taboldstyle
Substitution2: "LMMono10-Italic-'aalt' +A6ADwQPMA8MDsgOxA8MDtwAA +A8MDtQAA +A8wDuwOx +A8QDsQAA +A7UDvQOxA7sDuwOxA7oDxAO5A7oDrAAA lookup 0 subtable" nine.taboldstyle
EndChar

StartChar: numbersign
Encoding: 35 35 79
Width: 525
Flags: W
HStem: 0 21G<139.333 160.667 311.333 332.667> 161 77<88.4573 157 269 329 441 536.543> 374 77<141.457 238 350 410 522 589.543> 591 20G<345 364.589 517.333 536.589>
VStem: 114 76<3.78125 32> 286 76<3.78125 32> 316 76<580 607.285> 488 76<580 607.285>
LayerCount: 2
Fore
SplineSet
526 611 m 0xfb
 547.177019338 611 564 594.176469203 564 573 c 0
 564 568.333333333 562 560.333333333 558 549 c 2
 522 451 l 1
 544 451 l 2
 576.666666667 451 593 438.333333333 593 413 c 0
 593 387 576.333333333 374 543 374 c 2
 492 374 l 1
 441 238 l 1
 490 238 l 2
 523.333333333 238 540 225 540 199 c 0
 540 173.666666667 523.666666667 161 491 161 c 2
 412 161 l 1
 362 32 l 2
 354 10.6666666667 341.333333333 0 324 0 c 0
 298.666666667 0 286 12.6666666667 286 38 c 0xfd
 286 45.3333333333 300.333333333 86.3333333333 329 161 c 1
 239 161 l 1
 190 32 l 2
 182 10.6666666667 169.333333333 0 152 0 c 0
 126.666666667 0 114 12.6666666667 114 38 c 0
 114 45.3333333333 128.333333333 86.3333333333 157 161 c 1
 134 161 l 2
 101.333333333 161 85 173.666666667 85 199 c 0
 85 225 101.666666667 238 135 238 c 2
 187 238 l 1
 238 374 l 1
 188 374 l 2
 154.666666667 374 138 387 138 413 c 0
 138 438.333333333 154.333333333 451 187 451 c 2
 267 451 l 1
 316 580 l 2
 323.333333333 600.666666667 336 611 354 611 c 0
 375.177019338 611 392 594.176469203 392 573 c 0
 392 568.333333333 390 560.333333333 386 549 c 2
 350 451 l 1
 440 451 l 1
 488 580 l 2
 496 600.666666667 508.666666667 611 526 611 c 0xfb
320 374 m 1
 269 238 l 1
 359 238 l 1
 410 374 l 1
 320 374 l 1
EndSplineSet
EndChar

StartChar: O
Encoding: 79 79 80
Width: 525
Flags: W
HStem: -11 68<187.646 375.763> 554 68<298.629 492.921>
VStem: 92 82<71.6815 233.055> 505 81<375.805 541.41>
LayerCount: 2
Fore
SplineSet
487 110 m 0
 465 57.3333333333 436 23 400 7 c 0
 372.666666667 -5 326.333333333 -11 261 -11 c 0
 204.333333333 -11 166.333333333 -7.33333333333 147 0 c 0
 110.333333333 13.3333333333 92 42.6666666667 92 88 c 0
 92 128 103.666666667 196 127 292 c 0
 148.333333333 382 168.333333333 449 187 493 c 0
 209 546.333333333 234.5 581.166666667 263.5 597.5 c 0
 292.5 613.833333333 343.666666667 622 417 622 c 0
 473 622 511 618.333333333 531 611 c 0
 567.666666667 597.666666667 586 568.333333333 586 523 c 0
 586 482.333333333 574 413 550 315 c 0
 526.666666667 222.333333333 505.666666667 154 487 110 c 0
174 121 m 0
 174 64.759358651 212.324229942 57 276 57 c 0
 328 57 365 67 387 87 c 0
 405.666666667 104.333333333 423 139.333333333 439 192 c 0
 447 216.666666667 459.666666667 264 477 334 c 0
 495.666666667 408 505 460.333333333 505 491 c 0
 505 519.666666667 494.333333333 538.333333333 473 547 c 0
 461 551.666666667 437 554 401 554 c 0
 350.333333333 554 314.666666667 545.666666667 294 529 c 0
 276 514.333333333 258.666666667 481.666666667 242 431 c 0
 220.272175977 364.828899565 174 192.569040458 174 121 c 0
EndSplineSet
EndChar

StartChar: o
Encoding: 111 111 81
Width: 525
Flags: W
HStem: -6 68<226.083 333.891> 369 68<297.135 406.61>
VStem: 127 75<85.9796 250.532> 431 74<182.377 345.311>
LayerCount: 2
Fore
SplineSet
363 437 m 0
 451.222595456 437 505 363.702599072 505 273 c 0
 505 207 482.666666667 145 438 87 c 0
 390 25 333.666666667 -6 269 -6 c 0
 181.868663229 -6 127 69.1554984028 127 158 c 0
 127 224 149.666666667 286 195 344 c 0
 243 406 299 437 363 437 c 0
431 275 m 0
 431 323.602754639 407.865388411 369 362 369 c 0
 318.666666667 369 280.333333333 343.666666667 247 293 c 0
 217 247 202 201.333333333 202 156 c 0
 202 106.688221231 225.134611589 62 271 62 c 0
 313.666666667 62 351.666666667 87.6666666667 385 139 c 0
 415.666666667 185 431 230.333333333 431 275 c 0
EndSplineSet
EndChar

StartChar: one
Encoding: 49 49 82
Width: 525
Flags: W
HStem: 0 68<121.362 255 332 448.583> 430 68.5<221.978 318.237> 599 20G<420.333 437.333>
LayerCount: 2
Fore
SplineSet
457 570 m 2
 332 68 l 1
 408 68 l 2
 436.666666667 68 451 57.6666666667 451 37 c 0
 451 12.3333333333 436.333333333 0 407 0 c 2
 162 0 l 2
 133.333333333 0 119 10.6666666667 119 32 c 0
 119 56 134 68 164 68 c 2
 255 68 l 1
 352 463 l 1
 319.333333333 441 287.333333333 430 256 430 c 0
 232 430 220 440.666666667 220 462 c 0
 220 484.666666667 230 496.833333333 250 498.5 c 0
 296.864118087 502.405343174 299.941803593 506.842087241 333 531 c 0
 355 547.666666667 375.333333333 570 394 598 c 0
 404 612 414.666666667 619 426 619 c 0
 448.666666667 619 460 608.333333333 460 587 c 0
 460 583.666666667 459 578 457 570 c 2
EndSplineSet
Substitution2: "LMMono10-Italic-'onum' +A6gDtwPGA7kDrAAA +A8ADsQO7A7kDrAPC +A7wDvwPBA8YDrgPC lookup 4 subtable" one.taboldstyle
Substitution2: "LMMono10-Italic-'aalt' +A6ADwQPMA8MDsgOxA8MDtwAA +A8MDtQAA +A8wDuwOx +A8QDsQAA +A7UDvQOxA7sDuwOxA7oDxAO5A7oDrAAA lookup 0 subtable" one.taboldstyle
EndChar

StartChar: P
Encoding: 80 80 83
Width: 525
Flags: W
HStem: 0 68<35.417 112 189 247.528> 242 68<250 434.232> 543 68<171.417 230 307 480.983>
VStem: 515 79<383.82 511.818>
LayerCount: 2
Fore
SplineSet
442 611 m 2
 528.932656854 611 594 556.882207733 594 470 c 0
 594 408.666666667 569 355.333333333 519 310 c 0
 469 264.666666667 413 242 351 242 c 2
 232 242 l 1
 189 68 l 1
 207 68 l 2
 235.666666667 68 250 57.6666666667 250 37 c 0
 250 12.3333333333 235 0 205 0 c 2
 77 0 l 2
 47.6666666667 0 33 10.6666666667 33 32 c 0
 33 56 48 68 78 68 c 2
 112 68 l 1
 230 543 l 1
 212 543 l 2
 183.333333333 543 169 553.333333333 169 574 c 0
 169 598.666666667 183.666666667 611 213 611 c 2
 442 611 l 2
515 452 m 0
 515 510.929352658 470.148608371 543 409 543 c 2
 307 543 l 1
 250 310 l 1
 348 310 l 2
 389.333333333 310 427 323 461 349 c 0
 497 377.666666667 515 412 515 452 c 0
EndSplineSet
EndChar

StartChar: p
Encoding: 112 112 84
Width: 525
Flags: W
HStem: -222 68<13.417 89 167 246.528> -9 69<262.25 344.914> 369 68<175.619 210.494 332.125 418.609>
VStem: 79 79<256.445 355.138> 431 76<184.258 359.268>
LayerCount: 2
Fore
SplineSet
387 437 m 0
 464.88563279 437 507 364.643232531 507 282 c 0
 507 218.666666667 487.666666667 156.333333333 449 95 c 0
 405 25.6666666667 352.666666667 -9 292 -9 c 0
 259.984698823 -9 226.763775263 9.02362664014 211 26 c 1
 167 -154 l 1
 206 -154 l 2
 234.666666667 -154 249 -164.333333333 249 -185 c 0
 249 -209.666666667 234 -222 204 -222 c 2
 55 -222 l 2
 25.6666666667 -222 11 -211.333333333 11 -190 c 0
 11 -166 26 -154 56 -154 c 2
 89 -154 l 1
 208 325 l 2
 210 333 211 339 211 343 c 0
 211 360.333333333 205.333333333 369 194 369 c 0
 183.333333333 369 171.333333333 344.666666667 158 296 c 0
 151.607742826 268.83290701 147.82805264 253 116 253 c 0
 91.3333333333 253 79 263.666666667 79 285 c 0
 79 309.666666667 90 342 112 382 c 0
 132 418.666666667 159.666666667 437 195 437 c 0
 232.333333333 437 259.333333333 420.333333333 276 387 c 1
 314 420.333333333 351 437 387 437 c 0
385 369 m 0
 347.666666667 369 314.333333333 339.666666667 285 281 c 0
 259.666666667 230.333333333 247 184.666666667 247 144 c 0
 247 116.666666667 253 94.3333333333 265 77 c 0
 272.333333333 65.6666666667 281.666666667 60 293 60 c 0
 330.333333333 60 363.666666667 89 393 147 c 0
 418.333333333 197 431 242.666666667 431 284 c 0
 431 340.666666667 415.666666667 369 385 369 c 0
EndSplineSet
EndChar

StartChar: parenleft
Encoding: 40 40 85
Width: 525
Flags: W
VStem: 237 75<82.8064 331.441>
LayerCount: 2
Fore
SplineSet
605 662 m 0
 605 644.20979571 594.232240689 638.520150431 579 629 c 0
 476.000261913 569.234719875 381.388875478 465.888851339 340 350 c 0
 321.333333333 299.333333333 312 249.333333333 312 200 c 0
 312 105.333333333 346.333333333 30.6666666667 415 -24 c 0
 424.333333333 -32 429 -40.6666666667 429 -50 c 0
 429 -71.3333333333 417.666666667 -82 395 -82 c 0
 359.151181564 -82 302.669253815 -9.41633026242 286 20 c 0
 253.333333333 75.3333333333 237 136.666666667 237 204 c 0
 237 298.666666667 262.666666667 385.333333333 314 464 c 0
 362 537.333333333 412.333333333 594 465 634 c 0
 517.666666667 674 553 694 571 694 c 0
 593.666666667 694 605 683.333333333 605 662 c 0
EndSplineSet
EndChar

StartChar: parenright
Encoding: 41 41 86
Width: 525
Flags: W
VStem: 367 75<281.006 529.574>
LayerCount: 2
Fore
SplineSet
365 148 m 0
 317 74.6666666667 266.666666667 18 214 -22 c 0
 161.333333333 -62 126 -82 108 -82 c 0
 86 -82 75 -71.3333333333 75 -50 c 0
 75 -38 83.3333333333 -27 100 -17 c 0
 234.473690967 61.1556494509 367 217.058115794 367 412 c 0
 367 504.666666667 335.333333333 577.333333333 272 630 c 0
 258 641.333333333 251 652 251 662 c 0
 251 683.333333333 262 694 284 694 c 0
 319.848818436 694 376.330746185 621.416330262 393 592 c 0
 425.666666667 536.666666667 442 475.333333333 442 408 c 0
 442 313.333333333 416.333333333 226.666666667 365 148 c 0
EndSplineSet
EndChar

StartChar: percent
Encoding: 37 37 87
Width: 525
Flags: W
HStem: -83 69<381.407 416.973> 119 69<410.61 445.678> 422 69<232.298 266.911> 625 69<261.027 295.046>
VStem: 168 64<491.979 592.397> 296 64<523.659 624.881> 318 63<-13.8807 85.4758> 446 63<18.3433 118.11>
LayerCount: 2
Fore
SplineSet
290 694 m 0xfd
 336.030555036 694 360 649.184447497 360 600 c 0
 360 562 349.333333333 524.333333333 328 487 c 0
 303.333333333 443.666666667 273.666666667 422 239 422 c 0
 191.186188671 422 168 465.41418854 168 516 c 0
 168 553.333333333 178.666666667 591 200 629 c 0
 224.666666667 672.333333333 254.666666667 694 290 694 c 0xfd
564 694 m 0
 584.321284224 694 602 675.609085505 602 655 c 0
 602 648.333333333 598.666666667 639.666666667 592 629 c 2
 150 -59 l 2
 140 -75 128 -83 114 -83 c 0
 93.6787157756 -83 76 -64.6090855046 76 -44 c 0
 76 -36.6666666667 79.3333333333 -27.6666666667 86 -17 c 2
 528 670 l 2
 538 686 550 694 564 694 c 0
439 188 m 0
 486.228320622 188 509 145.118826446 509 94 c 0
 509 56 498.666666667 18.6666666667 478 -18 c 0
 453.333333333 -61.3333333333 423.333333333 -83 388 -83 c 0
 341.969444964 -83 318 -38.1844474966 318 11 c 0xfb
 318 49 328.666666667 86.6666666667 350 124 c 0
 374.666666667 166.666666667 404.333333333 188 439 188 c 0
288 625 m 0
 278 625 266.166666667 613.666666667 252.5 591 c 0
 238.833333333 568.333333333 232 544.666666667 232 520 c 0
 232 500.666666667 234.666666667 491 240 491 c 0
 249.333333333 491 261 502.166666667 275 524.5 c 0
 289 546.833333333 296 570.666666667 296 596 c 0xfd
 296 615.333333333 293.333333333 625 288 625 c 0
438 119 m 0
 428 119 416 107.5 402 84.5 c 0
 388 61.5 381 38 381 14 c 0xfb
 381 -4.66666666667 384 -14 390 -14 c 0
 400 -14 411.833333333 -2.5 425.5 20.5 c 0
 439.166666667 43.5 446 67 446 91 c 0
 446 109.666666667 443.333333333 119 438 119 c 0
EndSplineSet
EndChar

StartChar: period
Encoding: 46 46 88
Width: 525
Flags: W
HStem: 0 125<236.33 320.353>
VStem: 215 127<21.4733 104.062>
LayerCount: 2
Fore
SplineSet
342 70 m 0
 342 33.0313993225 307.941173007 0 271 0 c 0
 239.20841866 0 215 23.1830081521 215 55 c 0
 215 92.4999290766 248.212016458 125 286 125 c 0
 316.943678961 125 342 101.293653131 342 70 c 0
EndSplineSet
EndChar

StartChar: plus
Encoding: 43 43 89
Width: 525
Flags: W
HStem: 268 76<118.063 291 389 559.937>
LayerCount: 2
Fore
SplineSet
386 531 m 0
 407.177019338 531 424 514.176469203 424 493 c 0
 424 490.333333333 422.666666667 483.333333333 420 472 c 2
 389 344 l 1
 514 344 l 2
 546.666666667 344 563 331.333333333 563 306 c 256
 563 280.666666667 546.666666667 268 514 268 c 2
 370 268 l 1
 333 119 l 2
 327 93.6666666667 313.666666667 81 293 81 c 0
 271.822980662 81 255 97.823530797 255 119 c 0
 255 122.333333333 256.333333333 129.333333333 259 140 c 2
 291 268 l 1
 164 268 l 2
 131.333333333 268 115 280.666666667 115 306 c 256
 115 331.333333333 131.333333333 344 164 344 c 2
 309 344 l 1
 347 495 l 2
 353 519 366 531 386 531 c 0
EndSplineSet
EndChar

StartChar: Q
Encoding: 81 81 90
Width: 525
Flags: W
HStem: -12 68<184.779 295> 554 68<300.635 491.264>
VStem: 92 82<68.0244 232.448> 271 80<120.458 173.954> 344 85<-136.785 -97.1613> 504 82<380.978 540.078>
LayerCount: 2
Fore
SplineSet
527 229 m 0xec
 510.333333333 168.333333333 496.333333333 125.666666667 485 101 c 0
 462.333333333 51.6666666667 433 19.3333333333 397 4 c 1
 402.333333333 -15.3333333333 410.666666667 -44 422 -82 c 0
 426.666666667 -99.3333333333 429 -109 429 -111 c 0
 429 -129.666666667 415.333333333 -139 388 -139 c 2
 379 -139 l 2
 359 -139 347.333333333 -133.333333333 344 -122 c 2
 313 -12 l 1
 300 -12 300 -12 261 -12 c 0
 204.333333333 -12 166.333333333 -8.33333333333 147 -1 c 0
 110.333333333 12.3333333333 92 41.6666666667 92 87 c 0
 92 127 103.666666667 195 127 291 c 0
 148.333333333 381 168.333333333 448.333333333 187 493 c 0
 209 546.333333333 234.5 581.166666667 263.5 597.5 c 0
 292.5 613.833333333 343.666666667 622 417 622 c 0
 473 622 511 618.333333333 531 611 c 0
 567.666666667 597.666666667 586 568.333333333 586 523 c 0
 586 475 566.333333333 377 527 229 c 0xec
504 489 m 0
 504 547.94301127 468.334112053 554 401 554 c 0
 353 554 319.333333333 546.833333333 300 532.5 c 0
 280.666666667 518.166666667 262.666666667 488.333333333 246 443 c 0
 224.542655536 383.504635805 174 192.813216283 174 121 c 0
 174 66.5746972767 197.634627375 56 267 56 c 2
 295 56 l 1
 271 147 l 1
 271 166.333333333 284.333333333 176 311 176 c 2
 334 176 l 2
 342.666666667 176 348.333333333 171.666666667 351 163 c 0xf4
 351 161.666666667 359.333333333 132.666666667 376 76 c 1
 390.666666667 84 405.333333333 104.666666667 420 138 c 0
 430.666666667 162.666666667 442.333333333 199 455 247 c 0
 487.666666667 367.666666667 504 448.333333333 504 489 c 0
EndSplineSet
EndChar

StartChar: q
Encoding: 113 113 91
Width: 525
Flags: W
HStem: -222 68<213.417 322 400 491.528> -9 69<230.839 331.063> 369 68<303.277 402.749>
VStem: 136 75<78.9063 248.564> 422 115<255 415.667> 463 74<388.356 427.43>
LayerCount: 2
Fore
SplineSet
463 388 m 1xf4
 473.091668985 410.706255217 482.104431903 437 506 437 c 0
 526.666666667 437 537 426.333333333 537 405 c 0xf8
 537 402.333333333 535.666666667 395.666666667 533 385 c 2
 400 -154 l 1
 450 -154 l 2
 479.333333333 -154 494 -164.333333333 494 -185 c 0
 494 -209.666666667 479 -222 449 -222 c 2
 255 -222 l 2
 225.666666667 -222 211 -211.333333333 211 -190 c 0
 211 -166 226 -154 256 -154 c 2
 322 -154 l 1
 366 24 l 1
 333.333333333 2 301 -9 269 -9 c 0
 185.068677641 -9 136 65.6666662349 136 153 c 0
 136 218.333333333 157.333333333 280.666666667 200 340 c 0
 246 404.666666667 300.333333333 437 363 437 c 0
 401.666666667 437 435 420.666666667 463 388 c 1xf4
422 277 m 0
 422 323.74416127 404.199726472 369 362 369 c 0
 321.333333333 369 285 342 253 288 c 0
 225 240.666666667 211 194.666666667 211 150 c 0
 211 103.943450444 229.622414682 60 271 60 c 0
 312.333333333 60 349 86.6666666667 381 140 c 0
 408.333333333 187.333333333 422 233 422 277 c 0
EndSplineSet
EndChar

StartChar: question
Encoding: 63 63 92
Width: 525
Flags: W
HStem: 0 107<238.367 316.645> 182 68<310.232 373.628> 554 68<308.372 475.83>
VStem: 176 96<435.517 497.749> 224 107<14.7089 93.1709> 240 70<250.238 287.282> 382 74<260.474 307> 490 71<453.378 537.754>
LayerCount: 2
Fore
SplineSet
408 622 m 0xf3
 488.73266775 622 561 576.621335728 561 500 c 0
 561 444.666666667 529.333333333 399.333333333 466 364 c 2
 362 306 l 2
 346.666666667 296.666666667 335.666666667 290 329 286 c 0
 316.333333333 278 310 268.666666667 310 258 c 0
 310 252.666666667 314 250 322 250 c 0
 352.666666667 250 372.666666667 262.333333333 382 287 c 0
 387.333333333 301.666666667 399.666666667 309 419 309 c 0
 443.666666667 309 456 298.333333333 456 277 c 0
 456 249 439.666666667 225.333333333 407 206 c 0
 379 190 349.666666667 182 319 182 c 0
 272.567804326 182 240 212.516341485 240 259 c 0xe7
 240 301 260.333333333 333.333333333 301 356 c 2
 438 431 l 2
 472.666666667 450.333333333 490 473.666666667 490 501 c 0
 490 538.034030006 447.764933628 554 407 554 c 0
 343.666666667 554 297.333333333 535.333333333 268 498 c 1
 270.666666667 492.666666667 272 486 272 478 c 0
 272 448.875085327 249.12418116 426 220 426 c 0
 195.669034135 426 176 444.317957693 176 469 c 0
 176 515 204.333333333 553.333333333 261 584 c 0
 309 609.333333333 358 622 408 622 c 0xf3
331 58 m 0xeb
 331 27.645961324 302.326794384 0 272 0 c 0xf3
 244.156313995 0 224 20.1568641303 224 48 c 0
 224 79.7134243418 251.287584239 107 283 107 c 0
 315 107 331 90.6666666667 331 58 c 0xeb
EndSplineSet
EndChar

StartChar: quotedbl
Encoding: 34 34 93
Width: 525
Flags: W
HStem: 328 294<266 324 439 496>
VStem: 271 97<531.919 611.537> 405 68<333.498 379.444> 444 97<505.834 612.745>
LayerCount: 2
Fore
SplineSet
496 622 m 0xd0
 519.765529007 622 541 602.816991848 541 579 c 0xd0
 541 576.333333333 539.333333333 569.666666667 536 559 c 2
 473 357 l 2
 471 351.666666667 466 343.666666667 458 333 c 0
 453.333333333 329.666666667 447 328 439 328 c 0
 417.149537869 328 407.599145778 339.506406663 405 359 c 0
 405 362 405 362 405 365 c 0xe0
 418.852756792 432.480576541 430.846274388 501.820392279 444 570 c 0
 450 604.666666667 467.333333333 622 496 622 c 0xd0
324 622 m 0
 347.79158134 622 368 602.816991848 368 579 c 0
 368 574.333333333 366.333333333 567 363 557 c 2
 300 357 l 2
 298 351 292.666666667 342.666666667 284 332 c 0
 279.333333333 329.333333333 273.333333333 328 266 328 c 0
 245.05281439 328 234.531865167 340.011011247 232 359 c 0
 232 363.391869148 233.423541805 368.388334439 234 373 c 2
 271 569 l 2
 277.666666667 604.333333333 295.333333333 622 324 622 c 0
EndSplineSet
EndChar

StartChar: quotesingle
Encoding: 39 39 94
Width: 525
Flags: W
HStem: 328 294<353 410>
VStem: 359 93<532.8 612.923>
LayerCount: 2
Fore
SplineSet
410 622 m 0
 432.986238719 622 452 602.278418438 452 579 c 0
 452 574.333333333 450.333333333 566.666666667 447 556 c 2
 387 358 l 2
 385 351.333333333 380 342.666666667 372 332 c 1
 366.666666667 329.333333333 360.333333333 328 353 328 c 0
 331.666666667 328 321 338.333333333 321 359 c 0
 321 362.333333333 322 369.333333333 324 380 c 2
 359 571 l 2
 365 605 382 622 410 622 c 0
EndSplineSet
EndChar

StartChar: R
Encoding: 82 82 95
Width: 525
Flags: W
HStem: -11 68<432.552 460.654> 0 68<31.417 102 179 232.583> 271 68<247 375.314> 543 68<166.472 220 297 440.919>
VStem: 357 75<58.071 179.545> 385 75<124.113 259.502> 471 78<61.9814 128.268 400.27 513.926>
LayerCount: 2
Fore
SplineSet
549 476 m 0x76
 549 396.068101821 484.354085016 331.893339126 426 301 c 1
 448.666666667 276.333333333 460 249 460 219 c 0x76
 460 207.666666667 455.666666667 185 447 151 c 0
 437 109.666666667 432 83.3333333333 432 72 c 0
 432 62 434.333333333 57 439 57 c 0
 451.666666667 57 462.333333333 73 471 105 c 0
 476.333333333 122.333333333 489.333333333 131 510 131 c 0
 534.666666667 131 547 120.666666667 547 100 c 0
 547 56.524965969 496.520387951 -11 438 -11 c 0
 384.967949538 -11 357 23.2916875041 357 79 c 0xba
 357 95 361.333333333 119.333333333 370 152 c 0
 380 188.666666667 385 211 385 219 c 0
 385 253.666666667 360 271 310 271 c 2
 230 271 l 1
 179 68 l 1
 191 68 l 2
 220.333333333 68 235 57.3333333333 235 36 c 0
 235 12 220 0 190 0 c 2
 72 0 l 2
 43.3333333333 0 29 10.3333333333 29 31 c 0
 29 55.6666666667 43.6666666667 68 73 68 c 2
 102 68 l 1
 220 543 l 1
 208 543 l 2
 178.666666667 543 164 553.333333333 164 574 c 0
 164 598.666666667 179 611 209 611 c 2
 390 611 l 2
 477.615232294 611 549 561.242493566 549 476 c 0x76
471 462 m 0
 471 516.242917533 422.733761946 543 365 543 c 2
 297 543 l 1
 247 339 l 1
 313 339 l 2
 351 339 385.666666667 349.666666667 417 371 c 0
 453 395 471 425.333333333 471 462 c 0
EndSplineSet
EndChar

StartChar: r
Encoding: 114 114 96
Width: 525
Flags: W
HStem: -6 21G<192.078 210> 369 68<191.36 240.352 375.271 496.482>
VStem: 166 72<-2.8138 97.2344> 481 98<280.346 349.529>
LayerCount: 2
Fore
SplineSet
579 334 m 0
 579 298.866290756 560.084560451 269 525 269 c 0
 499.822980662 269 481 286.797386775 481 312 c 0
 481 327.333333333 486.333333333 340 497 350 c 1
 483 362.666666667 461 369 431 369 c 0
 392.333333333 369 358.333333333 342.666666667 329 290 c 0
 303 244 276.666666667 168.333333333 250 63 c 0
 244 37 240 22 238 18 c 0
 230 2 218 -6 202 -6 c 0
 182.156313995 -6 166 10.1568641303 166 30 c 0
 166 33.3333333333 167.333333333 40.3333333333 170 51 c 2
 237 320 l 2
 239.666666667 330 241 337.333333333 241 342 c 0
 241 360 232.666666667 369 216 369 c 0
 208.666666667 369 202.333333333 365 197 357 c 0
 188.333333333 345 180.333333333 323.333333333 173 292 c 0
 165.771219239 265.494470544 161.985925583 254 131 254 c 0
 106.333333333 254 94 264.666666667 94 286 c 0
 94 288 95 293.666666667 97 303 c 0
 103 330.333333333 114 357.666666667 130 385 c 0
 152 419.666666667 181 437 217 437 c 0
 260.333333333 437 290.666666667 419 308 383 c 1
 343.333333333 419 385 437 433 437 c 0
 507.183770354 437 579 402.885146521 579 334 c 0
EndSplineSet
EndChar

StartChar: S
Encoding: 83 83 97
Width: 525
Flags: W
HStem: -11 68<194.688 368.52> 554 68<305.468 456.336>
VStem: 161 73<387.365 491.019> 446 74<127.365 246.926>
LayerCount: 2
Fore
SplineSet
480 435 m 0
 480 440.716164602 482 458.288695143 482 464 c 0
 482 524 449.333333333 554 384 554 c 0
 349.333333333 554 316.666666667 542.666666667 286 520 c 0
 251.333333333 495.333333333 234 466.333333333 234 433 c 0
 234 409 243.333333333 392.333333333 262 383 c 0
 276 375.666666667 296 368.666666667 322 362 c 2
 421 337 l 2
 473.939393056 323.765151736 520 269.28306294 520 200 c 0
 520 142.666666667 496.166666667 93.1666666667 448.5 51.5 c 0
 400.833333333 9.83333333333 348 -11 290 -11 c 0
 224 -11 172.333333333 3.66666666667 135 33 c 1
 121 3.66666666667 106 -11 90 -11 c 0
 67.3333333333 -11 56 -0.333333333333 56 21 c 1
 97 188 l 1
 102.333333333 201.333333333 114.333333333 208 133 208 c 0
 158.333333333 208 171 197.333333333 171 176 c 1
 167 158.666666667 165 145.666666667 165 137 c 0
 165 83.6666666667 207.333333333 57 292 57 c 0
 329.333333333 57 364.333333333 70.6666666667 397 98 c 0
 429.666666667 125.333333333 446 157.333333333 446 194 c 0
 446 250.865147789 410.328682398 260.281925685 362 273 c 2
 296 289 l 2
 289.333333333 291 279.666666667 293.666666667 267 297 c 0
 207.092154589 313.718468487 161 357.613719071 161 427 c 0
 161 482.333333333 185.333333333 529.333333333 234 568 c 0
 279.333333333 604 330 622 386 622 c 0
 440 622 483 607 515 577 c 1
 519 585 524 593 530 601 c 0
 537.333333333 615 547.666666667 622 561 622 c 0
 583.666666667 622 595 611.333333333 595 590 c 0
 595 586.083443229 592.953181485 579.812725942 592 576 c 2
 556 433 l 2
 551.333333333 413 538.666666667 403 518 403 c 0
 492.666666667 403 480 413.666666667 480 435 c 0
EndSplineSet
EndChar

StartChar: s
Encoding: 115 115 98
Width: 525
Flags: W
HStem: -6 68<183.449 375.243> 369 68<274.156 420.356>
VStem: 99 98<79.5007 148.478> 181 68<277.822 345.183> 414 92<297.624 357.655> 418 67<100.613 175.249>
LayerCount: 2
Fore
SplineSet
506 348 m 0xd8
 506 315.473445107 488.423377317 289 456 289 c 0
 428 289 414 303 414 331 c 0
 414 341.666666667 416.666666667 350.666666667 422 358 c 1
 408 365.333333333 387.666666667 369 361 369 c 0
 307 369 272.333333333 355.666666667 257 329 c 0
 251.666666667 318.333333333 249 309.666666667 249 303 c 0xd8
 249 267.663116184 326.942655837 264.201398888 370 256 c 0
 429.90616143 242.976921428 485 213.382649399 485 146 c 0
 485 94.693815339 446.561229632 49.2554454339 413 28 c 0
 375.666666667 5.33333333333 327.666666667 -6 269 -6 c 0
 155.666666667 -6 99 27 99 93 c 0
 99 135.666666667 116.666666667 157 152 157 c 0
 175.765529007 157 197 137.816991848 197 114 c 0
 197 101.333333333 192.333333333 89.6666666667 183 79 c 1
 201 67.6666666667 230.333333333 62 271 62 c 0
 339.666666667 62 384.666666667 79 406 113 c 0
 414 125.666666667 418 136.333333333 418 145 c 0xe4
 418 177.693487297 369.104459698 187.408674343 334.5 194 c 0
 262.663457339 207.683150983 181 223.5541 181 302 c 0
 181 329.333333333 193 357.333333333 217 386 c 0
 245.666666667 420 294.333333333 437 363 437 c 0
 436.212329001 437 506 412.895452832 506 348 c 0xd8
EndSplineSet
EndChar

StartChar: semicolon
Encoding: 59 59 99
Width: 525
Flags: W
HStem: 300 131<310.957 394.578>
VStem: 212 131<11.707 105.938> 287 131<323.421 407.044>
LayerCount: 2
Fore
SplineSet
418 374 m 0xa0
 418 334.364732656 383.633983696 300 344 300 c 0
 312.234470993 300 287 325.235296196 287 357 c 0
 287 395.249829346 322.751637681 431 361 431 c 0
 393.29584545 431 418 406.622763232 418 374 c 0xa0
212 54 m 0xc0
 212 94.459848926 245.833209237 129 286 129 c 0
 324 129 343 106 343 60 c 0
 343 22 326.666666667 -20 294 -66 c 0
 258.666666667 -114.666666667 223 -139 187 -139 c 0
 169.343278004 -139 153 -121.939130208 153 -104 c 0
 153 -90 161.333333333 -79.3333333333 178 -72 c 0
 213.333333333 -56 240 -32.3333333333 258 -1 c 1
 233.000526302 4.26304709435 212 29.0329871531 212 54 c 0xc0
EndSplineSet
EndChar

StartChar: seven
Encoding: 55 55 100
Width: 525
Flags: W
HStem: -11 21G<313.667 336> 485 68<455.773 501.41> 548 74<289.081 406.48>
VStem: 289 78<-5.35425 95.7969>
LayerCount: 2
Fore
SplineSet
653 566 m 0xb0
 507.666666667 381.333333333 412.333333333 203 367 31 c 0
 359.666666667 3 346 -11 326 -11 c 0
 301.333333333 -11 289 1.33333333333 289 26 c 0
 289 44.6666666667 302.666666667 89.6666666667 330 161 c 0
 367.333333333 261 424.666666667 369.333333333 502 486 c 1
 496 485.333333333 489.333333333 485 482 485 c 0xd0
 437.961996848 485 425.90927233 502.429529414 401 533 c 0
 392.333333333 543 383.333333333 548 374 548 c 0
 290.151423968 548 216.63171494 483.01502787 181 424 c 0
 170.333333333 406.666666667 156.666666667 398 140 398 c 0
 115.333333333 398 103 408.333333333 103 429 c 0
 103 435 105.333333333 442.666666667 110 452 c 2
 193 606 l 2
 198.703035749 617.406071498 209.477439178 622 226 622 c 0
 248 622 260.666666667 612.666666667 264 594 c 1
 302.666666667 612.666666667 340.666666667 622 378 622 c 0xb0
 396.666666667 622 412 617.666666667 424 609 c 0
 433.333333333 603 444.333333333 591 457 573 c 0
 467 559.666666667 476 553 484 553 c 0xd0
 525.333333333 553 561 570.333333333 591 605 c 0
 601 616.333333333 613 622 627 622 c 0
 652.333333333 622 665 611.333333333 665 590 c 0
 665 582 661 574 653 566 c 0xb0
EndSplineSet
Substitution2: "LMMono10-Italic-'onum' +A6gDtwPGA7kDrAAA +A8ADsQO7A7kDrAPC +A7wDvwPBA8YDrgPC lookup 4 subtable" seven.taboldstyle
Substitution2: "LMMono10-Italic-'aalt' +A6ADwQPMA8MDsgOxA8MDtwAA +A8MDtQAA +A8wDuwOx +A8QDsQAA +A7UDvQOxA7sDuwOxA7oDxAO5A7oDrAAA lookup 0 subtable" seven.taboldstyle
EndChar

StartChar: six
Encoding: 54 54 101
Width: 525
Flags: W
HStem: -11 68<213.866 351.071> 330 69<275.848 423.852> 554 68<381.686 501.58>
VStem: 110 76<84.8595 248.877> 452 76<157.64 301.936> 488 99<475.422 545.56>
LayerCount: 2
Fore
SplineSet
468 622 m 0xf8
 533.698843516 622 587 594.263617289 587 533 c 0
 587 488.333333333 569 466 533 466 c 0
 503 466 488 480 488 508 c 0xf4
 488 524 493 536.666666667 503 546 c 1
 494.333333333 551.333333333 482 554 466 554 c 0
 357.341175752 554 257.01489017 441.171055096 223 355 c 1
 265.666666667 384.333333333 313 399 365 399 c 0
 425 399 468.333333333 378.666666667 495 338 c 0
 517 304 528 271.666666667 528 241 c 0
 528 173.666666667 501.833333333 114.833333333 449.5 64.5 c 0
 397.166666667 14.1666666667 337.333333333 -11 270 -11 c 0
 162.304721479 -11 110 67.0309754199 110 178 c 0
 110 209.333333333 115.333333333 249.333333333 126 298 c 0
 141.333333333 368.666666667 173.333333333 433.333333333 222 492 c 0
 294.666666667 578.666666667 376.666666667 622 468 622 c 0xf8
438 289 m 0
 426 316.333333333 399.666666667 330 359 330 c 0
 284.056943386 330 215.626831616 279.470060331 194 223 c 1
 188.666666667 199.666666667 186 180.666666667 186 166 c 0
 186 143.333333333 190.666666667 121 200 99 c 0
 211.333333333 71 235 57 271 57 c 0
 317.666666667 57 359.5 75.8333333333 396.5 113.5 c 0
 433.5 151.166666667 452 193.333333333 452 240 c 0xf8
 452 252.666666667 447.333333333 269 438 289 c 0
EndSplineSet
Substitution2: "LMMono10-Italic-'onum' +A6gDtwPGA7kDrAAA +A8ADsQO7A7kDrAPC +A7wDvwPBA8YDrgPC lookup 4 subtable" six.taboldstyle
Substitution2: "LMMono10-Italic-'aalt' +A6ADwQPMA8MDsgOxA8MDtwAA +A8MDtQAA +A8wDuwOx +A8QDsQAA +A7UDvQOxA7sDuwOxA7oDxAO5A7oDrAAA lookup 0 subtable" six.taboldstyle
EndChar

StartChar: slash
Encoding: 47 47 102
Width: 525
Flags: W
LayerCount: 2
Fore
SplineSet
594 694 m 0
 614.321284224 694 632 675.609085505 632 655 c 0
 632 647.666666667 627.666666667 638 619 626 c 2
 119 -63 l 2
 109 -76.3333333333 97.3333333333 -83 84 -83 c 0
 62.822980662 -83 46 -65.1503251813 46 -44 c 0
 46 -36.6666666667 50.3333333333 -27 59 -15 c 2
 561 676 l 2
 569.666666667 688 580.666666667 694 594 694 c 0
EndSplineSet
EndChar

StartChar: T
Encoding: 84 84 104
Width: 525
Flags: W
HStem: 0 68<145.362 242 319 399.528> 450 161<174.053 220.571 558.396 617.885> 543 68<239 360 437 558>
LayerCount: 2
Fore
SplineSet
642 564 m 2xc0
 621 481 l 2
 616.333333333 460.333333333 603.666666667 450 583 450 c 0xc0
 557.666666667 450 545 460.666666667 545 482 c 1
 558 543 l 1
 437 543 l 1
 319 68 l 1
 358 68 l 2
 387.333333333 68 402 57.6666666667 402 37 c 0
 402 12.3333333333 387 0 357 0 c 2
 186 0 l 2
 157.333333333 0 143 10.6666666667 143 32 c 0
 143 56 157.666666667 68 187 68 c 2
 242 68 l 1
 360 543 l 1
 239 543 l 1xa0
 224 481 l 2
 218.666666667 460.333333333 205.666666667 450 185 450 c 0
 159.666666667 450 147 460.666666667 147 482 c 0
 147 484 148 489 150 497 c 2
 170 577 l 2
 176.887439709 606.517598753 185.409291685 611 215 611 c 2
 601 611 l 2
 630.333333333 611 645 600.333333333 645 579 c 0
 645 577 644 572 642 564 c 2xc0
EndSplineSet
EndChar

StartChar: t
Encoding: 116 116 105
Width: 525
Flags: W
HStem: -6 68<283.93 368.003> 365 68<158.417 271 366 478.528> 597 20G<354.667 377>
VStem: 417 77<111.355 172.502>
LayerCount: 2
Fore
SplineSet
313 -6 m 0
 254.802275319 -6 207 33.5947735506 207 92 c 1
 271 365 l 1
 200 365 l 2
 170.666666667 365 156 375.666666667 156 397 c 0
 156 421 171 433 201 433 c 2
 289 433 l 1
 324 578 l 2
 330.666666667 604 344.333333333 617 365 617 c 0
 389 617 401 604.666666667 401 580 c 0
 401 578 399.666666667 571.666666667 397 561 c 2
 366 433 l 1
 437 433 l 2
 466.333333333 433 481 422.666666667 481 402 c 0
 481 377.333333333 466 365 436 365 c 2
 349 365 l 1
 287 114 l 2
 284.333333333 103.333333333 283 96 283 92 c 0
 283 72 293.333333333 62 314 62 c 0
 361.441393748 62 400.374651518 110.315876773 417 148 c 0
 419.666666667 154 426 162.333333333 436 173 c 0
 441.333333333 176.333333333 448 178 456 178 c 0
 481.333333333 178 494 167.333333333 494 146 c 0
 494 112 472.833333333 78.1666666667 430.5 44.5 c 0
 388.166666667 10.8333333333 349 -6 313 -6 c 0
EndSplineSet
EndChar

StartChar: three
Encoding: 51 51 106
Width: 525
Flags: W
HStem: -11 68<173.647 347.818> 283 68<254.201 408.945> 554 68<311.486 480.479>
VStem: 77 78<76.5442 106> 176 77<447.445 505.839> 435 76<128.642 257.719> 508 76<419.088 526.459>
LayerCount: 2
Fore
SplineSet
584 479 m 0xfa
 584 399.975267313 518.856036944 339.363338878 459 310 c 1
 493.666666667 277.333333333 511 238 511 192 c 0
 511 100.819381367 433.612625183 33.4822676381 359 9 c 0
 319.666666667 -4.33333333333 280.333333333 -11 241 -11 c 0
 151.735973471 -11 77 35.5313905947 77 120 c 0
 77 168.666666667 95 193 131 193 c 0
 161 193 176 178.666666667 176 150 c 0
 176 134.666666667 169.666666667 121.333333333 157 110 c 1
 155 106 l 1
 156.371302962 78.5739407505 204.423552744 57 242 57 c 0
 307.333333333 57 360.333333333 76.3333333333 401 115 c 0
 423.666666667 137 435 163 435 193 c 0xfc
 435 253 402.333333333 283 337 283 c 2
 298 283 l 2
 267.333333333 283 252 294 252 316 c 0
 252 339.333333333 267 351 297 351 c 2
 334 351 l 2
 374 351 411.666666667 362 447 384 c 0
 487.666666667 409.333333333 508 441 508 479 c 0
 508 528.324199369 460.15876372 554 407 554 c 0
 342.298976455 554 271.051257309 525.348646196 253 473 c 0
 246.333333333 453.666666667 233.333333333 444 214 444 c 0
 188.666666667 444 176 454.666666667 176 476 c 0
 176 520.666666667 205 557.333333333 263 586 c 0
 311 610 359.666666667 622 409 622 c 0
 503.544650565 622 584 569.084292354 584 479 c 0xfa
EndSplineSet
Substitution2: "LMMono10-Italic-'onum' +A6gDtwPGA7kDrAAA +A8ADsQO7A7kDrAPC +A7wDvwPBA8YDrgPC lookup 4 subtable" three.taboldstyle
Substitution2: "LMMono10-Italic-'aalt' +A6ADwQPMA8MDsgOxA8MDtwAA +A8MDtQAA +A8wDuwOx +A8QDsQAA +A7UDvQOxA7sDuwOxA7oDxAO5A7oDrAAA lookup 0 subtable" three.taboldstyle
EndChar

StartChar: two
Encoding: 50 50 107
Width: 525
Flags: W
HStem: -11 74<281.891 439.44> 554 68<299.233 455.79>
VStem: 131 75<400.246 467.75> 498 76<128.326 194.201 380.835 512.151>
LayerCount: 2
Fore
SplineSet
498 447 m 0
 498 513.978189082 447.02647349 554 380 554 c 0
 337.333333333 554 297 537.333333333 259 504 c 0
 234.333333333 483.333333333 216.666666667 455.666666667 206 421 c 0
 200.666666667 405.666666667 188 398 168 398 c 0
 143.333333333 398 131 408.333333333 131 429 c 0
 131 461 152.666666667 499.666666667 196 545 c 0
 244.666666667 596.333333333 306.333333333 622 381 622 c 0
 435 622 480.666666667 606 518 574 c 0
 555.333333333 542 574 499.333333333 574 446 c 0
 574 381.333333333 546.666666667 329 492 289 c 0
 464.666666667 269 439.333333333 253 416 241 c 0
 375.333333333 222.333333333 334.666666667 204 294 186 c 0
 246.666666667 162.666666667 210.666666667 137 186 109 c 1
 204.666666667 106.333333333 238 97.6666666667 286 83 c 0
 328.666666667 69.6666666667 361 63 383 63 c 0
 440.327136031 63 481.01032835 120.870343253 495 171 c 0
 500.333333333 188.333333333 513 197 533 197 c 0
 558.333333333 197 571 186.666666667 571 166 c 0
 571 142 555 108.333333333 523 65 c 0
 485.666666667 14.3333333333 438.333333333 -11 381 -11 c 0
 351 -11 311.333333333 -1.33333333333 262 18 c 0
 222 33.3333333333 191.666666667 41 171 41 c 0
 155 41 142.666666667 32.3333333333 134 15 c 0
 125.333333333 -2.33333333333 112.333333333 -11 95 -11 c 0
 69.6666666667 -11 57 -0.333333333333 57 21 c 0
 57 57.4293769078 106.664635334 133.727933937 127 156 c 0
 169.666666667 201.333333333 223.333333333 237.666666667 288 265 c 0
 356.666666667 294.333333333 401.333333333 316 422 330 c 0
 472.666666667 363.333333333 498 402.333333333 498 447 c 0
EndSplineSet
Substitution2: "LMMono10-Italic-'onum' +A6gDtwPGA7kDrAAA +A8ADsQO7A7kDrAPC +A7wDvwPBA8YDrgPC lookup 4 subtable" two.taboldstyle
Substitution2: "LMMono10-Italic-'aalt' +A6ADwQPMA8MDsgOxA8MDtwAA +A8MDtQAA +A8wDuwOx +A8QDsQAA +A7UDvQOxA7sDuwOxA7oDxAO5A7oDrAAA lookup 0 subtable" two.taboldstyle
EndChar

StartChar: U
Encoding: 85 85 108
Width: 525
Flags: W
HStem: -11 68<220.305 334.276> 543 68<151.417 209 287 362.583 452.472 510 588 664.583>
VStem: 119 76<81.5739 257.953> 209 78<514.915 543>
LayerCount: 2
Fore
SplineSet
195 152 m 0
 195 99.5105834191 220.010860884 57 270 57 c 0
 346.258331965 57 411.314269196 145.794222943 429 213 c 1
 510 543 l 1
 494 543 l 2
 464.666666667 543 450 553.333333333 450 574 c 0
 450 598.666666667 465 611 495 611 c 2
 623 611 l 2
 652.333333333 611 667 600.333333333 667 579 c 0
 667 555 652 543 622 543 c 2
 588 543 l 1
 502 195 l 2
 488.666666667 141 460.666666667 94 418 54 c 0
 372 10.6666666667 322.333333333 -11 269 -11 c 0
 179.373213584 -11 119 61.4551075316 119 153 c 0
 119 172.333333333 121.666666667 192.666666667 127 214 c 2
 209 543 l 1
 192 543 l 2
 163.333333333 543 149 553.333333333 149 574 c 0
 149 598.666666667 163.666666667 611 193 611 c 2
 321 611 l 2
 350.333333333 611 365 600.333333333 365 579 c 0
 365 555 350 543 320 543 c 2
 287 543 l 1
 201 196 l 2
 197 180.666666667 195 166 195 152 c 0
EndSplineSet
EndChar

StartChar: u
Encoding: 117 117 109
Width: 525
Flags: W
HStem: -6 68<237.96 318.013 427.069 456.633> 369 68<182.649 220.716>
VStem: 80 77<256.82 341.259> 158 75<65.6718 212.65> 221 74<287.035 368.115> 479 74<129.375 175>
LayerCount: 2
Fore
SplineSet
216 437 m 0xec
 263.817633672 437 295 399.660127718 295 352 c 0xec
 295 336.666666667 291 318 283 296 c 0
 249.666666667 204.666666667 233 144 233 114 c 0
 233 79.3333333333 245.666666667 62 271 62 c 0
 318.333333333 62 355.333333333 116 382 224 c 2
 424 394 l 2
 430.666666667 418.666666667 444 431 464 431 c 0
 488.666666667 431 501 419 501 395 c 0
 501 391.666666667 499.666666667 384.333333333 497 373 c 2
 431 107 l 2
 428.333333333 97 427 89.6666666667 427 85 c 0
 427 69.6666666667 431.333333333 62 440 62 c 0
 446.666666667 62 454.333333333 74.3333333333 463 99 c 0
 471 126 471 126 479 153 c 0
 485.262809039 171.788427117 493.049901338 177 515 177 c 0
 540.333333333 177 553 166.333333333 553 145 c 0
 553 119.666666667 542 87 520 47 c 0
 500.666666667 11.6666666667 473.666666667 -6 439 -6 c 0
 406.333333333 -6 381.666666667 7.33333333333 365 34 c 1
 336.333333333 7.33333333333 304.333333333 -6 269 -6 c 256
 197.968985299 -6 158 43.8884555737 158 115 c 256xf4
 158 151 175.666666667 218.666666667 211 318 c 0
 217.666666667 336 221 348.333333333 221 355 c 0
 221 364.333333333 218.666666667 369 214 369 c 0
 191.333333333 369 172.333333333 341.333333333 157 286 c 0
 150.211961604 265.635884813 143.874576146 254 117 254 c 0
 92.3333333333 254 80 264.666666667 80 286 c 0
 80 322 99.6666666667 360.666666667 139 402 c 0
 161.666666667 425.333333333 187.333333333 437 216 437 c 0xec
EndSplineSet
EndChar

StartChar: underscore
Encoding: 95 95 110
Width: 525
Flags: W
HStem: -167 70<25.3926 433.607>
LayerCount: 2
Fore
SplineSet
386 -167 m 2
 73 -167 l 2
 39.6666666667 -167 23 -155.333333333 23 -132 c 256
 23 -108.666666667 39.6666666667 -97 73 -97 c 2
 386 -97 l 2
 419.333333333 -97 436 -108.666666667 436 -132 c 256
 436 -155.333333333 419.333333333 -167 386 -167 c 2
EndSplineSet
EndChar

StartChar: V
Encoding: 86 86 111
Width: 525
Flags: W
HStem: -8 21G<241.713 281.982> 543 68<165.527 211 289 350.583 465.644 508 588 650.583>
VStem: 163 190<546.516 607.555> 214 76<96 543> 463 190<546.558 607.555>
LayerCount: 2
Fore
SplineSet
211 543 m 1xd8
 184.539062934 543 163 548.510019962 163 574 c 0
 163 598.666666667 177.666666667 611 207 611 c 2
 309 611 l 2
 338.333333333 611 353 600.333333333 353 579 c 0xe8
 353 555 338 543 308 543 c 2
 289 543 l 1
 289.666666667 536.333333333 290 527.333333333 290 516 c 2
 290 196 l 2
 290 152 289.333333333 118.666666667 288 96 c 1
 302 126.666666667 321 166.666666667 345 216 c 2
 508 543 l 1
 482.375703371 543 463 549.130186965 463 574 c 0
 463 598.666666667 477.666666667 611 507 611 c 2
 609 611 l 2
 638.333333333 611 653 600.333333333 653 579 c 0
 653 555 638 543 608 543 c 2
 588 543 l 1
 327 27 l 2
 313.917932236 2.28942755781 300.96323742 -8 263 -8 c 0
 220.425942546 -8 214 0.122155110395 214 41 c 2
 214 109 l 1
 211 543 l 1xd8
EndSplineSet
EndChar

StartChar: v
Encoding: 118 118 112
Width: 525
Flags: W
HStem: -6 68<269.559 365.452> 369 68<186.488 242.527>
VStem: 80 76<256.82 335.016> 181 76<73.4214 218.924> 243 76<282.857 368.192> 460 76<239.115 429.932>
LayerCount: 2
Fore
SplineSet
452 397 m 1xf4
 452 418.124914673 470.87581884 437 492 437 c 0
 521.333333333 437 536 410.333333333 536 357 c 0
 536 316.333333333 521.666666667 251 493 161 c 0
 467.608699853 84.8260995592 409.027694948 -6 321 -6 c 0
 237.902921306 -6 181 43.0371468671 181 126 c 0xf4
 181 159.333333333 199.333333333 224.333333333 236 321 c 0
 240.666666667 335 243 344.666666667 243 350 c 0
 243 362.666666667 237.333333333 369 226 369 c 0
 196 369 172.666666667 340 156 282 c 0
 150.666666667 263.333333333 137.666666667 254 117 254 c 0
 92.3333333333 254 80 264.666666667 80 286 c 0
 80 320 96.1666666667 353.666666667 128.5 387 c 0
 160.833333333 420.333333333 194 437 228 437 c 0
 279.124750057 437 319 399.87400448 319 349 c 0xec
 319 335.666666667 315.333333333 319.333333333 308 300 c 0
 274 210.666666667 257 152.666666667 257 126 c 0
 257 83.3333333333 278.666666667 62 322 62 c 0
 374.358550377 62 414.731612129 149.316721706 429 202 c 0
 449.666666667 280.666666667 460 331.333333333 460 354 c 0
 460 365.333333333 459 374.333333333 457 381 c 2
 452 397 l 1xf4
EndSplineSet
EndChar

StartChar: W
Encoding: 87 87 113
Width: 525
Flags: W
HStem: -8 21G<151 173 345.519 374.333> 543 68<249 319.638 495.472 549 612 656.942>
VStem: 156 166<546.516 607.387> 328 62<112.096 271> 493 166<546.363 607.387>
LayerCount: 2
Fore
SplineSet
355 370 m 0
 382.946594048 370 394 357.748741717 394 332 c 2
 390 191 l 2
 389.333333333 161 387.666666667 134.333333333 385 111 c 1
 438.592352628 256.074314039 494.253940828 399.079392505 549 543 c 1
 537 543 l 2
 507.666666667 543 493 553.333333333 493 574 c 0
 493 598.666666667 508 611 538 611 c 2
 616 611 l 2
 644.666666667 611 659 600.333333333 659 579 c 0
 659 552.635792038 642.189783694 543 612 543 c 1
 413 29 l 2
 403.666666667 4.33333333333 386.666666667 -8 362 -8 c 0
 329.038072901 -8 322.697304051 5.12990533042 324 39 c 2
 328 179 l 2
 328.666666667 202.333333333 329.666666667 233 331 271 c 1
 329.666666667 268.333333333 315 236.666666667 287 176 c 2
 236 65 l 2
 223.333333333 37.6666666667 214.666666667 21 210 15 c 0
 198.666666667 -0.333333333333 183 -8 163 -8 c 0
 139 -8 127 1.66666666667 127 21 c 1
 147.380994386 193.952338947 165.476083393 369.190583274 185 543 c 1
 165.666666667 545.666666667 156 556 156 574 c 0
 156 598.666666667 171 611 201 611 c 2
 279 611 l 2
 307.666666667 611 322 600.333333333 322 579 c 0
 322 555 307 543 277 543 c 2
 249 543 l 1
 210 201 l 2
 206 167 202.333333333 138.666666667 199 116 c 1
 215 155.333333333 242 214.666666667 280 294 c 0
 295.333333333 325.333333333 304 342.666666667 306 346 c 0
 318 362 334.333333333 370 355 370 c 0
EndSplineSet
EndChar

StartChar: w
Encoding: 119 119 114
Width: 525
Flags: W
HStem: -6 68<169.733 254.42 360.944 441.924> 417 14G<132.327 166.177 376.667 395.667 536.438 561>
VStem: 96 64<71.2146 212.662> 152 64<256.596 363.644> 520 69<236.385 414.566>
LayerCount: 2
Fore
SplineSet
507 398 m 0xe8
 507 419.150967005 525.87581884 437 547 437 c 0
 575 437 589 413.333333333 589 366 c 0
 589 303.554698525 548.030743229 156.079285169 529 107 c 0
 498.333333333 31.6666666667 456.666666667 -6 404 -6 c 0
 360 -6 327.333333333 11.3333333333 306 46 c 1
 282.666666667 11.3333333333 252.666666667 -6 216 -6 c 0xd8
 190.666666667 -6 165.666666667 2 141 18 c 0
 111 36.6666666667 96 70.6666666667 96 120 c 0xe8
 96 175.541743192 121.544320882 230.624904304 138 277 c 0
 147.333333333 303.666666667 152 323.666666667 152 337 c 0
 152 353.666666667 147.333333333 362.333333333 138 363 c 0
 117.333333333 365.666666667 107 376.333333333 107 395 c 0
 107 414.003916609 122.653013115 431 142 431 c 0
 190.354579159 431 216 393.763006031 216 342 c 0xd8
 216 320.666666667 210.333333333 294.333333333 199 263 c 2
 174 191 l 2
 164.666666667 165.666666667 160 143.333333333 160 124 c 0
 160 82.6666666667 179 62 217 62 c 0
 251 62 279.666666667 108 303 200 c 2
 352 399 l 2
 357.333333333 420.333333333 368.333333333 431 385 431 c 0
 406.333333333 431 417 420.666666667 417 400 c 1
 411.409978327 383.22993498 410.245125516 370.872662852 404 345 c 2
 387 279 l 2
 383.834910619 265.073606724 353 147.283136278 353 121 c 0
 353 81.6666666667 370.333333333 62 405 62 c 0
 434.333333333 62 459.666666667 95.6666666667 481 163 c 0
 507 245.666666667 520 304 520 338 c 0
 520 348.666666667 517.833333333 360 513.5 372 c 0
 509.166666667 384 507 392.666666667 507 398 c 0xe8
EndSplineSet
EndChar

StartChar: X
Encoding: 88 88 115
Width: 525
Flags: W
HStem: 0 68<36.417 106 316.815 366 449 503.35> 543 68<183.472 238 322 369.942 541 610.638>
VStem: 181 191<546.338 607.387> 315 191<3.61328 64.9977> 422 191<546.358 607.387>
LayerCount: 2
Fore
SplineSet
372 579 m 0xe0
 372 550.94978932 355.57875783 543 322 543 c 1
 359 412 l 1
 456 543 l 1
 433.333333333 545 422 555.333333333 422 574 c 0
 422 598.666666667 437 611 467 611 c 2
 570 611 l 2
 598.666666667 611 613 600.333333333 613 579 c 0xe8
 613 555 598.333333333 543 569 543 c 2
 541 543 l 1
 377 324 l 1
 449 68 l 1
 483.976964202 68 506 64.8573134639 506 37 c 0
 506 12.3333333333 491 0 461 0 c 2
 359 0 l 2
 329.666666667 0 315 10.6666666667 315 32 c 256xd0
 315 63.908716411 333.566570754 68 366 68 c 1
 319 247 l 1
 190 68 l 1
 213.333333333 66 225 55.6666666667 225 37 c 0
 225 12.3333333333 210 0 180 0 c 2
 78 0 l 2
 48.6666666667 0 34 10.6666666667 34 32 c 0
 34 56 49 68 79 68 c 2
 106 68 l 1
 300 326 l 1
 238 543 l 1
 224 543 l 2
 195.333333333 543 181 553.333333333 181 574 c 0
 181 598.666666667 196 611 226 611 c 2
 329 611 l 2
 357.666666667 611 372 600.333333333 372 579 c 0xe0
EndSplineSet
EndChar

StartChar: x
Encoding: 120 120 116
Width: 525
Flags: W
HStem: -6 68<160.226 232.254 339.303 432.512> 369 68<199.858 293.593 399.692 472.384>
VStem: 80 76<256.258 324.257> 81 99<78.5022 152.297> 453 98<278.996 353.498> 476 77<106.497 174.18>
LayerCount: 2
Fore
SplineSet
497 269 m 0xe8
 471.822980662 269 453 286.797386775 453 312 c 0xe8
 453 329.333333333 459.666666667 343.333333333 473 354 c 1
 469 364 460.333333333 369 447 369 c 0
 429 369 412.666666667 361.333333333 398 346 c 0
 388.666666667 336.666666667 380.666666667 318.333333333 374 291 c 2
 347 185 l 2
 337.666666667 145.666666667 333 122 333 114 c 0
 333 79.3333333333 348.333333333 62 379 62 c 0
 425.412035111 62 464.212052854 108.099774417 476 147 c 0
 482.714108696 165.463798913 490.010071552 177 515 177 c 0
 540.333333333 177 553 166.333333333 553 145 c 0
 553 108.333333333 533.166666667 74 493.5 42 c 0
 453.833333333 10 415 -6 377 -6 c 0
 340.333333333 -6 309.333333333 7.33333333333 284 34 c 1
 256.666666667 7.33333333333 223.666666667 -6 185 -6 c 0
 126.750170654 -6 81 34.6209175723 81 93 c 0
 81 139 99.3333333333 162 136 162 c 0
 160.644345998 162 180 143.344307426 180 119 c 0xd4
 180 102.333333333 173 88.6666666667 159 78 c 1
 163 67.3333333333 172 62 186 62 c 0
 220.944875748 62 247.785464724 93.7370138037 255 125 c 2
 297 296 l 2
 299 304 300 311 300 317 c 0
 300 351.666666667 284.666666667 369 254 369 c 0
 206.767807486 369 168.935476992 322.982383428 156 283 c 0
 149.43405513 263.30216539 142.454023614 254 117 254 c 0
 92.3333333333 254 80 264.666666667 80 286 c 0
 80 322.666666667 99.6666666667 357 139 389 c 0
 178.333333333 421 217 437 255 437 c 256
 293 437 323.666666667 423.333333333 347 396 c 1
 377.666666667 423.333333333 411.333333333 437 448 437 c 0
 507.125098166 437 551 396.895501409 551 338 c 0
 551 296.287701017 534.034328854 269 497 269 c 0xe8
EndSplineSet
EndChar

StartChar: Y
Encoding: 89 89 117
Width: 525
Flags: W
HStem: 0 68<172.362 243 319 373.473> 543 68<165.486 218 302 351.772 581 649.638>
LayerCount: 2
Fore
SplineSet
354 579 m 0
 354 550.283805911 335.828195771 543 302 543 c 1
 326 429 340.333333333 357 345 327 c 1
 357.666666667 349 376.666666667 377.666666667 402 413 c 2
 496 543 l 1
 472.666666667 545 461 555.333333333 461 574 c 0
 461 598.666666667 476 611 506 611 c 2
 609 611 l 2
 637.666666667 611 652 600.333333333 652 579 c 0
 652 555 637 543 607 543 c 2
 581 543 l 1
 362 243 l 1
 319 68 l 1
 331 68 l 2
 361 68 376 57.6666666667 376 37 c 0
 376 12.3333333333 360.666666667 0 330 0 c 2
 213 0 l 2
 184.333333333 0 170 10.6666666667 170 32 c 0
 170 56 184.666666667 68 214 68 c 2
 243 68 l 1
 287 245 l 1
 218 543 l 1
 187.774271185 543 163 545.928425515 163 574 c 0
 163 598.666666667 178 611 208 611 c 2
 311 611 l 2
 339.666666667 611 354 600.333333333 354 579 c 0
EndSplineSet
EndChar

StartChar: y
Encoding: 121 121 118
Width: 525
Flags: W
HStem: -228 68<188.49 276.106> -9 69<255.385 346.63> 369 68<185.252 233.206>
VStem: 80 76<255.299 335.716> 109 99<-143.529 -72.5347> 171 76<67.4716 216.752> 234 75<284.647 368.194>
LayerCount: 2
Fore
SplineSet
223 437 m 0xf2
 274.275712667 437 309 399.888986015 309 349 c 0xf2
 309 335 301.666666667 308.666666667 287 270 c 0
 260.333333333 198 247 147 247 117 c 0xe4
 247 79 263 60 295 60 c 0
 311 60 326 65.3333333333 340 76 c 0
 365.333333333 95.3333333333 386.333333333 128.333333333 403 175 c 0
 411 198.333333333 424.333333333 245.333333333 443 316 c 1
 461 389 l 1
 467.381436528 409.739668716 475.853024999 431 503 431 c 0
 527 431 539 419 539 395 c 0
 539 391 537.666666667 383.666666667 535 373 c 2
 440 -13 l 2
 415.109236419 -110.192505412 327.377895693 -228 216 -228 c 0
 155.401233049 -228 109 -186.884045968 109 -128 c 0
 109 -98.6666666667 117.333333333 -79.3333333333 134 -70 c 0
 144 -64 154 -61 164 -61 c 0
 188.330965865 -61 208 -79.3179576931 208 -104 c 0xe8
 208 -120.666666667 201.333333333 -134 188 -144 c 1
 192.666666667 -154.666666667 202.333333333 -160 217 -160 c 0
 293.130308647 -160 350.641171419 -59.2777531027 367 12 c 1
 338.333333333 -2 313.666666667 -9 293 -9 c 0
 216.699579756 -9 171 41.4881503839 171 118 c 0xe4
 171 156 188 220 222 310 c 0
 230 332.666666667 234 346.333333333 234 351 c 0
 234 363 230 369 222 369 c 0
 195.333333333 369 173.333333333 341 156 285 c 0
 150.732796924 263.931187695 143.174610607 253 117 253 c 0
 92.3333333333 253 80 263.666666667 80 285 c 0
 80 303.666666667 91.3333333333 332 114 370 c 0
 141.333333333 414.666666667 177.666666667 437 223 437 c 0xf2
EndSplineSet
EndChar

StartChar: Z
Encoding: 90 90 119
Width: 525
Flags: W
HStem: 0 68<165 423> 543 68<271 513>
LayerCount: 2
Fore
SplineSet
605 544 m 2
 165 68 l 1
 423 68 l 1
 439 133 l 2
 445.961427514 164.326423813 450.243950615 180 482 180 c 0
 507.333333333 180 520 169.333333333 520 148 c 0
 520 144.666666667 515 122.666666667 505 82 c 0
 495 41.3333333333 489 19.6666666667 487 17 c 0
 481.666666667 5.66666666667 468.333333333 0 447 0 c 2
 92 0 l 2
 66.6666666667 0 54 8.66666666667 54 26 c 0
 54 39.3333333333 61 53.6666666667 75 69 c 2
 513 543 l 1
 271 543 l 1
 256 481 l 2
 251.333333333 460.333333333 238.666666667 450 218 450 c 0
 192 450 179 460.666666667 179 482 c 0
 179 484 180 489 182 497 c 2
 202 577 l 2
 208.887439709 606.517598753 217.409291685 611 247 611 c 2
 586 611 l 2
 611.333333333 611 624 602.333333333 624 585 c 0
 624 571 617.666666667 557.333333333 605 544 c 2
EndSplineSet
EndChar

StartChar: z
Encoding: 122 122 120
Width: 525
Flags: W
HStem: -6 76<298.826 405.876> 361 76<263.586 363.934>
VStem: 167 75<277.022 339.135> 454 75<122.808 192.026>
LayerCount: 2
Fore
SplineSet
384 329 m 1
 363.703067275 338.471901938 326.942339059 361 307 361 c 0
 274.266533179 361 250.970867142 328.791243033 242 303 c 0
 236.488852449 284.629508163 228.626591841 275 205 275 c 0
 179.666666667 275 167 285.333333333 167 306 c 0
 167 337.333333333 182.833333333 367 214.5 395 c 0
 246.166666667 423 278 437 310 437 c 0
 330.666666667 437 356.666666667 427 388 407 c 0
 408.666666667 393.666666667 422.333333333 387 429 387 c 0
 434.333333333 387 441.666666667 394.666666667 451 410 c 2
 457 420 l 2
 464.333333333 431.333333333 476 437 492 437 c 0
 516.666666667 437 529 426.666666667 529 406 c 0
 529 388 504.666666667 352.666666667 456 300 c 0
 428 270 394.666666667 238.333333333 356 205 c 0
 304 160.333333333 268.333333333 128.333333333 249 109 c 1
 267.666666667 105.666666667 284.666666667 99.6666666667 300 91 c 0
 325.333333333 77 343 70 353 70 c 0
 403.072676391 70 440.156674574 123.316413269 454 166 c 0
 459.602956157 184.676520523 467.298789419 194 492 194 c 0
 516.666666667 194 529 183.666666667 529 163 c 0
 529 112.433438587 478.97510189 55.5430483512 445 29 c 0
 415.666666667 5.66666666667 384 -6 350 -6 c 0
 330 -6 306.5 2.33333333333 279.5 19 c 0
 252.5 35.6666666667 235 44 227 44 c 0
 203 44 184 33.3333333333 170 12 c 0
 162 0 150 -6 134 -6 c 0
 108.666666667 -6 96 4.33333333333 96 25 c 0
 96 34.3333333333 105 51.3333333333 123 76 c 0
 151.666666667 114.666666667 205.333333333 168.666666667 284 238 c 0
 328 276 361.333333333 306.333333333 384 329 c 1
EndSplineSet
EndChar

StartChar: zero
Encoding: 48 48 121
Width: 525
Flags: W
HStem: -11 68<228.117 336.136> 554 68<338.596 451.196>
VStem: 114 79<98.9666 330.967> 488 75<285.817 511.694>
LayerCount: 2
Fore
SplineSet
563 417 m 0
 563 266.557779024 487.194510104 126.833015632 402 52 c 0
 355.333333333 10 308.333333333 -11 261 -11 c 0
 211.666666667 -11 173.666666667 11.6666666667 147 57 c 0
 125 95 114 140.666666667 114 194 c 0
 114 341.966252855 190.062523262 483.13332518 272.5 557.5 c 0
 320.166666667 600.5 368.333333333 622 417 622 c 0
 466.333333333 622 504 599 530 553 c 0
 552 515 563 469.666666667 563 417 c 0
488 413 m 0
 488 482.906634339 463.169273417 554 401 554 c 0
 319.155196114 554 253.414760031 445.22265085 225 372 c 0
 203.666666667 316.666666667 193 261 193 205 c 0
 193 133.485350118 215.233611286 57 276 57 c 0
 307.333333333 57 339.833333333 75.6666666667 373.5 113 c 0
 431.289517468 177.083425311 488 297.846843146 488 413 c 0
EndSplineSet
Substitution2: "LMMono10-Italic-'zero' +A5wDtwO0A60DvQAA +A7wDtQAA +A8ADuwOsA7MDuQOx lookup 7 subtable" zero.slash
Substitution2: "LMMono10-Italic-'onum' +A6gDtwPGA7kDrAAA +A8ADsQO7A7kDrAPC +A7wDvwPBA8YDrgPC lookup 4 subtable" zero.taboldstyle
AlternateSubs2: "LMMono10-Italic-'aalt' +A6ADwQPMA8MDsgOxA8MDtwAA +A8MDtQAA +A8wDuwOx +A8QDsQAA +A7UDvQOxA7sDuwOxA7oDxAO5A7oDrAAA lookup 1 subtable" zero.taboldstyle zero.slash
EndChar

StartChar: Aacute
Encoding: 193 193 122
Width: 525
Flags: W
HStem: 0 68<36.261 102 181 225.418 316.153 378 456 504.273> 163 69<260 380> 666 76<332.925 359> 730 77<530 557.351>
VStem: 380 76<68 163 232 352.417> 392 72<352.417 521>
LayerCount: 2
Fore
SplineSet
530 730 m 2xd0
 382 672 l 2
 373.333333333 668 367 666 363 666 c 0
 341 666 330 680.666666667 330 710 c 0
 330 730.329396706 341.654126701 735.692409709 359 742 c 2xe0
 505 802 l 2
 513.666666667 805.333333333 520.666666667 807 526 807 c 0
 550 807 562 794.666666667 562 770 c 0
 562 752 551.333333333 738.666666667 530 730 c 2xd0
456 68 m 1xc8
 483.683149958 68 507 63.672312792 507 37 c 0
 507 12.3333333333 491.333333333 0 460 0 c 2
 359 0 l 2
 329 0 314 10.6666666667 314 32 c 0
 314 49.3333333333 321 60.6666666667 335 66 c 0
 339 67.3333333333 353.333333333 68 378 68 c 1
 380 163 l 1xc8
 227 163 l 1
 181 68 l 1
 206.829454552 68 228 62.0288821019 228 37 c 0
 228 12.3333333333 212.333333333 0 181 0 c 2
 80 0 l 2
 48.6666666667 0 33.3333333333 10.6666666667 34 32 c 0
 34 48.6666666667 41 59.6666666667 55 65 c 0
 59.6666666667 67 75.3333333333 68 102 68 c 1
 353 590 l 2
 366.585469218 620.082110411 380.010636888 625 416 625 c 0
 451.521016584 625 465.708006407 616.744115335 464 586 c 1xc4
 456 68 l 1xc8
392 521 m 1xc4
 260 232 l 1
 380 232 l 1xc8
 392 521 l 1xc4
EndSplineSet
EndChar

StartChar: aacute
Encoding: 225 225 123
Width: 525
Flags: W
HStem: -6 68<204.916 289.403 411.252 447.191> 371 68<275.922 362.071> 482 76<287.908 314> 545 77<485 511.641>
VStem: 116 75<73.5814 246.609>
LayerCount: 2
Fore
SplineSet
485 545 m 2xd8
 337 487 l 2
 328.333333333 483.666666667 322 482 318 482 c 0
 296 482 285 496.333333333 285 525 c 0
 285 546.143093276 297.907973082 549.953986541 314 558 c 1xe8
 460 617 l 2
 468.666666667 620.333333333 475.333333333 622 480 622 c 0
 504 622 516 609.666666667 516 585 c 0
 516 567 505.666666667 553.666666667 485 545 c 2xd8
447 425 m 0
 466.843686005 425 483 407.816991848 483 388 c 0
 483 385.333333333 481.666666667 378.333333333 479 367 c 2
 415 110 l 2
 412.333333333 99.3333333333 411 91.6666666667 411 87 c 0
 411 70.3333333333 416.666666667 62 428 62 c 0
 440.666666667 62 452.333333333 85.6666666667 463 133 c 0
 468.275317272 157.618147269 475.777783541 178 505 178 c 0
 530.333333333 178 543 167.333333333 543 146 c 0
 543 140 539.666666667 126 533 104 c 0
 510.333333333 30.6666666667 475 -6 427 -6 c 0
 389.01665954 -6 358.278234137 18.3273286228 346 44 c 1
 311.333333333 10.6666666667 274.666666667 -6 236 -6 c 0
 157.655380144 -6 116 67.3028574165 116 150 c 0
 116 213.333333333 135.333333333 275.333333333 174 336 c 0
 218 404.666666667 270 439 330 439 c 0
 360.666666667 439 387.666666667 427 411 403 c 1
 419 417.666666667 431 425 447 425 c 0
191 146 m 0
 191 110.829491429 202.35973843 62 237 62 c 0
 274.333333333 62 307.333333333 91 336 149 c 0
 361.333333333 199 374 244.666666667 374 286 c 0
 374 342.666666667 358.666666667 371 328 371 c 0
 291.333333333 371 258.333333333 341.666666667 229 283 c 0
 203.666666667 233 191 187.333333333 191 146 c 0
EndSplineSet
EndChar

StartChar: Abreve
Encoding: 258 258 124
Width: 525
Flags: W
HStem: 0 68<36.261 103 181 225.418 316.201 378 456 505.237> 163 69<260 380> 666 71<340.464 559.942>
VStem: 271 69<741.514 783.858> 378 78<68 163 232 376.5> 392 73<337.091 521> 562 67<746.992 784.469>
LayerCount: 2
Fore
SplineSet
629 754 m 0xf2
 629 715.885511509 590.698317436 689.510173462 558 679 c 0
 530.666666667 670.333333333 490.666666667 666 438 666 c 256
 357.9947865 666 339.974233225 666.960929882 300 688 c 0
 280.666666667 698 271 716 271 742 c 0
 271 771.333333333 282.666666667 786 306 786 c 0
 328 786 339.333333333 773 340 747 c 1
 356.666666667 740.333333333 389.666666667 737 439 737 c 0
 514.333333333 737 555.333333333 745.166666667 562 761.5 c 0
 568.666666667 777.833333333 579.333333333 786 594 786 c 0
 617.333333333 786 629 775.333333333 629 754 c 0xf2
456 68 m 1xfa
 484.409138424 68 508 64.0389681175 508 37 c 0
 508 12.3333333333 492 0 460 0 c 2
 360 0 l 2
 329.333333333 0 314 10.6666666667 314 32 c 0
 314 49.3333333333 321.333333333 60.6666666667 336 66 c 0
 339.333333333 67.3333333333 353.333333333 68 378 68 c 1xfa
 380 163 l 1
 227 163 l 1
 181 68 l 1
 206.251764875 68 228 62.3182549034 228 37 c 0
 228 12.3333333333 212.333333333 0 181 0 c 2
 80 0 l 2
 48.6666666667 0 33.3333333333 10.6666666667 34 32 c 0
 34 48.6666666667 41 59.6666666667 55 65 c 0
 59.6666666667 67 75.6666666667 68 103 68 c 1
 353 590 l 2
 367.51002482 619.987384627 380.757224753 625 417 625 c 0
 452.521016584 625 466.708006407 616.744115335 465 586 c 1xf6
 456 68 l 1xfa
392 521 m 1xf6
 260 232 l 1
 381 232 l 1
 392 521 l 1xf6
EndSplineSet
EndChar

StartChar: abreve
Encoding: 259 259 125
Width: 525
Flags: W
HStem: -6 68<204.916 289.528 412.093 447.794> 371 68<275.971 363.406> 493 71<297.309 517.493> 592 20G<251.333 274 543.667 562.333>
VStem: 116 75<73.5814 246.609> 228 69<568.063 609.942> 518 67<572.926 609.943>
LayerCount: 2
Fore
SplineSet
585 580 m 0
 585 541.51695841 545.649136088 515.042610311 514 506 c 0
 486.666666667 497.333333333 446.666666667 493 394 493 c 0
 314.569311804 493 296.643702928 493.134893196 257 514 c 0
 237.666666667 524 228 542.333333333 228 569 c 0
 228 597.666666667 239.666666667 612 263 612 c 0
 285 612 296.333333333 599 297 573 c 1
 313.666666667 567 346.333333333 564 395 564 c 0
 470.333333333 564 511.333333333 571.333333333 518 586 c 0
 525.333333333 603.333333333 536.333333333 612 551 612 c 0
 573.666666667 612 585 601.333333333 585 580 c 0
447 424 m 0
 466.817633672 424 484 407.84313587 484 388 c 0
 484 385.333333333 482.666666667 378.333333333 480 367 c 2
 416 110 l 2
 413.333333333 99.3333333333 412 91.6666666667 412 87 c 0
 412 70.3333333333 417.666666667 62 429 62 c 0
 441 62 452.333333333 85.6666666667 463 133 c 0
 468.275317272 157.618147269 475.777783541 178 505 178 c 0
 531 178 544 167.333333333 544 146 c 0
 544 140 540.666666667 126 534 104 c 0
 511.333333333 30.6666666667 476 -6 428 -6 c 0
 389.002662144 -6 359.304568609 18.4995768324 346 44 c 1
 311.333333333 10.6666666667 274.666666667 -6 236 -6 c 0
 157.655380144 -6 116 67.3028574165 116 150 c 0
 116 213.333333333 135.666666667 275.333333333 175 336 c 0
 218.333333333 404.666666667 270 439 330 439 c 0
 361.333333333 439 388.666666667 427 412 403 c 1
 420 417 431.666666667 424 447 424 c 0
191 146 m 0
 191 110.829491429 202.35973843 62 237 62 c 0
 274.333333333 62 307.666666667 91 337 149 c 0
 362.333333333 199 375 244.666666667 375 286 c 0
 375 342.666666667 359.333333333 371 328 371 c 0
 291.333333333 371 258.333333333 341.666666667 229 283 c 0
 203.666666667 233 191 187.333333333 191 146 c 0
EndSplineSet
EndChar

StartChar: Abreveacute
Encoding: 7854 7854 126
Width: 525
Flags: W
HStem: 0 68<36.261 103 181 225.418 316.201 378 456 505.268> 164 68<260 380> 606 20G<398.879 434.761> 667 72<340.464 560.975> 799 76<366.925 393> 863 77<564 591.351>
VStem: 271 69<743.063 784.942> 378 78<68 164 232 377> 392 73<337.455 522> 561 68<748.863 784.943>
LayerCount: 2
Fore
SplineSet
564 863 m 2xf640
 416 804 l 2
 407.333333333 800.666666667 401 799 397 799 c 0
 375 799 364 813.666666667 364 843 c 0
 364 863.329396706 375.654126701 868.692409709 393 875 c 2xfa40
 540 935 l 2
 548.666666667 938.333333333 555.333333333 940 560 940 c 0
 584 940 596 927.666666667 596 903 c 0
 596 885 585.333333333 871.666666667 564 863 c 2xf640
629 756 m 0
 629 717.203461026 589.22659956 690.037121287 558 680 c 0
 530.666666667 671.333333333 490.666666667 667 438 667 c 256
 357.9947865 667 339.974233225 667.960929882 300 689 c 0
 280.666666667 699 271 717.333333333 271 744 c 0
 271 772.666666667 282.666666667 787 306 787 c 0
 328 787 339.333333333 774 340 748 c 1
 356.666666667 742 389.666666667 739 439 739 c 0
 514.333333333 739 555 746.333333333 561 761 c 0
 568.333333333 778.333333333 579.333333333 787 594 787 c 0
 617.333333333 787 629 776.666666667 629 756 c 0
456 68 m 1xf340
 484.717790555 68 508 64.7234264089 508 37 c 0
 508 12.3333333333 492 0 460 0 c 2
 360 0 l 2
 329.333333333 0 314 10.6666666667 314 32 c 0
 314 49.3333333333 321.333333333 60.6666666667 336 66 c 0
 339.333333333 67.3333333333 353.333333333 68 378 68 c 1xf340
 380 164 l 1
 227 164 l 1
 181 68 l 1
 206.656211717 68 228 62.9736132619 228 37 c 0
 228 12.3333333333 212.333333333 0 181 0 c 2
 80 0 l 2
 48.6666666667 0 33.3333333333 10.6666666667 34 32 c 0
 34 48.6666666667 41 59.6666666667 55 65 c 0
 59.6666666667 67 75.6666666667 68 103 68 c 1
 353 591 l 2
 367.51002482 620.987384627 380.757224753 626 417 626 c 0
 452.521016584 626 466.708006407 617.744115335 465 587 c 1xf2c0
 456 68 l 1xf340
392 522 m 1xf2c0
 260 232 l 1
 381 232 l 1
 392 522 l 1xf2c0
EndSplineSet
EndChar

StartChar: abreveacute
Encoding: 7855 7855 127
Width: 525
Flags: W
HStem: -6 68<205.055 289.528 412.093 447.794> 372 68<275.971 363.406> 494 71<298.372 517.934> 594 20G<252.333 275 544.667 563.333> 625 76<324.925 351> 689 77<522 549.5>
VStem: 116 75<73.6074 247.023> 229 69<569.514 611.858> 519.5 66.5<575.055 612.242>
LayerCount: 2
Fore
SplineSet
522 689 m 2xf780
 374 631 l 2
 365.333333333 627 359 625 355 625 c 0
 333 625 322 639.666666667 322 669 c 0
 322 689.329396706 333.654126701 694.692409709 351 701 c 2xfb80
 497 761 l 2
 505.666666667 764.333333333 512.333333333 766 517 766 c 0
 541.666666667 766 554 753.666666667 554 729 c 0
 554 711 543.333333333 697.666666667 522 689 c 2xf780
586 582 m 0
 586 543.885511509 547.698317436 517.510173462 515 507 c 0
 487.666666667 498.333333333 447.666666667 494 395 494 c 0
 315.838596905 494 297.768182064 495.069377861 258 516 c 0
 238.666666667 526 229 544 229 570 c 0
 229 599.333333333 240.666666667 614 264 614 c 0
 286 614 297.333333333 601 298 575 c 1
 314.666666667 568.333333333 347.333333333 565 396 565 c 0
 471.333333333 565 512.5 573.166666667 519.5 589.5 c 0
 526.5 605.833333333 537.333333333 614 552 614 c 0
 574.666666667 614 586 603.333333333 586 582 c 0
447 426 m 0
 466.817633672 426 484 408.816991848 484 389 c 0
 484 386.333333333 482.666666667 379.333333333 480 368 c 2
 416 110 l 2
 413.333333333 99.3333333333 412 91.6666666667 412 87 c 0
 412 70.3333333333 417.666666667 62 429 62 c 0
 441 62 452.333333333 85.6666666667 463 133 c 0
 468.315138564 157.803979963 474.938006787 178 505 178 c 0
 531 178 544 167.333333333 544 146 c 0
 544 140 540.666666667 126 534 104 c 0
 511.333333333 30.6666666667 476 -6 428 -6 c 0
 389.002662144 -6 359.304568609 18.4995768324 346 44 c 1
 311.333333333 10.6666666667 274.666666667 -6 236 -6 c 0
 158.543901115 -6 116 67.419906392 116 150 c 0
 116 213.333333333 135.666666667 275.666666667 175 337 c 0
 218.333333333 405.666666667 270 440 330 440 c 0
 361.333333333 440 388.666666667 428 412 404 c 1
 420 418.666666667 431.666666667 426 447 426 c 0
191 146 m 0
 191 110.829491429 202.35973843 62 237 62 c 0
 274.333333333 62 307.666666667 91.3333333333 337 150 c 0
 362.333333333 200 375 245.666666667 375 287 c 0
 375 343.666666667 359.333333333 372 328 372 c 0
 291.333333333 372 258.333333333 342.666666667 229 284 c 0
 203.666666667 233.333333333 191 187.333333333 191 146 c 0
EndSplineSet
EndChar

StartChar: Abrevedotbelow
Encoding: 7862 7862 128
Width: 525
Flags: W
HStem: -200 96<187.026 262.381> -2 69<36.5 103 181 225.157 316.201 378 456 505.262> 162 69<260 380> 666 71<340.464 559.942>
VStem: 176 97<-189.382 -115> 271 69<741.514 783.858> 378 78<67 162 231 375.5> 392 73<336.091 520> 562 67<746.992 784.469>
LayerCount: 2
Fore
SplineSet
629 754 m 0xf480
 629 715.885511509 590.698317436 689.510173462 558 679 c 0
 530.666666667 670.333333333 490.666666667 666 438 666 c 256
 357.9947865 666 339.974233225 666.960929882 300 688 c 0
 280.666666667 698 271 716 271 742 c 0
 271 771.333333333 282.666666667 786 306 786 c 0
 328 786 339.333333333 773 340 747 c 1
 356.666666667 740.333333333 389.666666667 737 439 737 c 0
 514.333333333 737 555.333333333 745.166666667 562 761.5 c 0
 568.666666667 777.833333333 579.333333333 786 594 786 c 0
 617.333333333 786 629 775.333333333 629 754 c 0xf480
456 67 m 1xf280
 484.664362043 67 508 62.4337274804 508 35 c 0
 508 10.3333333333 492 -2 460 -2 c 2
 360 -2 l 2
 329.333333333 -2 314 8.66666666667 314 30 c 0
 314 48 321.333333333 59.6666666667 336 65 c 0
 339.333333333 66.3333333333 353.333333333 67 378 67 c 1xf280
 380 162 l 1
 227 162 l 1
 181 67 l 1
 207.037619612 67 228 61.2524664338 228 35 c 0
 228 10.3333333333 212.333333333 -2 181 -2 c 2
 80 -2 l 2
 48.6666666667 -2 33.3333333333 8.66666666667 34 30 c 0
 34 46.6666666667 41 57.6666666667 55 63 c 0
 59.6666666667 65.6666666667 75.6666666667 67 103 67 c 1
 353 589 l 2
 367.51002482 618.987384627 380.757224753 624 417 624 c 0
 452.443818429 624 466.700794412 616.614299414 465 586 c 1xf180
 456 67 l 1xf280
273 -148 m 0xf880
 273 -175.739476674 248.738559783 -200 221 -200 c 0
 195.318851658 -200 176 -181.009936106 176 -155 c 256
 176 -128.619908991 201.647061594 -104 228 -104 c 0
 258 -104 273 -118.666666667 273 -148 c 0xf880
392 520 m 1xf180
 260 231 l 1
 381 231 l 1
 392 520 l 1xf180
EndSplineSet
EndChar

StartChar: abrevedotbelow
Encoding: 7863 7863 129
Width: 525
Flags: W
HStem: -200 96<188.026 262.593> -8 68<204.923 289.528 412.093 447.794> 370 69<275.971 363.406> 492 71<297.372 516.934> 592 20G<251.333 274 543.667 562.333>
VStem: 116 75<71.3093 245.421> 177 96<-190.098 -115.25> 228 69<567.514 609.858> 518.5 66.5<573.055 610.242>
LayerCount: 2
Fore
SplineSet
585 580 m 0xf980
 585 541.885511509 546.698317436 515.510173462 514 505 c 0
 486.666666667 496.333333333 446.666666667 492 394 492 c 0
 314.838596905 492 296.768182064 493.069377861 257 514 c 0
 237.666666667 524 228 542 228 568 c 0
 228 597.333333333 239.666666667 612 263 612 c 0
 285 612 296.333333333 599 297 573 c 1
 313.666666667 566.333333333 346.333333333 563 395 563 c 0
 470.333333333 563 511.5 571.166666667 518.5 587.5 c 0
 525.5 603.833333333 536.333333333 612 551 612 c 0
 573.666666667 612 585 601.333333333 585 580 c 0xf980
447 424 m 0
 466.817633672 424 484 406.816991848 484 387 c 0
 484 384.333333333 482.666666667 377.333333333 480 366 c 2
 416 108 l 2
 413.333333333 98 412 90.3333333333 412 85 c 0
 412 68.3333333333 417.666666667 60 429 60 c 0
 441 60 452.333333333 84 463 132 c 0
 468.540370445 156.008271927 475.264360135 176 505 176 c 0
 531 176 544 165.666666667 544 145 c 0
 544 138.333333333 540.666666667 124 534 102 c 0
 511.333333333 28.6666666667 476 -8 428 -8 c 0
 389.002662144 -8 359.304568609 16.4995768324 346 42 c 1
 311.333333333 8.66666666667 274.666666667 -8 236 -8 c 0
 158.085393357 -8 116 65.6646993476 116 149 c 0xfc80
 116 212.333333333 135.666666667 274.333333333 175 335 c 0
 218.333333333 404.333333333 270 439 330 439 c 0
 361.333333333 439 388.666666667 426.666666667 412 402 c 1
 420 416.666666667 431.666666667 424 447 424 c 0
273 -149 m 0xfa80
 273 -175.917189048 249.230624687 -200 222 -200 c 0
 196.318851658 -200 177 -181.009936106 177 -155 c 256
 177 -128.619908991 202.647061594 -104 229 -104 c 0
 258.333333333 -104 273 -119 273 -149 c 0xfa80
191 145 m 0xfc80
 191 109.109931127 202.075413164 60 237 60 c 0
 274.333333333 60 307.666666667 89.3333333333 337 148 c 0
 362.333333333 198 375 243.666666667 375 285 c 0
 375 341.666666667 359.333333333 370 328 370 c 0
 291.333333333 370 258.333333333 340.666666667 229 282 c 0
 203.666666667 231.333333333 191 185.666666667 191 145 c 0xfc80
EndSplineSet
EndChar

StartChar: Abrevegrave
Encoding: 7856 7856 130
Width: 525
Flags: W
HStem: 0 68<36.261 103 181 225.418 316.201 378 456 505.268> 164 68<260 380> 606 20G<398.879 434.761> 667 72<340.464 560.975>
VStem: 271 69<743.063 784.942> 378 78<68 164 232 314.857> 392 73<337.455 522> 561 68<748.863 784.943>
LayerCount: 2
Fore
SplineSet
585 856 m 0xfb
 585 834.822412631 556.455517326 799 528 799 c 0
 524.666666667 799 519.333333333 801 512 805 c 2
 392 863 l 2
 380.666666667 869 375 877 375 887 c 0
 375 892.333333333 376.666666667 898.333333333 380 905 c 0
 391.333333333 928.333333333 408.666666667 940 432 940 c 0
 437.333333333 940 443.333333333 938.333333333 450 935 c 2
 568 875 l 2
 579.333333333 869 585 862.666666667 585 856 c 0xfb
629 756 m 0
 629 717.203461026 589.22659956 690.037121287 558 680 c 0
 530.666666667 671.333333333 490.666666667 667 438 667 c 256
 357.9947865 667 339.974233225 667.960929882 300 689 c 0
 280.666666667 699 271 717.333333333 271 744 c 0
 271 772.666666667 282.666666667 787 306 787 c 0
 328 787 339.333333333 774 340 748 c 1
 356.666666667 742 389.666666667 739 439 739 c 0
 514.333333333 739 555 746.333333333 561 761 c 0
 568.333333333 778.333333333 579.333333333 787 594 787 c 0
 617.333333333 787 629 776.666666667 629 756 c 0
456 68 m 1xfd
 484.717790555 68 508 64.7234264089 508 37 c 0
 508 12.3333333333 492 0 460 0 c 2
 360 0 l 2
 329.333333333 0 314 10.6666666667 314 32 c 0
 314 49.3333333333 321.333333333 60.6666666667 336 66 c 0
 339.333333333 67.3333333333 353.333333333 68 378 68 c 1xfd
 380 164 l 1
 227 164 l 1
 181 68 l 1
 206.656211717 68 228 62.9736132619 228 37 c 0
 228 12.3333333333 212.333333333 0 181 0 c 2
 80 0 l 2
 48.6666666667 0 33.3333333333 10.6666666667 34 32 c 0
 34 48.6666666667 41 59.6666666667 55 65 c 0
 59.6666666667 67 75.6666666667 68 103 68 c 1
 353 591 l 2
 367.51002482 620.987384627 380.757224753 626 417 626 c 0
 452.521016584 626 466.708006407 617.744115335 465 587 c 1xfb
 456 68 l 1xfd
392 522 m 1xfb
 260 232 l 1
 381 232 l 1
 392 522 l 1xfb
EndSplineSet
EndChar

StartChar: abrevegrave
Encoding: 7857 7857 131
Width: 525
Flags: W
HStem: -6 68<205.055 289.528 412.093 447.794> 372 68<275.971 363.406> 494 71<298.372 517.934> 594 20G<252.333 275 544.667 563.333>
VStem: 116 75<73.6074 247.023> 229 69<569.514 611.858> 519.5 66.5<575.055 612.242>
LayerCount: 2
Fore
SplineSet
542 682 m 0
 542 662.402196717 513.728679393 625 486 625 c 0
 482 625 476.333333333 627 469 631 c 2
 350 689 l 2
 338.666666667 695 333 703 333 713 c 0
 333 718.333333333 334.666666667 724.333333333 338 731 c 0
 349.333333333 754.333333333 366.333333333 766 389 766 c 0
 394.333333333 766 400.666666667 764.333333333 408 761 c 2
 525 701 l 2
 536.333333333 695.666666667 542 689.333333333 542 682 c 0
586 582 m 0
 586 543.885511509 547.698317436 517.510173462 515 507 c 0
 487.666666667 498.333333333 447.666666667 494 395 494 c 0
 315.838596905 494 297.768182064 495.069377861 258 516 c 0
 238.666666667 526 229 544 229 570 c 0
 229 599.333333333 240.666666667 614 264 614 c 0
 286 614 297.333333333 601 298 575 c 1
 314.666666667 568.333333333 347.333333333 565 396 565 c 0
 471.333333333 565 512.5 573.166666667 519.5 589.5 c 0
 526.5 605.833333333 537.333333333 614 552 614 c 0
 574.666666667 614 586 603.333333333 586 582 c 0
447 426 m 0
 466.817633672 426 484 408.816991848 484 389 c 0
 484 386.333333333 482.666666667 379.333333333 480 368 c 2
 416 110 l 2
 413.333333333 99.3333333333 412 91.6666666667 412 87 c 0
 412 70.3333333333 417.666666667 62 429 62 c 0
 441 62 452.333333333 85.6666666667 463 133 c 0
 468.315138564 157.803979963 474.938006787 178 505 178 c 0
 531 178 544 167.333333333 544 146 c 0
 544 140 540.666666667 126 534 104 c 0
 511.333333333 30.6666666667 476 -6 428 -6 c 0
 389.002662144 -6 359.304568609 18.4995768324 346 44 c 1
 311.333333333 10.6666666667 274.666666667 -6 236 -6 c 0
 158.543901115 -6 116 67.419906392 116 150 c 0
 116 213.333333333 135.666666667 275.666666667 175 337 c 0
 218.333333333 405.666666667 270 440 330 440 c 0
 361.333333333 440 388.666666667 428 412 404 c 1
 420 418.666666667 431.666666667 426 447 426 c 0
191 146 m 0
 191 110.829491429 202.35973843 62 237 62 c 0
 274.333333333 62 307.666666667 91.3333333333 337 150 c 0
 362.333333333 200 375 245.666666667 375 287 c 0
 375 343.666666667 359.333333333 372 328 372 c 0
 291.333333333 372 258.333333333 342.666666667 229 284 c 0
 203.666666667 233.333333333 191 187.333333333 191 146 c 0
EndSplineSet
EndChar

StartChar: Abrevehookabove
Encoding: 7858 7858 132
Width: 525
Flags: W
HStem: 0 68<36.261 103 181 225.418 316.201 378 456 505.268> 164 68<260 380> 606 20G<398.879 434.761> 668 71<340.464 559.942> 953 63<453.67 537.305>
VStem: 271 69<743.514 785.858> 378 78<68 164 232 241> 388 65<910.282 933 936 947.995> 392 73<337.455 522> 398 54<901.869 932.564> 562 67<748.992 786.469>
LayerCount: 2
Fore
SplineSet
389 940 m 1xfd20
 401.381328927 983.334651245 447.183235976 1016 501 1016 c 2
 504 1016 l 2
 569.333333333 1016 602 992 602 944 c 2
 602 943 l 2
 602 938.333333333 601.333333333 932.666666667 600 926 c 1
 600 925 l 1
 594 901 578.666666667 883.333333333 554 872 c 0
 516.666666667 854 496.333333333 837.333333333 493 822 c 0
 488.310936419 799.726947992 489.407120399 795.110908517 476.5 786 c 0
 470.833333333 782 464.666666667 780 458 780 c 0
 437.596819091 780 427 793.71006603 427 812 c 0
 427 815.333333333 427.333333333 818 428 820 c 2
 432 836 l 1
 440 872.666666667 471.666666667 903.666666667 527 929 c 0
 534.333333333 933 538 936.666666667 538 940 c 1
 539 943 l 1
 536.061453172 951.815640483 518.944456669 953 501 953 c 0
 477.666666667 953 461.666666667 945.666666667 453 931 c 1
 453 928 l 2xfd20
 452.333333333 926.666666667 452 925.666666667 452 925 c 0
 452 914.328020021 435.311072804 900 421 900 c 256
 413.666666667 900 406 903 398 909 c 1
 398 910 l 1xfc60
 391.333333333 916 388 923.666666667 388 933 c 1
 389 936 l 1
 389 940 l 1xfd20
629 756 m 0
 629 717.885511509 590.698317436 691.510173462 558 681 c 0
 530.666666667 672.333333333 490.666666667 668 438 668 c 256
 357.9947865 668 339.974233225 668.960929882 300 690 c 0
 280.666666667 700 271 718 271 744 c 0
 271 773.333333333 282.666666667 788 306 788 c 0
 328 788 339.333333333 775 340 749 c 1
 356.666666667 742.333333333 389.666666667 739 439 739 c 0
 514.333333333 739 555.333333333 747.166666667 562 763.5 c 0
 568.666666667 779.833333333 579.333333333 788 594 788 c 0
 617.333333333 788 629 777.333333333 629 756 c 0
456 68 m 1xfe20
 484.717790555 68 508 64.7234264089 508 37 c 0
 508 12.3333333333 492 0 460 0 c 2
 360 0 l 2
 329.333333333 0 314 10.6666666667 314 32 c 0
 314 49.3333333333 321.333333333 60.6666666667 336 66 c 0
 339.333333333 67.3333333333 353.333333333 68 378 68 c 1xfe20
 380 164 l 1
 227 164 l 1
 181 68 l 1
 206.656211717 68 228 62.9736132619 228 37 c 0
 228 12.3333333333 212.333333333 0 181 0 c 2
 80 0 l 2
 48.6666666667 0 33.3333333333 10.6666666667 34 32 c 0
 34 48.6666666667 41 59.6666666667 55 65 c 0
 59.6666666667 67 75.6666666667 68 103 68 c 1
 353 591 l 2
 367.51002482 620.987384627 380.757224753 626 417 626 c 0
 452.521016584 626 466.708006407 617.744115335 465 587 c 1xfca0
 456 68 l 1xfe20
392 522 m 1xfca0
 260 232 l 1
 381 232 l 1
 392 522 l 1xfca0
EndSplineSet
EndChar

StartChar: abrevehookabove
Encoding: 7859 7859 133
Width: 525
Flags: W
HStem: -6 68<204.923 289.528 412.093 447.794> 372 69<275.971 363.406> 494 72<298.372 518.474> 594 20G<252.333 275 544.667 563.333> 779 63<411.411 494.305>
VStem: 116 75<73.3093 247.421> 229 69<570.063 611.942> 346 65<736.282 759> 496 61<751 770> 519 67<574.881 611.943>
LayerCount: 2
Fore
SplineSet
347 766 m 1xff80
 359.251508141 808.880278493 405.031894781 842 458 842 c 2
 461 842 l 2
 526.333333333 842 559 818 559 770 c 2
 559 769 l 2
 559 764.333333333 558.333333333 758.666666667 557 752 c 1
 557 751 l 1
 551 727 535.666666667 709.333333333 511 698 c 0
 473.666666667 680.666666667 453.333333333 664 450 648 c 0
 446 629 446 629 446 629 c 1
 442.449852042 617.166173472 430.664429041 606 416 606 c 0
 395.045233544 606 384 619.808968465 384 638 c 0
 384 641.333333333 384.666666667 644 386 646 c 2
 389 663 l 1
 397.666666667 699 429.333333333 729.666666667 484 755 c 0
 492 759 496 762.666666667 496 766 c 2
 496 769 l 1
 493.061453172 777.815640483 475.944456669 779 458 779 c 0
 435.333333333 779 419.666666667 771.666666667 411 757 c 1
 411 755 l 2
 411 752.438944674 409 748.560515354 409 746 c 0
 402.333333333 732.666666667 392.333333333 726 379 726 c 0
 371 726 363.333333333 729 356 735 c 1
 356 736 l 1
 349.333333333 742 346 749.666666667 346 759 c 1
 347 762 l 1
 347 766 l 1xff80
586 582 m 0xff40
 586 543.245609539 546.209482434 517.031619354 515 507 c 0
 487.666666667 498.333333333 447.666666667 494 395 494 c 0
 315.838596905 494 297.768182064 495.069377861 258 516 c 0
 238.666666667 526 229 544.333333333 229 571 c 0
 229 599.666666667 240.666666667 614 264 614 c 0
 286 614 297.333333333 601 298 575 c 1
 314.666666667 569 347.333333333 566 396 566 c 0
 471.333333333 566 512.333333333 573.333333333 519 588 c 0
 526.333333333 605.333333333 537.333333333 614 552 614 c 0
 574.666666667 614 586 603.333333333 586 582 c 0xff40
447 426 m 0
 466.817633672 426 484 408.816991848 484 389 c 0
 484 386.333333333 482.666666667 379.333333333 480 368 c 2
 416 110 l 2
 413.333333333 99.3333333333 412 91.6666666667 412 87 c 0
 412 70.3333333333 417.666666667 62 429 62 c 0
 441 62 452.333333333 86 463 134 c 0
 468.540370445 158.008271927 475.264360135 178 505 178 c 0
 531 178 544 167.666666667 544 147 c 0
 544 140.333333333 540.666666667 126 534 104 c 0
 511.333333333 30.6666666667 476 -6 428 -6 c 0
 389.002662144 -6 359.304568609 18.4995768324 346 44 c 1
 311.333333333 10.6666666667 274.666666667 -6 236 -6 c 0
 158.085393357 -6 116 67.6646993476 116 151 c 0
 116 214.333333333 135.666666667 276.333333333 175 337 c 0
 218.333333333 406.333333333 270 441 330 441 c 0
 361.333333333 441 388.666666667 428.666666667 412 404 c 1
 420 418.666666667 431.666666667 426 447 426 c 0
191 147 m 0
 191 111.109931127 202.075413164 62 237 62 c 0
 274.333333333 62 307.666666667 91.3333333333 337 150 c 0
 362.333333333 200 375 245.666666667 375 287 c 0
 375 343.666666667 359.333333333 372 328 372 c 0
 291.333333333 372 258.333333333 342.666666667 229 284 c 0
 203.666666667 233.333333333 191 187.666666667 191 147 c 0
EndSplineSet
EndChar

StartChar: Abrevetilde
Encoding: 7860 7860 134
Width: 525
Flags: W
HStem: 0 68<36.261 103 181 226.363 316.201 379 457 505.363> 164 68<260 381> 606 20G<398.879 434.99> 667 72<340.455 561.936> 819 72<504.701 573.967> 874 72<389.653 459.673>
VStem: 271 69<743.063 784.858> 381 76<68 164 232 352.833> 393 73<352.833 522> 562 67<748.934 784.943>
LayerCount: 2
Fore
SplineSet
632 946 m 0xf640
 650.484300339 946 667 928.457514493 667 910 c 0
 667 904.666666667 665.333333333 899.666666667 662 895 c 0
 656.666666667 886.333333333 638.333333333 871.666666667 607 851 c 0
 573 829.666666667 544.666666667 819 522 819 c 0xfa40
 502 819 483.166666667 828.166666667 465.5 846.5 c 0
 447.833333333 864.833333333 438.666666667 874 438 874 c 0xf640
 423.333333333 874 398 860.333333333 362 833 c 0
 350 823.666666667 340 819 332 819 c 0xfa40
 313.463594996 819 299 836.542485507 299 855 c 0
 299 866.333333333 305 876 317 884 c 0
 369 925.333333333 411 946 443 946 c 0xf640
 468.333333333 946 491.666666667 931.333333333 513 902 c 0
 518.333333333 894.666666667 523 891 527 891 c 0xfa40
 539.666666667 891 566 905.333333333 606 934 c 0
 617.333333333 942 626 946 632 946 c 0xf640
629 756 m 0
 629 717.626465354 589.386485342 690.128828447 559 680 c 0
 531 671.333333333 490.666666667 667 438 667 c 256
 357.65115282 667 340.135337281 667.876138273 300 689 c 0
 280.666666667 699 271 717.333333333 271 744 c 0
 271 772.666666667 283 787 307 787 c 0
 328.333333333 787 339.333333333 774 340 748 c 1
 356.666666667 742 389.666666667 739 439 739 c 0
 514.333333333 739 555.333333333 746.333333333 562 761 c 0
 569.333333333 778.333333333 580.333333333 787 595 787 c 0
 617.666666667 787 629 776.666666667 629 756 c 0
457 68 m 1xf340
 485.600472848 68 508 64.7332626903 508 37 c 0
 508 12.3333333333 492.333333333 0 461 0 c 2
 360 0 l 2
 329.333333333 0 314 10.6666666667 314 32 c 0
 314 49.3333333333 321.333333333 60.6666666667 336 66 c 0
 340 67.3333333333 354.333333333 68 379 68 c 1
 381 164 l 1xf340
 227 164 l 1
 181 68 l 1
 207.289172693 68 229 62.7472881268 229 37 c 0
 229 12.3333333333 213 0 181 0 c 2
 80 0 l 2
 48.6666666667 0 33.3333333333 10.6666666667 34 32 c 0
 34 48.6666666667 41 59.6666666667 55 65 c 0
 59.6666666667 67 75.6666666667 68 103 68 c 1
 353 591 l 2
 367.51002482 620.987384627 380.757224753 626 417 626 c 0
 452.979796551 626 466 617.602478433 466 587 c 2xf2c0
 457 68 l 1xf340
393 522 m 1xf2c0
 260 232 l 1
 381 232 l 1xf340
 393 522 l 1xf2c0
EndSplineSet
EndChar

StartChar: abrevetilde
Encoding: 7861 7861 135
Width: 525
Flags: W
HStem: -6 68<205.146 289.777 412.093 448.312> 372 68<276.547 363.071> 494 71<297.796 517.937> 594 20G<253 275.667 544.667 563.667> 645 73<461.941 532.686> 700 72<347.45 417.673>
VStem: 116 75<73.6074 247.023> 229 69<569.514 611.858> 520 67<575.17 612.469>
LayerCount: 2
Fore
SplineSet
590 772 m 0xf780
 607.649114002 772 624 753.902614335 624 736 c 0
 624 730.666666667 622.333333333 725.666666667 619 721 c 0
 613.666666667 712.333333333 595.333333333 698 564 678 c 0
 530 656 501.666666667 645 479 645 c 0xfb80
 459.666666667 645 441.166666667 654.166666667 423.5 672.5 c 0
 405.833333333 690.833333333 396.666666667 700 396 700 c 0xf780
 380.666666667 700 355.333333333 686.333333333 320 659 c 0
 308 649.666666667 298 645 290 645 c 0xfb80
 271.463594996 645 257 662.542485507 257 681 c 0
 257 692.333333333 263 702 275 710 c 0
 327 751.333333333 369 772 401 772 c 0xf780
 426.333333333 772 449.666666667 757.333333333 471 728 c 0
 475.666666667 721.333333333 480 718 484 718 c 0xfb80
 496.666666667 718 523.333333333 732 564 760 c 0
 574.666666667 768 583.333333333 772 590 772 c 0xf780
587 582 m 0
 587 544.972092841 548.455468368 517.432114833 516 507 c 0
 488 498.333333333 448 494 396 494 c 0
 314.815303738 494 299.339756393 495.330121804 258 516 c 0
 238.666666667 526 229 544 229 570 c 0
 229 599.333333333 241 614 265 614 c 0
 286.333333333 614 297.333333333 601 298 575 c 1
 314.666666667 568.333333333 347.666666667 565 397 565 c 0
 472.333333333 565 513.333333333 573.166666667 520 589.5 c 0
 526.666666667 605.833333333 537.333333333 614 552 614 c 0
 575.333333333 614 587 603.333333333 587 582 c 0
448 426 m 0
 467.843686005 426 484 408.816991848 484 389 c 0
 484 386.333333333 482.666666667 379.333333333 480 368 c 2
 416 110 l 2
 413.333333333 99.3333333333 412 91.6666666667 412 87 c 0
 412 70.3333333333 417.666666667 62 429 62 c 0
 441.666666667 62 453.333333333 85.6666666667 464 133 c 0
 469.315138564 157.803979963 475.938006787 178 506 178 c 0
 531.333333333 178 544 167.333333333 544 146 c 0
 544 140 540.666666667 126 534 104 c 0
 512 30.6666666667 476.666666667 -6 428 -6 c 0
 389.002662144 -6 359.304568609 18.4995768324 346 44 c 1
 312 10.6666666667 275.333333333 -6 236 -6 c 256
 158.543901115 -6 116 67.419906392 116 150 c 0
 116 213.333333333 135.666666667 275.666666667 175 337 c 0
 219 405.666666667 271 440 331 440 c 0
 361.666666667 440 388.666666667 428 412 404 c 1
 420 418.666666667 432 426 448 426 c 0
191 146 m 0
 191 110.829491429 202.791460215 62 237 62 c 0
 274.333333333 62 307.666666667 91.3333333333 337 150 c 0
 362.333333333 200 375 245.666666667 375 287 c 0
 375 343.666666667 359.666666667 372 329 372 c 0
 291.666666667 372 258.333333333 342.666666667 229 284 c 0
 203.666666667 233.333333333 191 187.333333333 191 146 c 0
EndSplineSet
EndChar

StartChar: Acaron
Encoding: 461 461 136
Width: 525
Flags: W
HStem: 0 68<36.261 103 181 225.418 316.153 378 456 504.328> 163 69<260 380>
VStem: 380 76<68 163 232 352.417> 392 73<352.417 521>
LayerCount: 2
Fore
SplineSet
577 706 m 2xc0
 568 701 l 1
 444 658 l 2
 436.666666667 655.333333333 429.666666667 655.333333333 423 658 c 2
 313 701 l 1
 301 707 295 716 295 728 c 256
 295 750.18613625 319.010906686 771.055615681 343 764 c 2
 444 732 l 1
 556 764 l 2
 560.666666667 765.333333333 564.666666667 766 568 766 c 0
 580.666666667 766 589 759.333333333 593 746 c 0
 598.333333333 728.666666667 593 715.333333333 577 706 c 2xc0
456 68 m 1xe0
 484.24525736 68 507 64.1844354299 507 37 c 0
 507 12.3333333333 491.333333333 0 460 0 c 2
 359 0 l 2
 329 0 314 10.6666666667 314 32 c 0
 314 49.3333333333 321 60.6666666667 335 66 c 0
 339 67.3333333333 353.333333333 68 378 68 c 1
 380 163 l 1xe0
 227 163 l 1
 181 68 l 1
 206.251764875 68 228 62.3182549034 228 37 c 0
 228 12.3333333333 212.333333333 0 181 0 c 2
 80 0 l 2
 48.6666666667 0 33.3333333333 10.6666666667 34 32 c 0
 34 48.6666666667 41 59.6666666667 55 65 c 0
 59.6666666667 67 75.6666666667 68 103 68 c 1
 353 590 l 2
 367.797255573 619.594511146 380.743866596 624 417 624 c 0
 451.360236052 624 465 617.035735851 465 586 c 2xd0
 456 68 l 1xe0
392 521 m 1xd0
 260 232 l 1
 380 232 l 1xe0
 392 521 l 1xd0
EndSplineSet
EndChar

StartChar: acaron
Encoding: 462 462 137
Width: 525
Flags: W
HStem: -6 68<204.916 289.528 412.592 447.312> 371 68<275.971 362.071> 601 20G<287.667 300 527 540>
VStem: 116 75<73.5814 246.609>
LayerCount: 2
Fore
SplineSet
537 560 m 2
 409 486 l 2
 396.333333333 479.333333333 385 479.333333333 375 486 c 2
 272 561 l 2
 261.333333333 568.333333333 257.666666667 578.333333333 261 591 c 0
 266.333333333 611 278.333333333 621 297 621 c 0
 303 621 308.666666667 619.333333333 314 616 c 2
 403 556 l 1
 512 617 l 2
 518 620.333333333 524 622 530 622 c 0
 550 622 559 611.333333333 557 590 c 0
 556.333333333 577.333333333 549.666666667 567.333333333 537 560 c 2
447 425 m 0
 466.843686005 425 483 407.816991848 483 388 c 0
 483 385.333333333 481.666666667 378.333333333 479 367 c 2
 415 110 l 2
 413 99.3333333333 412 91.6666666667 412 87 c 0
 412 70.3333333333 417.333333333 62 428 62 c 0
 440.666666667 62 452.333333333 85.6666666667 463 133 c 0
 468.275317272 157.618147269 475.777783541 178 505 178 c 0
 530.333333333 178 543 167.333333333 543 146 c 0
 543 140 539.666666667 126 533 104 c 0
 511 30.6666666667 475.666666667 -6 427 -6 c 0
 388.917194429 -6 359.066154125 18.9565379268 346 44 c 1
 311.333333333 10.6666666667 274.666666667 -6 236 -6 c 0
 157.655380144 -6 116 67.3028574165 116 150 c 0
 116 213.333333333 135.666666667 275.333333333 175 336 c 0
 218.333333333 404.666666667 270 439 330 439 c 0
 360.666666667 439 387.666666667 427 411 403 c 1
 419.666666667 417.666666667 431.666666667 425 447 425 c 0
191 146 m 0
 191 110.829491429 202.35973843 62 237 62 c 0
 274.333333333 62 307.666666667 91 337 149 c 0
 361.666666667 199 374 244.666666667 374 286 c 0
 374 342.666666667 358.666666667 371 328 371 c 0
 291.333333333 371 258.333333333 341.666666667 229 283 c 0
 203.666666667 233 191 187.333333333 191 146 c 0
EndSplineSet
EndChar

StartChar: Acircumflex
Encoding: 194 194 138
Width: 525
Flags: W
HStem: 0 68<36.261 102 181 225.418 316.153 378 456 504.332> 163 69<260 380>
VStem: 380 76<68 163 232 352.417> 392 73<352.417 521>
LayerCount: 2
Fore
SplineSet
536 658 m 2xe0
 434 691 l 1
 323 658 l 2
 319 656.666666667 315 656 311 656 c 0
 299 656 291 662.666666667 287 676 c 0
 281 693.333333333 286 706.666666667 302 716 c 2
 311 721 l 1
 435 764 l 2
 441 766 448 766 456 764 c 1
 566 721 l 2
 578.666666667 715 585 706 585 694 c 0
 585 672.600595306 559.419659034 651.11186499 536 658 c 2xe0
456 68 m 1
 484.28537598 68 507 64.0633550414 507 37 c 0
 507 12.3333333333 491.333333333 0 460 0 c 2
 359 0 l 2
 329 0 314 10.6666666667 314 32 c 0
 314 49.3333333333 321 60.6666666667 335 66 c 0
 339 67.3333333333 353.333333333 68 378 68 c 1
 380 163 l 1xe0
 227 163 l 1
 181 68 l 1
 206.251764875 68 228 62.3182549034 228 37 c 0
 228 12.3333333333 212.333333333 0 181 0 c 2
 80 0 l 2
 48.6666666667 0 33.3333333333 10.6666666667 34 32 c 0
 34 48.6666666667 41 59.6666666667 55 65 c 0
 59.6666666667 67 75.3333333333 68 102 68 c 1
 353 590 l 2
 367.63117251 619.26234502 380.294386721 624 416 624 c 0
 451.89930955 624 465 616.476175068 465 586 c 2xd0
 456 68 l 1
392 521 m 1xd0
 260 232 l 1
 380 232 l 1xe0
 392 521 l 1xd0
EndSplineSet
EndChar

StartChar: acircumflex
Encoding: 226 226 139
Width: 525
Flags: W
HStem: -6 68<204.916 289.403 411.252 447.191> 371 68<275.922 362.071>
VStem: 116 75<73.5814 246.609>
LayerCount: 2
Fore
SplineSet
538 512 m 0
 533.650214745 492.425966355 511.973504813 473.249320981 486 487 c 1
 397 547 l 1
 289 487 l 1
 261.8606005 474.787270225 239.437703506 488.377035065 242 514 c 0
 243.333333333 526.666666667 250 536.333333333 262 543 c 2
 391 617 l 2
 403 624.333333333 414.333333333 624.333333333 425 617 c 2
 528 543 l 2
 538.666666667 535.666666667 542 525.333333333 538 512 c 0
447 424 m 0
 466.843686005 424 483 407.84313587 483 388 c 0
 483 385.333333333 481.666666667 378.333333333 479 367 c 2
 415 110 l 2
 412.333333333 99.3333333333 411 91.6666666667 411 87 c 0
 411 70.3333333333 416.666666667 62 428 62 c 0
 440.666666667 62 452.333333333 85.6666666667 463 133 c 0
 468.275317272 157.618147269 475.777783541 178 505 178 c 0
 530.333333333 178 543 167.333333333 543 146 c 0
 543 140 539.666666667 126 533 104 c 0
 510.333333333 30.6666666667 475 -6 427 -6 c 0
 389.01665954 -6 358.278234137 18.3273286228 346 44 c 1
 311.333333333 10.6666666667 274.666666667 -6 236 -6 c 0
 157.655380144 -6 116 67.3028574165 116 150 c 0
 116 213.333333333 135.333333333 275.333333333 174 336 c 0
 218 404.666666667 270 439 330 439 c 0
 360.666666667 439 387.666666667 427 411 403 c 1
 419 417 431 424 447 424 c 0
191 146 m 0
 191 110.829491429 202.35973843 62 237 62 c 0
 274.333333333 62 307.333333333 91 336 149 c 0
 361.333333333 199 374 244.666666667 374 286 c 0
 374 342.666666667 358.666666667 371 328 371 c 0
 291.333333333 371 258.333333333 341.666666667 229 283 c 0
 203.666666667 233 191 187.333333333 191 146 c 0
EndSplineSet
EndChar

StartChar: Acircumflexacute
Encoding: 7844 7844 140
Width: 525
Flags: W
HStem: 0 68<36.261 103 181 225.418 316.153 378 456 504.358> 164 68<260 380> 606 20G<398.592 433.985> 778 76<361.068 387> 842 77<559 586.351>
VStem: 380 76<68 164 232 352.833> 392 73<352.833 522>
LayerCount: 2
Fore
SplineSet
559 842 m 2xea
 411 783 l 2
 402.333333333 779.666666667 396 778 392 778 c 0
 369.333333333 778 358 792.666666667 358 822 c 0
 358 841.729726129 370.421214594 847.368485838 387 854 c 2xf2
 534 914 l 2
 542.666666667 917.333333333 549.666666667 919 555 919 c 0
 579 919 591 906.666666667 591 882 c 0
 591 864 580.333333333 850.666666667 559 842 c 2xea
537 659 m 2
 434 692 l 1
 323 659 l 2
 319 658.333333333 315 658 311 658 c 0
 299 658 291 664.333333333 287 677 c 0
 281 694.333333333 286 707.666666667 302 717 c 2
 311 722 l 1
 435 765 l 2
 441 767 448 767 456 765 c 1xe4
 566 722 l 2
 578.666666667 716 585 707.333333333 585 696 c 0
 585 674.488878621 560.187443981 651.753923756 537 659 c 2
456 68 m 1
 484.54990368 68 507 64.8594211688 507 37 c 0
 507 12.3333333333 491.333333333 0 460 0 c 2
 359 0 l 2
 329 0 314 10.6666666667 314 32 c 0
 314 49.3333333333 321 60.6666666667 335 66 c 0
 339 67.3333333333 353.333333333 68 378 68 c 1
 380 164 l 1xe4
 227 164 l 1
 181 68 l 1
 206.656211717 68 228 62.9736132619 228 37 c 0
 228 12.3333333333 212.333333333 0 181 0 c 2
 80 0 l 2
 48.6666666667 0 33.3333333333 10.6666666667 34 32 c 0
 34 48.6666666667 41 59.6666666667 55 65 c 0
 59.6666666667 67 75.6666666667 68 103 68 c 1
 353 591 l 2
 367.752180068 620.504360136 380.184076464 626 417 626 c 0
 450.970329652 626 465 617.976176396 465 587 c 2xe2
 456 68 l 1
392 522 m 1xe2
 260 232 l 1
 380 232 l 1xe4
 392 522 l 1xe2
EndSplineSet
EndChar

StartChar: acircumflexacute
Encoding: 7845 7845 141
Width: 525
Flags: W
HStem: -6 68<205.055 289.403 412.631 447.191> 372 68<275.922 362.071> 482 60<244.19 316.345 522 536.159> 602 76<318.068 344> 666 77<515 542.351>
VStem: 116 75<73.6074 247.023>
LayerCount: 2
Fore
SplineSet
515 666 m 2xec
 368 608 l 2
 359.333333333 604 353 602 349 602 c 0
 326.333333333 602 315 616.666666667 315 646 c 0
 315 665.729726129 327.421214594 671.368485838 344 678 c 2xf4
 491 738 l 2
 499 741.333333333 505.666666667 743 511 743 c 0
 535 743 547 730.666666667 547 706 c 0
 547 688 536.333333333 674.666666667 515 666 c 2xec
493 484 m 2
 391 516 l 1
 280 484 l 2
 276 482.666666667 272 482 268 482 c 0
 256 482 248 488.333333333 244 501 c 0
 238 519 243 532.666666667 259 542 c 1
 301.021584746 559.978415254 348.030131499 572.969868501 392 589 c 0
 398 591.666666667 405 591.666666667 413 589 c 2
 522 547 l 1
 534.666666667 540.333333333 541 531.333333333 541 520 c 256
 541 499.229339121 515.643131064 476.924021543 493 484 c 2
447 425 m 0
 466.843686005 425 483 408.84313587 483 389 c 0
 483 385.666666667 481.666666667 378.666666667 479 368 c 2
 415 110 l 2
 413 99.3333333333 412 91.6666666667 412 87 c 0
 412 70.3333333333 417.333333333 62 428 62 c 0
 440.666666667 62 452.333333333 85.6666666667 463 133 c 0
 468.315138564 157.803979963 474.938006787 178 505 178 c 0
 530.333333333 178 543 167.333333333 543 146 c 0
 543 140 539.666666667 126 533 104 c 0
 510.333333333 30.6666666667 475 -6 427 -6 c 0
 389.342914757 -6 357.963848804 18.9846797726 346 44 c 1
 311.333333333 10.6666666667 274.666666667 -6 236 -6 c 0
 158.543901115 -6 116 67.419906392 116 150 c 0
 116 213.333333333 135.333333333 275.666666667 174 337 c 0
 218 405.666666667 270 440 330 440 c 0
 360.666666667 440 387.666666667 428 411 404 c 1
 419 418 431 425 447 425 c 0
191 146 m 0
 191 110.829491429 202.35973843 62 237 62 c 0
 274.333333333 62 307.333333333 91.3333333333 336 150 c 0
 361.333333333 200 374 245.666666667 374 287 c 0
 374 343.666666667 358.666666667 372 328 372 c 0
 291.333333333 372 258.333333333 342.666666667 229 284 c 0
 203.666666667 233.333333333 191 187.333333333 191 146 c 0
EndSplineSet
EndChar

StartChar: Acircumflexdotbelow
Encoding: 7852 7852 142
Width: 525
Flags: W
HStem: -200 96<187.026 262.381> -2 69<36.5 102 181 225.157 316.153 378 456 504.37> 162 68<260 380>
VStem: 176 97<-189.382 -115> 314 193<1.98364 63.8122> 380 76<67 162 230 350.833> 392 73<350.833 520>
LayerCount: 2
Fore
SplineSet
536 658 m 2xf4
 434 690 l 1
 323 658 l 2
 319 656.666666667 315 656 311 656 c 0
 299 656 291 662.333333333 287 675 c 0
 281 693 286 706.666666667 302 716 c 2
 311 721 l 1
 435 764 l 2
 441 766 448 766 456 764 c 1
 566 721 l 2
 578.666666667 715 585 706 585 694 c 0
 585 672.600595306 559.419659034 651.11186499 536 658 c 2xf4
456 67 m 1
 484.669233956 67 507 62.4098230952 507 35 c 0
 507 10.3333333333 491.333333333 -2 460 -2 c 2
 359 -2 l 2
 329 -2 314 8.66666666667 314 30 c 0xf8
 314 48 321 59.6666666667 335 65 c 0
 339 66.3333333333 353.333333333 67 378 67 c 1
 380 162 l 1xf4
 227 162 l 1
 181 67 l 1
 207.037619612 67 228 61.2524664338 228 35 c 0
 228 10.3333333333 212.333333333 -2 181 -2 c 2
 80 -2 l 2
 48.6666666667 -2 33.3333333333 8.66666666667 34 30 c 0
 34 46.6666666667 41 57.6666666667 55 63 c 0
 59.6666666667 65.6666666667 75.3333333333 67 102 67 c 1
 353 589 l 2
 367.584494864 619.141289386 379.988530201 624 416 624 c 0
 451.979796551 624 465 615.602478433 465 585 c 2xf2
 456 67 l 1
273 -148 m 0
 273 -175.739476674 248.738559783 -200 221 -200 c 0
 195.318851658 -200 176 -181.009936106 176 -155 c 256
 176 -128.619908991 201.647061594 -104 228 -104 c 0
 258 -104 273 -118.666666667 273 -148 c 0
392 520 m 1xf2
 260 230 l 1
 380 230 l 1xf4
 392 520 l 1xf2
EndSplineSet
EndChar

StartChar: acircumflexdotbelow
Encoding: 7853 7853 143
Width: 525
Flags: W
HStem: -200 96<187.778 262.593> -8 68<204.923 289.403 411.252 447.191> 370 69<275.922 362.071>
VStem: 116 75<71.3093 245.421> 177 96<-190.098 -114.558>
LayerCount: 2
Fore
SplineSet
538 512 m 0xe0
 533.698958188 491.570051392 511.826415293 473.327191903 486 487 c 1
 397 547 l 1
 289 487 l 1
 262.465034172 475.059265378 239.38298458 488.138353514 242 513 c 0
 243.333333333 526.333333333 250 536.333333333 262 543 c 2
 391 617 l 2
 403 624.333333333 414.333333333 624.333333333 425 617 c 2
 528 543 l 2
 538.666666667 535 542 524.666666667 538 512 c 0xe0
447 424 m 0
 466.843686005 424 483 406.816991848 483 387 c 0
 483 384.333333333 481.666666667 377.333333333 479 366 c 2
 415 108 l 2
 412.333333333 98 411 90.3333333333 411 85 c 0
 411 68.3333333333 416.666666667 60 428 60 c 0
 440.666666667 60 452.333333333 84 463 132 c 0
 468.540370445 156.008271927 475.264360135 176 505 176 c 0
 530.333333333 176 543 165.666666667 543 145 c 0
 543 138.333333333 539.666666667 124 533 102 c 0
 510.333333333 28.6666666667 475 -8 427 -8 c 0
 389.01665954 -8 358.278234137 16.3273286228 346 42 c 1
 311.333333333 8.66666666667 274.666666667 -8 236 -8 c 0
 158.085393357 -8 116 65.6646993476 116 149 c 0xf0
 116 212.333333333 135.333333333 274.333333333 174 335 c 0
 218 404.333333333 270 439 330 439 c 0
 360.666666667 439 387.666666667 426.666666667 411 402 c 1
 419 416.666666667 431 424 447 424 c 0
273 -149 m 0xe8
 273 -175.917189048 249.230624687 -200 222 -200 c 0
 196.318851658 -200 177 -181.009936106 177 -155 c 256
 177 -128.08803062 201.80266657 -104 229 -104 c 0
 258.333333333 -104 273 -119 273 -149 c 0xe8
191 145 m 0xf0
 191 109.109931127 202.075413164 60 237 60 c 0
 274.333333333 60 307.333333333 89.3333333333 336 148 c 0
 361.333333333 198 374 243.666666667 374 285 c 0
 374 341.666666667 358.666666667 370 328 370 c 0
 291.333333333 370 258.333333333 340.666666667 229 282 c 0
 203.666666667 231.333333333 191 185.666666667 191 145 c 0xf0
EndSplineSet
EndChar

